G04 start of page 3 for group 1 idx 1 *
G04 Title: (unknown), solder *
G04 Creator: pcb 4.0.2 *
G04 CreationDate: Mon Aug 16 01:32:11 2021 UTC *
G04 For: ndholmes *
G04 Format: Gerber/RS-274X *
G04 PCB-Dimensions (mil): 700.00 5100.00 *
G04 PCB-Coordinate-Origin: lower left *
%MOIN*%
%FSLAX25Y25*%
%LNBOTTOM*%
%ADD28C,0.0500*%
%ADD27C,0.0120*%
%ADD26C,0.0310*%
%ADD25C,0.0260*%
%ADD24C,0.0800*%
%ADD23C,0.0200*%
%ADD22C,0.0001*%
G54D22*G36*
X15500Y312500D02*X8000D01*
Y320500D01*
X15500D01*
Y312500D01*
G37*
G36*
Y212500D02*X8000D01*
Y220500D01*
X15500D01*
Y212500D01*
G37*
G36*
Y162500D02*X8000D01*
Y170500D01*
X15500D01*
Y162500D01*
G37*
G36*
Y112500D02*X8000D01*
Y120500D01*
X15500D01*
Y112500D01*
G37*
G36*
Y62500D02*X8000D01*
Y70500D01*
X15500D01*
Y62500D01*
G37*
G36*
Y12500D02*X8000D01*
Y20500D01*
X15500D01*
Y12500D01*
G37*
G36*
X55500Y312500D02*Y320500D01*
X62000D01*
Y312500D01*
X55500D01*
G37*
G36*
Y262500D02*Y270500D01*
X62000D01*
Y262500D01*
X55500D01*
G37*
G36*
Y212500D02*Y220500D01*
X62000D01*
Y212500D01*
X55500D01*
G37*
G36*
X15500Y262500D02*X8000D01*
Y270500D01*
X15500D01*
Y262500D01*
G37*
G36*
X12500D02*Y277798D01*
X12770Y278450D01*
X12954Y279215D01*
X13000Y280000D01*
X12954Y280785D01*
X12770Y281550D01*
X12500Y282202D01*
Y291298D01*
X12770Y291950D01*
X12954Y292715D01*
X13000Y293500D01*
X12954Y294285D01*
X12770Y295050D01*
X12500Y295702D01*
Y297500D01*
X57500D01*
Y295702D01*
X57230Y295050D01*
X57046Y294285D01*
X56985Y293500D01*
X57046Y292715D01*
X57230Y291950D01*
X57500Y291298D01*
Y282202D01*
X57230Y281550D01*
X57046Y280785D01*
X56985Y280000D01*
X57046Y279215D01*
X57230Y278450D01*
X57500Y277798D01*
Y262500D01*
X12500D01*
G37*
G36*
Y212500D02*Y227798D01*
X12770Y228450D01*
X12954Y229215D01*
X13000Y230000D01*
X12954Y230785D01*
X12770Y231550D01*
X12500Y232202D01*
Y241298D01*
X12770Y241950D01*
X12954Y242715D01*
X13000Y243500D01*
X12954Y244285D01*
X12770Y245050D01*
X12500Y245702D01*
Y247500D01*
X57500D01*
Y245702D01*
X57230Y245050D01*
X57046Y244285D01*
X56985Y243500D01*
X57046Y242715D01*
X57230Y241950D01*
X57500Y241298D01*
Y232202D01*
X57230Y231550D01*
X57046Y230785D01*
X56985Y230000D01*
X57046Y229215D01*
X57230Y228450D01*
X57500Y227798D01*
Y212500D01*
X12500D01*
G37*
G36*
Y162500D02*Y177798D01*
X12770Y178450D01*
X12954Y179215D01*
X13000Y180000D01*
X12954Y180785D01*
X12770Y181550D01*
X12500Y182202D01*
Y191298D01*
X12770Y191950D01*
X12954Y192715D01*
X13000Y193500D01*
X12954Y194285D01*
X12770Y195050D01*
X12500Y195702D01*
Y197500D01*
X57500D01*
Y195702D01*
X57230Y195050D01*
X57046Y194285D01*
X56985Y193500D01*
X57046Y192715D01*
X57230Y191950D01*
X57500Y191298D01*
Y182202D01*
X57230Y181550D01*
X57046Y180785D01*
X56985Y180000D01*
X57046Y179215D01*
X57230Y178450D01*
X57500Y177798D01*
Y162500D01*
X12500D01*
G37*
G36*
Y112500D02*Y127798D01*
X12770Y128450D01*
X12954Y129215D01*
X13000Y130000D01*
X12954Y130785D01*
X12770Y131550D01*
X12500Y132202D01*
Y141298D01*
X12770Y141950D01*
X12954Y142715D01*
X13000Y143500D01*
X12954Y144285D01*
X12770Y145050D01*
X12500Y145702D01*
Y147500D01*
X57500D01*
Y145702D01*
X57230Y145050D01*
X57046Y144285D01*
X56985Y143500D01*
X57046Y142715D01*
X57230Y141950D01*
X57500Y141298D01*
Y132202D01*
X57230Y131550D01*
X57046Y130785D01*
X56985Y130000D01*
X57046Y129215D01*
X57230Y128450D01*
X57500Y127798D01*
Y112500D01*
X12500D01*
G37*
G36*
Y62500D02*Y77798D01*
X12770Y78450D01*
X12954Y79215D01*
X13000Y80000D01*
X12954Y80785D01*
X12770Y81550D01*
X12500Y82202D01*
Y91298D01*
X12770Y91950D01*
X12954Y92715D01*
X13000Y93500D01*
X12954Y94285D01*
X12770Y95050D01*
X12500Y95702D01*
Y97500D01*
X57500D01*
Y95702D01*
X57230Y95050D01*
X57046Y94285D01*
X56985Y93500D01*
X57046Y92715D01*
X57230Y91950D01*
X57500Y91298D01*
Y82202D01*
X57230Y81550D01*
X57046Y80785D01*
X56985Y80000D01*
X57046Y79215D01*
X57230Y78450D01*
X57500Y77798D01*
Y62500D01*
X12500D01*
G37*
G36*
X55500Y162500D02*Y170500D01*
X62000D01*
Y162500D01*
X55500D01*
G37*
G36*
Y112500D02*Y120500D01*
X62000D01*
Y112500D01*
X55500D01*
G37*
G36*
Y62500D02*Y70500D01*
X62000D01*
Y62500D01*
X55500D01*
G37*
G36*
Y12500D02*Y20500D01*
X62000D01*
Y12500D01*
X55500D01*
G37*
G36*
X12500D02*Y27798D01*
X12770Y28450D01*
X12954Y29215D01*
X13000Y30000D01*
X12954Y30785D01*
X12770Y31550D01*
X12500Y32202D01*
Y41298D01*
X12770Y41950D01*
X12954Y42715D01*
X13000Y43500D01*
X12954Y44285D01*
X12770Y45050D01*
X12500Y45702D01*
Y47500D01*
X57500D01*
Y45702D01*
X57230Y45050D01*
X57046Y44285D01*
X56985Y43500D01*
X57046Y42715D01*
X57230Y41950D01*
X57500Y41298D01*
Y32202D01*
X57230Y31550D01*
X57046Y30785D01*
X56985Y30000D01*
X57046Y29215D01*
X57230Y28450D01*
X57500Y27798D01*
Y12500D01*
X12500D01*
G37*
G36*
X15500Y412500D02*X8000D01*
Y420500D01*
X15500D01*
Y412500D01*
G37*
G36*
X55500D02*Y420500D01*
X62000D01*
Y412500D01*
X55500D01*
G37*
G36*
X15500Y362500D02*X8000D01*
Y370500D01*
X15500D01*
Y362500D01*
G37*
G36*
X55500D02*Y370500D01*
X62000D01*
Y362500D01*
X55500D01*
G37*
G36*
X12500D02*Y377798D01*
X12770Y378450D01*
X12954Y379215D01*
X13000Y380000D01*
X12954Y380785D01*
X12770Y381550D01*
X12500Y382202D01*
Y391298D01*
X12770Y391950D01*
X12954Y392715D01*
X13000Y393500D01*
X12954Y394285D01*
X12770Y395050D01*
X12500Y395702D01*
Y397500D01*
X57500D01*
Y395702D01*
X57230Y395050D01*
X57046Y394285D01*
X56985Y393500D01*
X57046Y392715D01*
X57230Y391950D01*
X57500Y391298D01*
Y382202D01*
X57230Y381550D01*
X57046Y380785D01*
X56985Y380000D01*
X57046Y379215D01*
X57230Y378450D01*
X57500Y377798D01*
Y362500D01*
X12500D01*
G37*
G36*
X15500Y462500D02*X8000D01*
Y470500D01*
X15500D01*
Y462500D01*
G37*
G36*
X55500D02*Y470500D01*
X62000D01*
Y462500D01*
X55500D01*
G37*
G36*
X12500D02*Y477798D01*
X12770Y478450D01*
X12954Y479215D01*
X13000Y480000D01*
X12954Y480785D01*
X12770Y481550D01*
X12500Y482202D01*
Y491298D01*
X12770Y491950D01*
X12954Y492715D01*
X13000Y493500D01*
X12954Y494285D01*
X12770Y495050D01*
X12500Y495702D01*
Y497500D01*
X57500D01*
Y495702D01*
X57230Y495050D01*
X57046Y494285D01*
X56985Y493500D01*
X57046Y492715D01*
X57230Y491950D01*
X57500Y491298D01*
Y482202D01*
X57230Y481550D01*
X57046Y480785D01*
X56985Y480000D01*
X57046Y479215D01*
X57230Y478450D01*
X57500Y477798D01*
Y462500D01*
X12500D01*
G37*
G36*
Y412500D02*Y427798D01*
X12770Y428450D01*
X12954Y429215D01*
X13000Y430000D01*
X12954Y430785D01*
X12770Y431550D01*
X12500Y432202D01*
Y441298D01*
X12770Y441950D01*
X12954Y442715D01*
X13000Y443500D01*
X12954Y444285D01*
X12770Y445050D01*
X12500Y445702D01*
Y447500D01*
X57500D01*
Y445702D01*
X57230Y445050D01*
X57046Y444285D01*
X56985Y443500D01*
X57046Y442715D01*
X57230Y441950D01*
X57500Y441298D01*
Y432202D01*
X57230Y431550D01*
X57046Y430785D01*
X56985Y430000D01*
X57046Y429215D01*
X57230Y428450D01*
X57500Y427798D01*
Y412500D01*
X12500D01*
G37*
G36*
Y312500D02*Y327798D01*
X12770Y328450D01*
X12954Y329215D01*
X13000Y330000D01*
X12954Y330785D01*
X12770Y331550D01*
X12500Y332202D01*
Y341298D01*
X12770Y341950D01*
X12954Y342715D01*
X13000Y343500D01*
X12954Y344285D01*
X12770Y345050D01*
X12500Y345702D01*
Y347500D01*
X57500D01*
Y345702D01*
X57230Y345050D01*
X57046Y344285D01*
X56985Y343500D01*
X57046Y342715D01*
X57230Y341950D01*
X57500Y341298D01*
Y332202D01*
X57230Y331550D01*
X57046Y330785D01*
X56985Y330000D01*
X57046Y329215D01*
X57230Y328450D01*
X57500Y327798D01*
Y312500D01*
X12500D01*
G37*
G54D23*X17000Y264500D02*X26000D01*
X17000D02*Y271500D01*
Y214500D02*X26000D01*
X17000Y164500D02*X26000D01*
X17000D02*Y171500D01*
Y214500D02*Y221500D01*
Y114500D02*X26000D01*
X17000D02*Y121500D01*
Y64500D02*X26000D01*
X17000D02*Y71500D01*
Y14500D02*X26000D01*
X17000D02*Y21500D01*
Y364500D02*X26000D01*
X17000D02*Y371500D01*
Y314500D02*X26000D01*
X17000D02*Y321500D01*
Y464500D02*X26000D01*
X17000D02*Y471500D01*
Y414500D02*X26000D01*
X17000D02*Y421500D01*
G54D24*X62000Y416500D03*
X8000Y430000D03*
Y416500D03*
X62000Y430000D03*
X8000Y443500D03*
Y393500D03*
X62000Y366500D03*
Y380000D03*
Y393500D03*
Y316500D03*
Y330000D03*
Y343500D03*
X8000Y380000D03*
Y366500D03*
Y330000D03*
Y316500D03*
Y343500D03*
Y480000D03*
Y466500D03*
Y493500D03*
X62000Y466500D03*
Y480000D03*
Y493500D03*
Y443500D03*
Y266500D03*
Y280000D03*
Y293500D03*
Y243500D03*
X8000Y280000D03*
Y266500D03*
Y293500D03*
Y230000D03*
Y216500D03*
Y243500D03*
X62000Y216500D03*
Y230000D03*
Y180000D03*
Y193500D03*
X8000Y180000D03*
Y193500D03*
Y166500D03*
Y130000D03*
Y143500D03*
X62000Y166500D03*
Y116500D03*
Y130000D03*
Y143500D03*
Y66500D03*
Y80000D03*
Y93500D03*
X8000Y116500D03*
Y80000D03*
Y66500D03*
Y93500D03*
X62000Y16500D03*
Y30000D03*
Y43500D03*
X8000Y30000D03*
Y16500D03*
Y43500D03*
G54D25*X26500Y295500D03*
X42500Y296000D03*
X45500D03*
X26500Y292500D03*
Y245500D03*
Y242500D03*
X41000Y282800D03*
Y232800D03*
X42500Y246000D03*
X45500D03*
X42500Y396000D03*
X45500D03*
X26500Y395500D03*
Y392500D03*
Y345500D03*
Y342500D03*
X41000Y382800D03*
Y332800D03*
X42500Y346000D03*
X45500D03*
X26500Y195500D03*
X42500Y196000D03*
X45500D03*
X26500Y192500D03*
Y145500D03*
Y142500D03*
X41000Y182800D03*
X42500Y146000D03*
X45500D03*
X26500Y495500D03*
X42500Y496000D03*
X45500D03*
X26500Y492500D03*
X41000Y482800D03*
X26500Y445500D03*
X42500Y446000D03*
X45500D03*
X26500Y442500D03*
X41000Y432800D03*
Y82800D03*
Y132800D03*
X26500Y95500D03*
X42500Y96000D03*
X45500D03*
Y46000D03*
X26500Y92500D03*
Y45500D03*
Y42500D03*
X41000Y32800D03*
X42500Y46000D03*
G54D26*G54D27*G54D26*G54D27*G54D26*G54D27*G54D26*G54D27*G54D26*G54D27*G54D26*G54D27*G54D26*G54D27*G54D26*G54D27*G54D28*M02*
