G04 start of page 7 for group -4063 idx -4063 *
G04 Title: (unknown), componentmask *
G04 Creator: pcb 4.0.2 *
G04 CreationDate: Mon Aug 16 01:32:11 2021 UTC *
G04 For: ndholmes *
G04 Format: Gerber/RS-274X *
G04 PCB-Dimensions (mil): 700.00 5100.00 *
G04 PCB-Coordinate-Origin: lower left *
%MOIN*%
%FSLAX25Y25*%
%LNTOPMASK*%
%ADD34C,0.0001*%
%ADD33C,0.0860*%
G54D33*X62000Y416500D03*
X8000Y430000D03*
Y416500D03*
X62000Y430000D03*
X8000Y443500D03*
Y393500D03*
X62000Y366500D03*
Y380000D03*
Y393500D03*
Y316500D03*
Y330000D03*
Y343500D03*
X8000Y380000D03*
Y366500D03*
Y330000D03*
Y316500D03*
Y343500D03*
Y480000D03*
Y466500D03*
Y493500D03*
X62000Y466500D03*
Y480000D03*
Y493500D03*
Y443500D03*
Y266500D03*
Y280000D03*
Y293500D03*
Y243500D03*
X8000Y280000D03*
Y266500D03*
Y293500D03*
Y230000D03*
Y216500D03*
Y243500D03*
X62000Y216500D03*
Y230000D03*
Y180000D03*
Y193500D03*
X8000Y180000D03*
Y193500D03*
Y166500D03*
Y130000D03*
Y143500D03*
X62000Y166500D03*
Y116500D03*
Y130000D03*
Y143500D03*
Y66500D03*
Y80000D03*
Y93500D03*
X8000Y116500D03*
Y80000D03*
Y66500D03*
Y93500D03*
X62000Y16500D03*
Y30000D03*
Y43500D03*
X8000Y30000D03*
Y16500D03*
Y43500D03*
G54D34*G36*
X51200Y276500D02*Y273500D01*
X55800D01*
Y276500D01*
X51200D01*
G37*
G36*
Y280400D02*Y277400D01*
X55800D01*
Y280400D01*
X51200D01*
G37*
G36*
Y284300D02*Y281300D01*
X55800D01*
Y284300D01*
X51200D01*
G37*
G36*
X43000D02*Y281300D01*
X47600D01*
Y284300D01*
X43000D01*
G37*
G36*
Y280400D02*Y277400D01*
X47600D01*
Y280400D01*
X43000D01*
G37*
G36*
Y276500D02*Y273500D01*
X47600D01*
Y276500D01*
X43000D01*
G37*
G36*
X54902Y269752D02*X49184D01*
Y263248D01*
X54902D01*
Y269752D01*
G37*
G36*
X47816D02*X42098D01*
Y263248D01*
X47816D01*
Y269752D01*
G37*
G36*
X55402Y294252D02*X49684D01*
Y287748D01*
X55402D01*
Y294252D01*
G37*
G36*
X48316D02*X42598D01*
Y287748D01*
X48316D01*
Y294252D01*
G37*
G36*
X13850Y265750D02*Y262850D01*
X38150D01*
Y265750D01*
X13850D01*
G37*
G36*
X38150Y271350D02*X35250D01*
Y262850D01*
X38150D01*
Y271350D01*
G37*
G36*
X16750D02*X13850D01*
Y262850D01*
X16750D01*
Y271350D01*
G37*
G36*
X38096Y268923D02*X35550Y271469D01*
X29531Y265450D01*
X32077Y262904D01*
X38096Y268923D01*
G37*
G36*
X33750Y267250D02*Y263650D01*
X37350D01*
Y267250D01*
X33750D01*
G37*
G36*
X16450Y271469D02*X13904Y268923D01*
X19923Y262904D01*
X22469Y265450D01*
X16450Y271469D01*
G37*
G36*
X14650Y267250D02*Y263650D01*
X18250D01*
Y267250D01*
X14650D01*
G37*
G36*
X18316Y247252D02*X12598D01*
Y240748D01*
X18316D01*
Y247252D01*
G37*
G36*
X25402D02*X19684D01*
Y240748D01*
X25402D01*
Y247252D01*
G37*
G36*
X40402D02*X34684D01*
Y240748D01*
X40402D01*
Y247252D01*
G37*
G36*
X33316D02*X27598D01*
Y240748D01*
X33316D01*
Y247252D01*
G37*
G36*
X13850Y237150D02*Y234250D01*
X38150D01*
Y237150D01*
X13850D01*
G37*
G36*
X38150D02*X35250D01*
Y228650D01*
X38150D01*
Y237150D01*
G37*
G36*
X32077Y237096D02*X29531Y234550D01*
X35550Y228531D01*
X38096Y231077D01*
X32077Y237096D01*
G37*
G36*
X33750Y236350D02*Y232750D01*
X37350D01*
Y236350D01*
X33750D01*
G37*
G36*
X16750Y237150D02*X13850D01*
Y228650D01*
X16750D01*
Y237150D01*
G37*
G36*
X22469Y234550D02*X19923Y237096D01*
X13904Y231077D01*
X16450Y228531D01*
X22469Y234550D01*
G37*
G36*
X14650Y236350D02*Y232750D01*
X18250D01*
Y236350D01*
X14650D01*
G37*
G36*
X51200Y226500D02*Y223500D01*
X55800D01*
Y226500D01*
X51200D01*
G37*
G36*
Y230400D02*Y227400D01*
X55800D01*
Y230400D01*
X51200D01*
G37*
G36*
Y234300D02*Y231300D01*
X55800D01*
Y234300D01*
X51200D01*
G37*
G36*
X43000D02*Y231300D01*
X47600D01*
Y234300D01*
X43000D01*
G37*
G36*
Y230400D02*Y227400D01*
X47600D01*
Y230400D01*
X43000D01*
G37*
G36*
Y226500D02*Y223500D01*
X47600D01*
Y226500D01*
X43000D01*
G37*
G36*
X54902Y219752D02*X49184D01*
Y213248D01*
X54902D01*
Y219752D01*
G37*
G36*
X47816D02*X42098D01*
Y213248D01*
X47816D01*
Y219752D01*
G37*
G36*
X55402Y244252D02*X49684D01*
Y237748D01*
X55402D01*
Y244252D01*
G37*
G36*
X48316D02*X42598D01*
Y237748D01*
X48316D01*
Y244252D01*
G37*
G36*
X13850Y215750D02*Y212850D01*
X38150D01*
Y215750D01*
X13850D01*
G37*
G36*
X38150Y221350D02*X35250D01*
Y212850D01*
X38150D01*
Y221350D01*
G37*
G36*
X16750D02*X13850D01*
Y212850D01*
X16750D01*
Y221350D01*
G37*
G36*
X38096Y218923D02*X35550Y221469D01*
X29531Y215450D01*
X32077Y212904D01*
X38096Y218923D01*
G37*
G36*
X33750Y217250D02*Y213650D01*
X37350D01*
Y217250D01*
X33750D01*
G37*
G36*
X16450Y221469D02*X13904Y218923D01*
X19923Y212904D01*
X22469Y215450D01*
X16450Y221469D01*
G37*
G36*
X14650Y217250D02*Y213650D01*
X18250D01*
Y217250D01*
X14650D01*
G37*
G36*
X18316Y197252D02*X12598D01*
Y190748D01*
X18316D01*
Y197252D01*
G37*
G36*
X25402D02*X19684D01*
Y190748D01*
X25402D01*
Y197252D01*
G37*
G36*
X40402D02*X34684D01*
Y190748D01*
X40402D01*
Y197252D01*
G37*
G36*
X33316D02*X27598D01*
Y190748D01*
X33316D01*
Y197252D01*
G37*
G36*
X13850Y187150D02*Y184250D01*
X38150D01*
Y187150D01*
X13850D01*
G37*
G36*
X38150D02*X35250D01*
Y178650D01*
X38150D01*
Y187150D01*
G37*
G36*
X32077Y187096D02*X29531Y184550D01*
X35550Y178531D01*
X38096Y181077D01*
X32077Y187096D01*
G37*
G36*
X33750Y186350D02*Y182750D01*
X37350D01*
Y186350D01*
X33750D01*
G37*
G36*
X16750Y187150D02*X13850D01*
Y178650D01*
X16750D01*
Y187150D01*
G37*
G36*
X22469Y184550D02*X19923Y187096D01*
X13904Y181077D01*
X16450Y178531D01*
X22469Y184550D01*
G37*
G36*
X14650Y186350D02*Y182750D01*
X18250D01*
Y186350D01*
X14650D01*
G37*
G36*
X51200Y176500D02*Y173500D01*
X55800D01*
Y176500D01*
X51200D01*
G37*
G36*
Y180400D02*Y177400D01*
X55800D01*
Y180400D01*
X51200D01*
G37*
G36*
Y184300D02*Y181300D01*
X55800D01*
Y184300D01*
X51200D01*
G37*
G36*
X43000D02*Y181300D01*
X47600D01*
Y184300D01*
X43000D01*
G37*
G36*
Y180400D02*Y177400D01*
X47600D01*
Y180400D01*
X43000D01*
G37*
G36*
Y176500D02*Y173500D01*
X47600D01*
Y176500D01*
X43000D01*
G37*
G36*
X54902Y169752D02*X49184D01*
Y163248D01*
X54902D01*
Y169752D01*
G37*
G36*
X47816D02*X42098D01*
Y163248D01*
X47816D01*
Y169752D01*
G37*
G36*
X55402Y194252D02*X49684D01*
Y187748D01*
X55402D01*
Y194252D01*
G37*
G36*
X48316D02*X42598D01*
Y187748D01*
X48316D01*
Y194252D01*
G37*
G36*
X13850Y165750D02*Y162850D01*
X38150D01*
Y165750D01*
X13850D01*
G37*
G36*
X38150Y171350D02*X35250D01*
Y162850D01*
X38150D01*
Y171350D01*
G37*
G36*
X16750D02*X13850D01*
Y162850D01*
X16750D01*
Y171350D01*
G37*
G36*
X38096Y168923D02*X35550Y171469D01*
X29531Y165450D01*
X32077Y162904D01*
X38096Y168923D01*
G37*
G36*
X33750Y167250D02*Y163650D01*
X37350D01*
Y167250D01*
X33750D01*
G37*
G36*
X16450Y171469D02*X13904Y168923D01*
X19923Y162904D01*
X22469Y165450D01*
X16450Y171469D01*
G37*
G36*
X14650Y167250D02*Y163650D01*
X18250D01*
Y167250D01*
X14650D01*
G37*
G36*
X18316Y147252D02*X12598D01*
Y140748D01*
X18316D01*
Y147252D01*
G37*
G36*
X25402D02*X19684D01*
Y140748D01*
X25402D01*
Y147252D01*
G37*
G36*
X40402D02*X34684D01*
Y140748D01*
X40402D01*
Y147252D01*
G37*
G36*
X33316D02*X27598D01*
Y140748D01*
X33316D01*
Y147252D01*
G37*
G36*
X13850Y137150D02*Y134250D01*
X38150D01*
Y137150D01*
X13850D01*
G37*
G36*
X38150D02*X35250D01*
Y128650D01*
X38150D01*
Y137150D01*
G37*
G36*
X32077Y137096D02*X29531Y134550D01*
X35550Y128531D01*
X38096Y131077D01*
X32077Y137096D01*
G37*
G36*
X33750Y136350D02*Y132750D01*
X37350D01*
Y136350D01*
X33750D01*
G37*
G36*
X16750Y137150D02*X13850D01*
Y128650D01*
X16750D01*
Y137150D01*
G37*
G36*
X22469Y134550D02*X19923Y137096D01*
X13904Y131077D01*
X16450Y128531D01*
X22469Y134550D01*
G37*
G36*
X14650Y136350D02*Y132750D01*
X18250D01*
Y136350D01*
X14650D01*
G37*
G36*
X51200Y126500D02*Y123500D01*
X55800D01*
Y126500D01*
X51200D01*
G37*
G36*
Y130400D02*Y127400D01*
X55800D01*
Y130400D01*
X51200D01*
G37*
G36*
Y134300D02*Y131300D01*
X55800D01*
Y134300D01*
X51200D01*
G37*
G36*
X43000D02*Y131300D01*
X47600D01*
Y134300D01*
X43000D01*
G37*
G36*
Y130400D02*Y127400D01*
X47600D01*
Y130400D01*
X43000D01*
G37*
G36*
Y126500D02*Y123500D01*
X47600D01*
Y126500D01*
X43000D01*
G37*
G36*
X54902Y119752D02*X49184D01*
Y113248D01*
X54902D01*
Y119752D01*
G37*
G36*
X47816D02*X42098D01*
Y113248D01*
X47816D01*
Y119752D01*
G37*
G36*
X55402Y144252D02*X49684D01*
Y137748D01*
X55402D01*
Y144252D01*
G37*
G36*
X48316D02*X42598D01*
Y137748D01*
X48316D01*
Y144252D01*
G37*
G36*
X13850Y115750D02*Y112850D01*
X38150D01*
Y115750D01*
X13850D01*
G37*
G36*
X38150Y121350D02*X35250D01*
Y112850D01*
X38150D01*
Y121350D01*
G37*
G36*
X16750D02*X13850D01*
Y112850D01*
X16750D01*
Y121350D01*
G37*
G36*
X38096Y118923D02*X35550Y121469D01*
X29531Y115450D01*
X32077Y112904D01*
X38096Y118923D01*
G37*
G36*
X33750Y117250D02*Y113650D01*
X37350D01*
Y117250D01*
X33750D01*
G37*
G36*
X16450Y121469D02*X13904Y118923D01*
X19923Y112904D01*
X22469Y115450D01*
X16450Y121469D01*
G37*
G36*
X14650Y117250D02*Y113650D01*
X18250D01*
Y117250D01*
X14650D01*
G37*
G36*
X18316Y97252D02*X12598D01*
Y90748D01*
X18316D01*
Y97252D01*
G37*
G36*
X25402D02*X19684D01*
Y90748D01*
X25402D01*
Y97252D01*
G37*
G36*
X40402D02*X34684D01*
Y90748D01*
X40402D01*
Y97252D01*
G37*
G36*
X33316D02*X27598D01*
Y90748D01*
X33316D01*
Y97252D01*
G37*
G36*
X13850Y87150D02*Y84250D01*
X38150D01*
Y87150D01*
X13850D01*
G37*
G36*
X38150D02*X35250D01*
Y78650D01*
X38150D01*
Y87150D01*
G37*
G36*
X32077Y87096D02*X29531Y84550D01*
X35550Y78531D01*
X38096Y81077D01*
X32077Y87096D01*
G37*
G36*
X33750Y86350D02*Y82750D01*
X37350D01*
Y86350D01*
X33750D01*
G37*
G36*
X16750Y87150D02*X13850D01*
Y78650D01*
X16750D01*
Y87150D01*
G37*
G36*
X22469Y84550D02*X19923Y87096D01*
X13904Y81077D01*
X16450Y78531D01*
X22469Y84550D01*
G37*
G36*
X14650Y86350D02*Y82750D01*
X18250D01*
Y86350D01*
X14650D01*
G37*
G36*
X51200Y76500D02*Y73500D01*
X55800D01*
Y76500D01*
X51200D01*
G37*
G36*
Y80400D02*Y77400D01*
X55800D01*
Y80400D01*
X51200D01*
G37*
G36*
Y84300D02*Y81300D01*
X55800D01*
Y84300D01*
X51200D01*
G37*
G36*
X43000D02*Y81300D01*
X47600D01*
Y84300D01*
X43000D01*
G37*
G36*
Y80400D02*Y77400D01*
X47600D01*
Y80400D01*
X43000D01*
G37*
G36*
Y76500D02*Y73500D01*
X47600D01*
Y76500D01*
X43000D01*
G37*
G36*
X54902Y69752D02*X49184D01*
Y63248D01*
X54902D01*
Y69752D01*
G37*
G36*
X47816D02*X42098D01*
Y63248D01*
X47816D01*
Y69752D01*
G37*
G36*
X55402Y94252D02*X49684D01*
Y87748D01*
X55402D01*
Y94252D01*
G37*
G36*
X48316D02*X42598D01*
Y87748D01*
X48316D01*
Y94252D01*
G37*
G36*
X13850Y65750D02*Y62850D01*
X38150D01*
Y65750D01*
X13850D01*
G37*
G36*
X38150Y71350D02*X35250D01*
Y62850D01*
X38150D01*
Y71350D01*
G37*
G36*
X16750D02*X13850D01*
Y62850D01*
X16750D01*
Y71350D01*
G37*
G36*
X38096Y68923D02*X35550Y71469D01*
X29531Y65450D01*
X32077Y62904D01*
X38096Y68923D01*
G37*
G36*
X33750Y67250D02*Y63650D01*
X37350D01*
Y67250D01*
X33750D01*
G37*
G36*
X16450Y71469D02*X13904Y68923D01*
X19923Y62904D01*
X22469Y65450D01*
X16450Y71469D01*
G37*
G36*
X14650Y67250D02*Y63650D01*
X18250D01*
Y67250D01*
X14650D01*
G37*
G36*
X18316Y47252D02*X12598D01*
Y40748D01*
X18316D01*
Y47252D01*
G37*
G36*
X25402D02*X19684D01*
Y40748D01*
X25402D01*
Y47252D01*
G37*
G36*
X40402D02*X34684D01*
Y40748D01*
X40402D01*
Y47252D01*
G37*
G36*
X33316D02*X27598D01*
Y40748D01*
X33316D01*
Y47252D01*
G37*
G36*
X51200Y26500D02*Y23500D01*
X55800D01*
Y26500D01*
X51200D01*
G37*
G36*
Y30400D02*Y27400D01*
X55800D01*
Y30400D01*
X51200D01*
G37*
G36*
Y34300D02*Y31300D01*
X55800D01*
Y34300D01*
X51200D01*
G37*
G36*
X43000D02*Y31300D01*
X47600D01*
Y34300D01*
X43000D01*
G37*
G36*
Y30400D02*Y27400D01*
X47600D01*
Y30400D01*
X43000D01*
G37*
G36*
Y26500D02*Y23500D01*
X47600D01*
Y26500D01*
X43000D01*
G37*
G36*
X54902Y19752D02*X49184D01*
Y13248D01*
X54902D01*
Y19752D01*
G37*
G36*
X47816D02*X42098D01*
Y13248D01*
X47816D01*
Y19752D01*
G37*
G36*
X55402Y44252D02*X49684D01*
Y37748D01*
X55402D01*
Y44252D01*
G37*
G36*
X48316D02*X42598D01*
Y37748D01*
X48316D01*
Y44252D01*
G37*
G36*
X13850Y15750D02*Y12850D01*
X38150D01*
Y15750D01*
X13850D01*
G37*
G36*
X38150Y21350D02*X35250D01*
Y12850D01*
X38150D01*
Y21350D01*
G37*
G36*
X16750D02*X13850D01*
Y12850D01*
X16750D01*
Y21350D01*
G37*
G36*
X38096Y18923D02*X35550Y21469D01*
X29531Y15450D01*
X32077Y12904D01*
X38096Y18923D01*
G37*
G36*
X33750Y17250D02*Y13650D01*
X37350D01*
Y17250D01*
X33750D01*
G37*
G36*
X16450Y21469D02*X13904Y18923D01*
X19923Y12904D01*
X22469Y15450D01*
X16450Y21469D01*
G37*
G36*
X14650Y17250D02*Y13650D01*
X18250D01*
Y17250D01*
X14650D01*
G37*
G36*
X13850Y37150D02*Y34250D01*
X38150D01*
Y37150D01*
X13850D01*
G37*
G36*
X38150D02*X35250D01*
Y28650D01*
X38150D01*
Y37150D01*
G37*
G36*
X32077Y37096D02*X29531Y34550D01*
X35550Y28531D01*
X38096Y31077D01*
X32077Y37096D01*
G37*
G36*
X33750Y36350D02*Y32750D01*
X37350D01*
Y36350D01*
X33750D01*
G37*
G36*
X16750Y37150D02*X13850D01*
Y28650D01*
X16750D01*
Y37150D01*
G37*
G36*
X22469Y34550D02*X19923Y37096D01*
X13904Y31077D01*
X16450Y28531D01*
X22469Y34550D01*
G37*
G36*
X14650Y36350D02*Y32750D01*
X18250D01*
Y36350D01*
X14650D01*
G37*
G36*
X51200Y426500D02*Y423500D01*
X55800D01*
Y426500D01*
X51200D01*
G37*
G36*
Y430400D02*Y427400D01*
X55800D01*
Y430400D01*
X51200D01*
G37*
G36*
Y434300D02*Y431300D01*
X55800D01*
Y434300D01*
X51200D01*
G37*
G36*
X43000D02*Y431300D01*
X47600D01*
Y434300D01*
X43000D01*
G37*
G36*
Y430400D02*Y427400D01*
X47600D01*
Y430400D01*
X43000D01*
G37*
G36*
Y426500D02*Y423500D01*
X47600D01*
Y426500D01*
X43000D01*
G37*
G36*
X54902Y419752D02*X49184D01*
Y413248D01*
X54902D01*
Y419752D01*
G37*
G36*
X47816D02*X42098D01*
Y413248D01*
X47816D01*
Y419752D01*
G37*
G36*
X55402Y444252D02*X49684D01*
Y437748D01*
X55402D01*
Y444252D01*
G37*
G36*
X48316D02*X42598D01*
Y437748D01*
X48316D01*
Y444252D01*
G37*
G36*
X13850Y415750D02*Y412850D01*
X38150D01*
Y415750D01*
X13850D01*
G37*
G36*
X38150Y421350D02*X35250D01*
Y412850D01*
X38150D01*
Y421350D01*
G37*
G36*
X38096Y418923D02*X35550Y421469D01*
X29531Y415450D01*
X32077Y412904D01*
X38096Y418923D01*
G37*
G36*
X33750Y417250D02*Y413650D01*
X37350D01*
Y417250D01*
X33750D01*
G37*
G36*
X40402Y397252D02*X34684D01*
Y390748D01*
X40402D01*
Y397252D01*
G37*
G36*
X33316D02*X27598D01*
Y390748D01*
X33316D01*
Y397252D01*
G37*
G36*
X16750Y421350D02*X13850D01*
Y412850D01*
X16750D01*
Y421350D01*
G37*
G36*
X16450Y421469D02*X13904Y418923D01*
X19923Y412904D01*
X22469Y415450D01*
X16450Y421469D01*
G37*
G36*
X14650Y417250D02*Y413650D01*
X18250D01*
Y417250D01*
X14650D01*
G37*
G36*
X18316Y397252D02*X12598D01*
Y390748D01*
X18316D01*
Y397252D01*
G37*
G36*
X25402D02*X19684D01*
Y390748D01*
X25402D01*
Y397252D01*
G37*
G36*
X13850Y437150D02*Y434250D01*
X38150D01*
Y437150D01*
X13850D01*
G37*
G36*
X38150D02*X35250D01*
Y428650D01*
X38150D01*
Y437150D01*
G37*
G36*
X32077Y437096D02*X29531Y434550D01*
X35550Y428531D01*
X38096Y431077D01*
X32077Y437096D01*
G37*
G36*
X33750Y436350D02*Y432750D01*
X37350D01*
Y436350D01*
X33750D01*
G37*
G36*
X16750Y437150D02*X13850D01*
Y428650D01*
X16750D01*
Y437150D01*
G37*
G36*
X22469Y434550D02*X19923Y437096D01*
X13904Y431077D01*
X16450Y428531D01*
X22469Y434550D01*
G37*
G36*
X14650Y436350D02*Y432750D01*
X18250D01*
Y436350D01*
X14650D01*
G37*
G36*
X13850Y387150D02*Y384250D01*
X38150D01*
Y387150D01*
X13850D01*
G37*
G36*
X38150D02*X35250D01*
Y378650D01*
X38150D01*
Y387150D01*
G37*
G36*
X32077Y387096D02*X29531Y384550D01*
X35550Y378531D01*
X38096Y381077D01*
X32077Y387096D01*
G37*
G36*
X33750Y386350D02*Y382750D01*
X37350D01*
Y386350D01*
X33750D01*
G37*
G36*
X16750Y387150D02*X13850D01*
Y378650D01*
X16750D01*
Y387150D01*
G37*
G36*
X22469Y384550D02*X19923Y387096D01*
X13904Y381077D01*
X16450Y378531D01*
X22469Y384550D01*
G37*
G36*
X14650Y386350D02*Y382750D01*
X18250D01*
Y386350D01*
X14650D01*
G37*
G36*
X18316Y497252D02*X12598D01*
Y490748D01*
X18316D01*
Y497252D01*
G37*
G36*
X25402D02*X19684D01*
Y490748D01*
X25402D01*
Y497252D01*
G37*
G36*
X13850Y465750D02*Y462850D01*
X38150D01*
Y465750D01*
X13850D01*
G37*
G36*
X16750Y471350D02*X13850D01*
Y462850D01*
X16750D01*
Y471350D01*
G37*
G36*
X38096Y468923D02*X35550Y471469D01*
X29531Y465450D01*
X32077Y462904D01*
X38096Y468923D01*
G37*
G36*
X16450Y471469D02*X13904Y468923D01*
X19923Y462904D01*
X22469Y465450D01*
X16450Y471469D01*
G37*
G36*
X33750Y467250D02*Y463650D01*
X37350D01*
Y467250D01*
X33750D01*
G37*
G36*
X14650D02*Y463650D01*
X18250D01*
Y467250D01*
X14650D01*
G37*
G36*
X33316Y497252D02*X27598D01*
Y490748D01*
X33316D01*
Y497252D01*
G37*
G36*
X32077Y487096D02*X29531Y484550D01*
X35550Y478531D01*
X38096Y481077D01*
X32077Y487096D01*
G37*
G36*
X33750Y486350D02*Y482750D01*
X37350D01*
Y486350D01*
X33750D01*
G37*
G36*
X13850Y487150D02*Y484250D01*
X38150D01*
Y487150D01*
X13850D01*
G37*
G36*
X16750D02*X13850D01*
Y478650D01*
X16750D01*
Y487150D01*
G37*
G36*
X22469Y484550D02*X19923Y487096D01*
X13904Y481077D01*
X16450Y478531D01*
X22469Y484550D01*
G37*
G36*
X14650Y486350D02*Y482750D01*
X18250D01*
Y486350D01*
X14650D01*
G37*
G36*
X18316Y447252D02*X12598D01*
Y440748D01*
X18316D01*
Y447252D01*
G37*
G36*
X25402D02*X19684D01*
Y440748D01*
X25402D01*
Y447252D01*
G37*
G36*
X40402D02*X34684D01*
Y440748D01*
X40402D01*
Y447252D01*
G37*
G36*
X33316D02*X27598D01*
Y440748D01*
X33316D01*
Y447252D01*
G37*
G36*
X40402Y497252D02*X34684D01*
Y490748D01*
X40402D01*
Y497252D01*
G37*
G36*
X38150Y487150D02*X35250D01*
Y478650D01*
X38150D01*
Y487150D01*
G37*
G36*
X51200Y476500D02*Y473500D01*
X55800D01*
Y476500D01*
X51200D01*
G37*
G36*
Y480400D02*Y477400D01*
X55800D01*
Y480400D01*
X51200D01*
G37*
G36*
Y484300D02*Y481300D01*
X55800D01*
Y484300D01*
X51200D01*
G37*
G36*
X43000D02*Y481300D01*
X47600D01*
Y484300D01*
X43000D01*
G37*
G36*
Y480400D02*Y477400D01*
X47600D01*
Y480400D01*
X43000D01*
G37*
G36*
Y476500D02*Y473500D01*
X47600D01*
Y476500D01*
X43000D01*
G37*
G36*
X54902Y469752D02*X49184D01*
Y463248D01*
X54902D01*
Y469752D01*
G37*
G36*
X47816D02*X42098D01*
Y463248D01*
X47816D01*
Y469752D01*
G37*
G36*
X38150Y471350D02*X35250D01*
Y462850D01*
X38150D01*
Y471350D01*
G37*
G36*
X55402Y494252D02*X49684D01*
Y487748D01*
X55402D01*
Y494252D01*
G37*
G36*
X48316D02*X42598D01*
Y487748D01*
X48316D01*
Y494252D01*
G37*
G36*
X51200Y376500D02*Y373500D01*
X55800D01*
Y376500D01*
X51200D01*
G37*
G36*
Y380400D02*Y377400D01*
X55800D01*
Y380400D01*
X51200D01*
G37*
G36*
Y384300D02*Y381300D01*
X55800D01*
Y384300D01*
X51200D01*
G37*
G36*
X43000D02*Y381300D01*
X47600D01*
Y384300D01*
X43000D01*
G37*
G36*
Y380400D02*Y377400D01*
X47600D01*
Y380400D01*
X43000D01*
G37*
G36*
Y376500D02*Y373500D01*
X47600D01*
Y376500D01*
X43000D01*
G37*
G36*
X54902Y369752D02*X49184D01*
Y363248D01*
X54902D01*
Y369752D01*
G37*
G36*
X47816D02*X42098D01*
Y363248D01*
X47816D01*
Y369752D01*
G37*
G36*
X55402Y394252D02*X49684D01*
Y387748D01*
X55402D01*
Y394252D01*
G37*
G36*
X48316D02*X42598D01*
Y387748D01*
X48316D01*
Y394252D01*
G37*
G36*
X13850Y365750D02*Y362850D01*
X38150D01*
Y365750D01*
X13850D01*
G37*
G36*
X38150Y371350D02*X35250D01*
Y362850D01*
X38150D01*
Y371350D01*
G37*
G36*
X16750D02*X13850D01*
Y362850D01*
X16750D01*
Y371350D01*
G37*
G36*
X38096Y368923D02*X35550Y371469D01*
X29531Y365450D01*
X32077Y362904D01*
X38096Y368923D01*
G37*
G36*
X33750Y367250D02*Y363650D01*
X37350D01*
Y367250D01*
X33750D01*
G37*
G36*
X16450Y371469D02*X13904Y368923D01*
X19923Y362904D01*
X22469Y365450D01*
X16450Y371469D01*
G37*
G36*
X14650Y367250D02*Y363650D01*
X18250D01*
Y367250D01*
X14650D01*
G37*
G36*
X18316Y347252D02*X12598D01*
Y340748D01*
X18316D01*
Y347252D01*
G37*
G36*
X25402D02*X19684D01*
Y340748D01*
X25402D01*
Y347252D01*
G37*
G36*
X40402D02*X34684D01*
Y340748D01*
X40402D01*
Y347252D01*
G37*
G36*
X33316D02*X27598D01*
Y340748D01*
X33316D01*
Y347252D01*
G37*
G36*
X13850Y337150D02*Y334250D01*
X38150D01*
Y337150D01*
X13850D01*
G37*
G36*
X38150D02*X35250D01*
Y328650D01*
X38150D01*
Y337150D01*
G37*
G36*
X32077Y337096D02*X29531Y334550D01*
X35550Y328531D01*
X38096Y331077D01*
X32077Y337096D01*
G37*
G36*
X33750Y336350D02*Y332750D01*
X37350D01*
Y336350D01*
X33750D01*
G37*
G36*
X16750Y337150D02*X13850D01*
Y328650D01*
X16750D01*
Y337150D01*
G37*
G36*
X22469Y334550D02*X19923Y337096D01*
X13904Y331077D01*
X16450Y328531D01*
X22469Y334550D01*
G37*
G36*
X14650Y336350D02*Y332750D01*
X18250D01*
Y336350D01*
X14650D01*
G37*
G36*
X51200Y326500D02*Y323500D01*
X55800D01*
Y326500D01*
X51200D01*
G37*
G36*
Y330400D02*Y327400D01*
X55800D01*
Y330400D01*
X51200D01*
G37*
G36*
Y334300D02*Y331300D01*
X55800D01*
Y334300D01*
X51200D01*
G37*
G36*
X43000D02*Y331300D01*
X47600D01*
Y334300D01*
X43000D01*
G37*
G36*
Y330400D02*Y327400D01*
X47600D01*
Y330400D01*
X43000D01*
G37*
G36*
Y326500D02*Y323500D01*
X47600D01*
Y326500D01*
X43000D01*
G37*
G36*
X54902Y319752D02*X49184D01*
Y313248D01*
X54902D01*
Y319752D01*
G37*
G36*
X47816D02*X42098D01*
Y313248D01*
X47816D01*
Y319752D01*
G37*
G36*
X55402Y344252D02*X49684D01*
Y337748D01*
X55402D01*
Y344252D01*
G37*
G36*
X48316D02*X42598D01*
Y337748D01*
X48316D01*
Y344252D01*
G37*
G36*
X13850Y315750D02*Y312850D01*
X38150D01*
Y315750D01*
X13850D01*
G37*
G36*
X38150Y321350D02*X35250D01*
Y312850D01*
X38150D01*
Y321350D01*
G37*
G36*
X16750D02*X13850D01*
Y312850D01*
X16750D01*
Y321350D01*
G37*
G36*
X38096Y318923D02*X35550Y321469D01*
X29531Y315450D01*
X32077Y312904D01*
X38096Y318923D01*
G37*
G36*
X33750Y317250D02*Y313650D01*
X37350D01*
Y317250D01*
X33750D01*
G37*
G36*
X16450Y321469D02*X13904Y318923D01*
X19923Y312904D01*
X22469Y315450D01*
X16450Y321469D01*
G37*
G36*
X14650Y317250D02*Y313650D01*
X18250D01*
Y317250D01*
X14650D01*
G37*
G36*
X18316Y297252D02*X12598D01*
Y290748D01*
X18316D01*
Y297252D01*
G37*
G36*
X25402D02*X19684D01*
Y290748D01*
X25402D01*
Y297252D01*
G37*
G36*
X40402D02*X34684D01*
Y290748D01*
X40402D01*
Y297252D01*
G37*
G36*
X33316D02*X27598D01*
Y290748D01*
X33316D01*
Y297252D01*
G37*
G36*
X13850Y287150D02*Y284250D01*
X38150D01*
Y287150D01*
X13850D01*
G37*
G36*
X38150D02*X35250D01*
Y278650D01*
X38150D01*
Y287150D01*
G37*
G36*
X32077Y287096D02*X29531Y284550D01*
X35550Y278531D01*
X38096Y281077D01*
X32077Y287096D01*
G37*
G36*
X33750Y286350D02*Y282750D01*
X37350D01*
Y286350D01*
X33750D01*
G37*
G36*
X16750Y287150D02*X13850D01*
Y278650D01*
X16750D01*
Y287150D01*
G37*
G36*
X22469Y284550D02*X19923Y287096D01*
X13904Y281077D01*
X16450Y278531D01*
X22469Y284550D01*
G37*
G36*
X14650Y286350D02*Y282750D01*
X18250D01*
Y286350D01*
X14650D01*
G37*
M02*
