M48
INCH
T31C0.012
T30C0.050
%
T31
X002650Y049550
X002650Y049250
X002650Y044550
X002650Y044250
X002650Y039550
X002650Y039250
X002650Y034550
X002650Y034250
X002650Y029550
X002650Y029250
X002650Y024550
X002650Y024250
X002650Y019550
X002650Y019250
X002650Y014550
X002650Y014250
X002650Y009550
X002650Y009250
X002650Y004550
X002650Y004250
X004100Y048280
X004100Y043280
X004100Y038280
X004100Y033280
X004100Y028280
X004100Y023280
X004100Y018280
X004100Y013280
X004100Y008280
X004100Y003280
X004250Y049600
X004250Y044600
X004250Y039600
X004250Y034600
X004250Y029600
X004250Y024600
X004250Y019600
X004250Y014600
X004250Y009600
X004250Y004600
X004550Y049600
X004550Y044600
X004550Y039600
X004550Y034600
X004550Y029600
X004550Y024600
X004550Y019600
X004550Y014600
X004550Y009600
X004550Y004600
T30
X000800Y049350
X000800Y048000
X000800Y046650
X000800Y044350
X000800Y043000
X000800Y041650
X000800Y039350
X000800Y038000
X000800Y036650
X000800Y034350
X000800Y033000
X000800Y031650
X000800Y029350
X000800Y028000
X000800Y026650
X000800Y024350
X000800Y023000
X000800Y021650
X000800Y019350
X000800Y018000
X000800Y016650
X000800Y014350
X000800Y013000
X000800Y011650
X000800Y009350
X000800Y008000
X000800Y006650
X000800Y004350
X000800Y003000
X000800Y001650
X006200Y049350
X006200Y048000
X006200Y046650
X006200Y044350
X006200Y043000
X006200Y041650
X006200Y039350
X006200Y038000
X006200Y036650
X006200Y034350
X006200Y033000
X006200Y031650
X006200Y029350
X006200Y028000
X006200Y026650
X006200Y024350
X006200Y023000
X006200Y021650
X006200Y019350
X006200Y018000
X006200Y016650
X006200Y014350
X006200Y013000
X006200Y011650
X006200Y009350
X006200Y008000
X006200Y006650
X006200Y004350
X006200Y003000
X006200Y001650
M30
