M48
INCH
T32C0.031
%
T32
X003000Y045900
X003000Y045100
X003000Y040900
X003000Y040100
X003000Y035900
X003000Y035100
X003000Y030900
X003000Y030100
X003000Y025900
X003000Y025100
X003000Y020900
X003000Y020100
X003000Y015900
X003000Y015100
X003000Y010900
X003000Y010100
X003000Y005900
X003000Y005100
X003500Y045900
X003500Y045100
X003500Y040900
X003500Y040100
X003500Y035900
X003500Y035100
X003500Y030900
X003500Y030100
X003500Y025900
X003500Y025100
X003500Y020900
X003500Y020100
X003500Y015900
X003500Y015100
X003500Y010900
X003500Y010100
X003500Y005900
X003500Y005100
X004000Y045900
X004000Y045100
X004000Y040900
X004000Y040100
X004000Y035900
X004000Y035100
X004000Y030900
X004000Y030100
X004000Y025900
X004000Y025100
X004000Y020900
X004000Y020100
X004000Y015900
X004000Y015100
X004000Y010900
X004000Y010100
X004000Y005900
X004000Y005100
M30
