G04 start of page 13 for group -3984 idx -3984 *
G04 Title: (unknown), fab *
G04 Creator: pcb 4.0.2 *
G04 CreationDate: Mon Aug 16 01:32:11 2021 UTC *
G04 For: ndholmes *
G04 Format: Gerber/RS-274X *
G04 PCB-Dimensions (mil): 700.00 5100.00 *
G04 PCB-Coordinate-Origin: lower left *
%MOIN*%
%FSLAX25Y25*%
%LNFAB*%
%ADD43C,0.0100*%
%ADD42C,0.0060*%
%ADD41C,0.0001*%
G54D41*G36*
X60800Y468266D02*X63766Y465300D01*
X63200Y464734D01*
X60234Y467700D01*
X60800Y468266D01*
G37*
G36*
X60234Y465300D02*X63200Y468266D01*
X63766Y467700D01*
X60800Y464734D01*
X60234Y465300D01*
G37*
G36*
X6800Y481766D02*X9766Y478800D01*
X9200Y478234D01*
X6234Y481200D01*
X6800Y481766D01*
G37*
G36*
X6234Y478800D02*X9200Y481766D01*
X9766Y481200D01*
X6800Y478234D01*
X6234Y478800D01*
G37*
G36*
X6800Y468266D02*X9766Y465300D01*
X9200Y464734D01*
X6234Y467700D01*
X6800Y468266D01*
G37*
G36*
X6234Y465300D02*X9200Y468266D01*
X9766Y467700D01*
X6800Y464734D01*
X6234Y465300D01*
G37*
G36*
X60800Y481766D02*X63766Y478800D01*
X63200Y478234D01*
X60234Y481200D01*
X60800Y481766D01*
G37*
G36*
X60234Y478800D02*X63200Y481766D01*
X63766Y481200D01*
X60800Y478234D01*
X60234Y478800D01*
G37*
G36*
X60800Y495266D02*X63766Y492300D01*
X63200Y491734D01*
X60234Y494700D01*
X60800Y495266D01*
G37*
G36*
X60234Y492300D02*X63200Y495266D01*
X63766Y494700D01*
X60800Y491734D01*
X60234Y492300D01*
G37*
G36*
X6800Y495266D02*X9766Y492300D01*
X9200Y491734D01*
X6234Y494700D01*
X6800Y495266D01*
G37*
G36*
X6234Y492300D02*X9200Y495266D01*
X9766Y494700D01*
X6800Y491734D01*
X6234Y492300D01*
G37*
G36*
X60800Y418266D02*X63766Y415300D01*
X63200Y414734D01*
X60234Y417700D01*
X60800Y418266D01*
G37*
G36*
X60234Y415300D02*X63200Y418266D01*
X63766Y417700D01*
X60800Y414734D01*
X60234Y415300D01*
G37*
G36*
X6800Y431766D02*X9766Y428800D01*
X9200Y428234D01*
X6234Y431200D01*
X6800Y431766D01*
G37*
G36*
X6234Y428800D02*X9200Y431766D01*
X9766Y431200D01*
X6800Y428234D01*
X6234Y428800D01*
G37*
G36*
X6800Y418266D02*X9766Y415300D01*
X9200Y414734D01*
X6234Y417700D01*
X6800Y418266D01*
G37*
G36*
X6234Y415300D02*X9200Y418266D01*
X9766Y417700D01*
X6800Y414734D01*
X6234Y415300D01*
G37*
G36*
X60800Y431766D02*X63766Y428800D01*
X63200Y428234D01*
X60234Y431200D01*
X60800Y431766D01*
G37*
G36*
X60234Y428800D02*X63200Y431766D01*
X63766Y431200D01*
X60800Y428234D01*
X60234Y428800D01*
G37*
G36*
X60800Y445266D02*X63766Y442300D01*
X63200Y441734D01*
X60234Y444700D01*
X60800Y445266D01*
G37*
G36*
X60234Y442300D02*X63200Y445266D01*
X63766Y444700D01*
X60800Y441734D01*
X60234Y442300D01*
G37*
G36*
X6800Y445266D02*X9766Y442300D01*
X9200Y441734D01*
X6234Y444700D01*
X6800Y445266D01*
G37*
G36*
X6234Y442300D02*X9200Y445266D01*
X9766Y444700D01*
X6800Y441734D01*
X6234Y442300D01*
G37*
G36*
X60800Y368266D02*X63766Y365300D01*
X63200Y364734D01*
X60234Y367700D01*
X60800Y368266D01*
G37*
G36*
X60234Y365300D02*X63200Y368266D01*
X63766Y367700D01*
X60800Y364734D01*
X60234Y365300D01*
G37*
G36*
X6800Y381766D02*X9766Y378800D01*
X9200Y378234D01*
X6234Y381200D01*
X6800Y381766D01*
G37*
G36*
X6234Y378800D02*X9200Y381766D01*
X9766Y381200D01*
X6800Y378234D01*
X6234Y378800D01*
G37*
G36*
X6800Y368266D02*X9766Y365300D01*
X9200Y364734D01*
X6234Y367700D01*
X6800Y368266D01*
G37*
G36*
X6234Y365300D02*X9200Y368266D01*
X9766Y367700D01*
X6800Y364734D01*
X6234Y365300D01*
G37*
G36*
X60800Y381766D02*X63766Y378800D01*
X63200Y378234D01*
X60234Y381200D01*
X60800Y381766D01*
G37*
G36*
X60234Y378800D02*X63200Y381766D01*
X63766Y381200D01*
X60800Y378234D01*
X60234Y378800D01*
G37*
G36*
X60800Y395266D02*X63766Y392300D01*
X63200Y391734D01*
X60234Y394700D01*
X60800Y395266D01*
G37*
G36*
X60234Y392300D02*X63200Y395266D01*
X63766Y394700D01*
X60800Y391734D01*
X60234Y392300D01*
G37*
G36*
X6800Y395266D02*X9766Y392300D01*
X9200Y391734D01*
X6234Y394700D01*
X6800Y395266D01*
G37*
G36*
X6234Y392300D02*X9200Y395266D01*
X9766Y394700D01*
X6800Y391734D01*
X6234Y392300D01*
G37*
G36*
X60800Y318266D02*X63766Y315300D01*
X63200Y314734D01*
X60234Y317700D01*
X60800Y318266D01*
G37*
G36*
X60234Y315300D02*X63200Y318266D01*
X63766Y317700D01*
X60800Y314734D01*
X60234Y315300D01*
G37*
G36*
X6800Y331766D02*X9766Y328800D01*
X9200Y328234D01*
X6234Y331200D01*
X6800Y331766D01*
G37*
G36*
X6234Y328800D02*X9200Y331766D01*
X9766Y331200D01*
X6800Y328234D01*
X6234Y328800D01*
G37*
G36*
X6800Y318266D02*X9766Y315300D01*
X9200Y314734D01*
X6234Y317700D01*
X6800Y318266D01*
G37*
G36*
X6234Y315300D02*X9200Y318266D01*
X9766Y317700D01*
X6800Y314734D01*
X6234Y315300D01*
G37*
G36*
X60800Y331766D02*X63766Y328800D01*
X63200Y328234D01*
X60234Y331200D01*
X60800Y331766D01*
G37*
G36*
X60234Y328800D02*X63200Y331766D01*
X63766Y331200D01*
X60800Y328234D01*
X60234Y328800D01*
G37*
G36*
X60800Y345266D02*X63766Y342300D01*
X63200Y341734D01*
X60234Y344700D01*
X60800Y345266D01*
G37*
G36*
X60234Y342300D02*X63200Y345266D01*
X63766Y344700D01*
X60800Y341734D01*
X60234Y342300D01*
G37*
G36*
X6800Y345266D02*X9766Y342300D01*
X9200Y341734D01*
X6234Y344700D01*
X6800Y345266D01*
G37*
G36*
X6234Y342300D02*X9200Y345266D01*
X9766Y344700D01*
X6800Y341734D01*
X6234Y342300D01*
G37*
G36*
X60800Y268266D02*X63766Y265300D01*
X63200Y264734D01*
X60234Y267700D01*
X60800Y268266D01*
G37*
G36*
X60234Y265300D02*X63200Y268266D01*
X63766Y267700D01*
X60800Y264734D01*
X60234Y265300D01*
G37*
G36*
X6800Y281766D02*X9766Y278800D01*
X9200Y278234D01*
X6234Y281200D01*
X6800Y281766D01*
G37*
G36*
X6234Y278800D02*X9200Y281766D01*
X9766Y281200D01*
X6800Y278234D01*
X6234Y278800D01*
G37*
G36*
X6800Y268266D02*X9766Y265300D01*
X9200Y264734D01*
X6234Y267700D01*
X6800Y268266D01*
G37*
G36*
X6234Y265300D02*X9200Y268266D01*
X9766Y267700D01*
X6800Y264734D01*
X6234Y265300D01*
G37*
G36*
X60800Y281766D02*X63766Y278800D01*
X63200Y278234D01*
X60234Y281200D01*
X60800Y281766D01*
G37*
G36*
X60234Y278800D02*X63200Y281766D01*
X63766Y281200D01*
X60800Y278234D01*
X60234Y278800D01*
G37*
G36*
X60800Y295266D02*X63766Y292300D01*
X63200Y291734D01*
X60234Y294700D01*
X60800Y295266D01*
G37*
G36*
X60234Y292300D02*X63200Y295266D01*
X63766Y294700D01*
X60800Y291734D01*
X60234Y292300D01*
G37*
G36*
X6800Y295266D02*X9766Y292300D01*
X9200Y291734D01*
X6234Y294700D01*
X6800Y295266D01*
G37*
G36*
X6234Y292300D02*X9200Y295266D01*
X9766Y294700D01*
X6800Y291734D01*
X6234Y292300D01*
G37*
G36*
X60800Y218266D02*X63766Y215300D01*
X63200Y214734D01*
X60234Y217700D01*
X60800Y218266D01*
G37*
G36*
X60234Y215300D02*X63200Y218266D01*
X63766Y217700D01*
X60800Y214734D01*
X60234Y215300D01*
G37*
G36*
X6800Y231766D02*X9766Y228800D01*
X9200Y228234D01*
X6234Y231200D01*
X6800Y231766D01*
G37*
G36*
X6234Y228800D02*X9200Y231766D01*
X9766Y231200D01*
X6800Y228234D01*
X6234Y228800D01*
G37*
G36*
X6800Y218266D02*X9766Y215300D01*
X9200Y214734D01*
X6234Y217700D01*
X6800Y218266D01*
G37*
G36*
X6234Y215300D02*X9200Y218266D01*
X9766Y217700D01*
X6800Y214734D01*
X6234Y215300D01*
G37*
G36*
X60800Y231766D02*X63766Y228800D01*
X63200Y228234D01*
X60234Y231200D01*
X60800Y231766D01*
G37*
G36*
X60234Y228800D02*X63200Y231766D01*
X63766Y231200D01*
X60800Y228234D01*
X60234Y228800D01*
G37*
G36*
X60800Y245266D02*X63766Y242300D01*
X63200Y241734D01*
X60234Y244700D01*
X60800Y245266D01*
G37*
G36*
X60234Y242300D02*X63200Y245266D01*
X63766Y244700D01*
X60800Y241734D01*
X60234Y242300D01*
G37*
G36*
X6800Y245266D02*X9766Y242300D01*
X9200Y241734D01*
X6234Y244700D01*
X6800Y245266D01*
G37*
G36*
X6234Y242300D02*X9200Y245266D01*
X9766Y244700D01*
X6800Y241734D01*
X6234Y242300D01*
G37*
G36*
X60800Y168266D02*X63766Y165300D01*
X63200Y164734D01*
X60234Y167700D01*
X60800Y168266D01*
G37*
G36*
X60234Y165300D02*X63200Y168266D01*
X63766Y167700D01*
X60800Y164734D01*
X60234Y165300D01*
G37*
G36*
X6800Y181766D02*X9766Y178800D01*
X9200Y178234D01*
X6234Y181200D01*
X6800Y181766D01*
G37*
G36*
X6234Y178800D02*X9200Y181766D01*
X9766Y181200D01*
X6800Y178234D01*
X6234Y178800D01*
G37*
G36*
X6800Y168266D02*X9766Y165300D01*
X9200Y164734D01*
X6234Y167700D01*
X6800Y168266D01*
G37*
G36*
X6234Y165300D02*X9200Y168266D01*
X9766Y167700D01*
X6800Y164734D01*
X6234Y165300D01*
G37*
G36*
X60800Y181766D02*X63766Y178800D01*
X63200Y178234D01*
X60234Y181200D01*
X60800Y181766D01*
G37*
G36*
X60234Y178800D02*X63200Y181766D01*
X63766Y181200D01*
X60800Y178234D01*
X60234Y178800D01*
G37*
G36*
X60800Y195266D02*X63766Y192300D01*
X63200Y191734D01*
X60234Y194700D01*
X60800Y195266D01*
G37*
G36*
X60234Y192300D02*X63200Y195266D01*
X63766Y194700D01*
X60800Y191734D01*
X60234Y192300D01*
G37*
G36*
X6800Y195266D02*X9766Y192300D01*
X9200Y191734D01*
X6234Y194700D01*
X6800Y195266D01*
G37*
G36*
X6234Y192300D02*X9200Y195266D01*
X9766Y194700D01*
X6800Y191734D01*
X6234Y192300D01*
G37*
G36*
X60800Y118266D02*X63766Y115300D01*
X63200Y114734D01*
X60234Y117700D01*
X60800Y118266D01*
G37*
G36*
X60234Y115300D02*X63200Y118266D01*
X63766Y117700D01*
X60800Y114734D01*
X60234Y115300D01*
G37*
G36*
X6800Y131766D02*X9766Y128800D01*
X9200Y128234D01*
X6234Y131200D01*
X6800Y131766D01*
G37*
G36*
X6234Y128800D02*X9200Y131766D01*
X9766Y131200D01*
X6800Y128234D01*
X6234Y128800D01*
G37*
G36*
X6800Y118266D02*X9766Y115300D01*
X9200Y114734D01*
X6234Y117700D01*
X6800Y118266D01*
G37*
G36*
X6234Y115300D02*X9200Y118266D01*
X9766Y117700D01*
X6800Y114734D01*
X6234Y115300D01*
G37*
G36*
X60800Y131766D02*X63766Y128800D01*
X63200Y128234D01*
X60234Y131200D01*
X60800Y131766D01*
G37*
G36*
X60234Y128800D02*X63200Y131766D01*
X63766Y131200D01*
X60800Y128234D01*
X60234Y128800D01*
G37*
G36*
X60800Y145266D02*X63766Y142300D01*
X63200Y141734D01*
X60234Y144700D01*
X60800Y145266D01*
G37*
G36*
X60234Y142300D02*X63200Y145266D01*
X63766Y144700D01*
X60800Y141734D01*
X60234Y142300D01*
G37*
G36*
X6800Y145266D02*X9766Y142300D01*
X9200Y141734D01*
X6234Y144700D01*
X6800Y145266D01*
G37*
G36*
X6234Y142300D02*X9200Y145266D01*
X9766Y144700D01*
X6800Y141734D01*
X6234Y142300D01*
G37*
G36*
X60800Y68266D02*X63766Y65300D01*
X63200Y64734D01*
X60234Y67700D01*
X60800Y68266D01*
G37*
G36*
X60234Y65300D02*X63200Y68266D01*
X63766Y67700D01*
X60800Y64734D01*
X60234Y65300D01*
G37*
G36*
X6800Y81766D02*X9766Y78800D01*
X9200Y78234D01*
X6234Y81200D01*
X6800Y81766D01*
G37*
G36*
X6234Y78800D02*X9200Y81766D01*
X9766Y81200D01*
X6800Y78234D01*
X6234Y78800D01*
G37*
G36*
X6800Y68266D02*X9766Y65300D01*
X9200Y64734D01*
X6234Y67700D01*
X6800Y68266D01*
G37*
G36*
X6234Y65300D02*X9200Y68266D01*
X9766Y67700D01*
X6800Y64734D01*
X6234Y65300D01*
G37*
G36*
X60800Y81766D02*X63766Y78800D01*
X63200Y78234D01*
X60234Y81200D01*
X60800Y81766D01*
G37*
G36*
X60234Y78800D02*X63200Y81766D01*
X63766Y81200D01*
X60800Y78234D01*
X60234Y78800D01*
G37*
G36*
X60800Y95266D02*X63766Y92300D01*
X63200Y91734D01*
X60234Y94700D01*
X60800Y95266D01*
G37*
G36*
X60234Y92300D02*X63200Y95266D01*
X63766Y94700D01*
X60800Y91734D01*
X60234Y92300D01*
G37*
G36*
X6800Y95266D02*X9766Y92300D01*
X9200Y91734D01*
X6234Y94700D01*
X6800Y95266D01*
G37*
G36*
X6234Y92300D02*X9200Y95266D01*
X9766Y94700D01*
X6800Y91734D01*
X6234Y92300D01*
G37*
G36*
X60800Y18266D02*X63766Y15300D01*
X63200Y14734D01*
X60234Y17700D01*
X60800Y18266D01*
G37*
G36*
X60234Y15300D02*X63200Y18266D01*
X63766Y17700D01*
X60800Y14734D01*
X60234Y15300D01*
G37*
G36*
X6800Y31766D02*X9766Y28800D01*
X9200Y28234D01*
X6234Y31200D01*
X6800Y31766D01*
G37*
G36*
X6234Y28800D02*X9200Y31766D01*
X9766Y31200D01*
X6800Y28234D01*
X6234Y28800D01*
G37*
G36*
X6800Y18266D02*X9766Y15300D01*
X9200Y14734D01*
X6234Y17700D01*
X6800Y18266D01*
G37*
G36*
X6234Y15300D02*X9200Y18266D01*
X9766Y17700D01*
X6800Y14734D01*
X6234Y15300D01*
G37*
G36*
X60800Y31766D02*X63766Y28800D01*
X63200Y28234D01*
X60234Y31200D01*
X60800Y31766D01*
G37*
G36*
X60234Y28800D02*X63200Y31766D01*
X63766Y31200D01*
X60800Y28234D01*
X60234Y28800D01*
G37*
G36*
X60800Y45266D02*X63766Y42300D01*
X63200Y41734D01*
X60234Y44700D01*
X60800Y45266D01*
G37*
G36*
X60234Y42300D02*X63200Y45266D01*
X63766Y44700D01*
X60800Y41734D01*
X60234Y42300D01*
G37*
G36*
X6800Y45266D02*X9766Y42300D01*
X9200Y41734D01*
X6234Y44700D01*
X6800Y45266D01*
G37*
G36*
X6234Y42300D02*X9200Y45266D01*
X9766Y44700D01*
X6800Y41734D01*
X6234Y42300D01*
G37*
G36*
X13800Y538016D02*X16766Y535050D01*
X16200Y534484D01*
X13234Y537450D01*
X13800Y538016D01*
G37*
G36*
X13234Y535050D02*X16200Y538016D01*
X16766Y537450D01*
X13800Y534484D01*
X13234Y535050D01*
G37*
G54D42*X135000Y538500D02*Y537750D01*
X136500Y536250D01*
X138000Y537750D01*
Y538500D02*Y537750D01*
X136500Y536250D02*Y532500D01*
X139800Y535500D02*X142050D01*
X139800Y532500D02*X142800D01*
X139800Y538500D02*Y532500D01*
Y538500D02*X142800D01*
X147600D02*X148350Y537750D01*
X145350Y538500D02*X147600D01*
X144600Y537750D02*X145350Y538500D01*
X144600Y537750D02*Y536250D01*
X145350Y535500D01*
X147600D01*
X148350Y534750D01*
Y533250D01*
X147600Y532500D02*X148350Y533250D01*
X145350Y532500D02*X147600D01*
X144600Y533250D02*X145350Y532500D01*
X100250Y538500D02*X101000Y537750D01*
X98750Y538500D02*X100250D01*
X98000Y537750D02*X98750Y538500D01*
X98000Y537750D02*Y533250D01*
X98750Y532500D01*
X100250Y535500D02*X101000Y534750D01*
X98000Y535500D02*X100250D01*
X98750Y532500D02*X100250D01*
X101000Y533250D01*
Y534750D02*Y533250D01*
X102800D02*X103550Y532500D01*
X102800Y537750D02*Y533250D01*
Y537750D02*X103550Y538500D01*
X105050D01*
X105800Y537750D01*
Y533250D01*
X105050Y532500D02*X105800Y533250D01*
X103550Y532500D02*X105050D01*
X102800Y534000D02*X105800Y537000D01*
X45000Y533250D02*X45750Y532500D01*
X45000Y537750D02*Y533250D01*
Y537750D02*X45750Y538500D01*
X47250D01*
X48000Y537750D01*
Y533250D01*
X47250Y532500D02*X48000Y533250D01*
X45750Y532500D02*X47250D01*
X45000Y534000D02*X48000Y537000D01*
X49800Y532500D02*X50550D01*
X52350Y533250D02*X53100Y532500D01*
X52350Y537750D02*Y533250D01*
Y537750D02*X53100Y538500D01*
X54600D01*
X55350Y537750D01*
Y533250D01*
X54600Y532500D02*X55350Y533250D01*
X53100Y532500D02*X54600D01*
X52350Y534000D02*X55350Y537000D01*
X57150Y538500D02*X60150D01*
X57150D02*Y535500D01*
X57900Y536250D01*
X59400D01*
X60150Y535500D01*
Y533250D01*
X59400Y532500D02*X60150Y533250D01*
X57900Y532500D02*X59400D01*
X57150Y533250D02*X57900Y532500D01*
X61950Y533250D02*X62700Y532500D01*
X61950Y537750D02*Y533250D01*
Y537750D02*X62700Y538500D01*
X64200D01*
X64950Y537750D01*
Y533250D01*
X64200Y532500D02*X64950Y533250D01*
X62700Y532500D02*X64200D01*
X61950Y534000D02*X64950Y537000D01*
X30000Y460600D02*Y457400D01*
X28400Y459000D02*X31600D01*
X40000Y460600D02*Y457400D01*
X38400Y459000D02*X41600D01*
X35000Y460600D02*Y457400D01*
X33400Y459000D02*X36600D01*
X30000Y452600D02*Y449400D01*
X28400Y451000D02*X31600D01*
X35000Y452600D02*Y449400D01*
X33400Y451000D02*X36600D01*
X40000Y452600D02*Y449400D01*
X38400Y451000D02*X41600D01*
X30000Y410600D02*Y407400D01*
X28400Y409000D02*X31600D01*
X40000Y410600D02*Y407400D01*
X38400Y409000D02*X41600D01*
X35000Y410600D02*Y407400D01*
X33400Y409000D02*X36600D01*
X30000Y402600D02*Y399400D01*
X28400Y401000D02*X31600D01*
X35000Y402600D02*Y399400D01*
X33400Y401000D02*X36600D01*
X40000Y402600D02*Y399400D01*
X38400Y401000D02*X41600D01*
X30000Y360600D02*Y357400D01*
X28400Y359000D02*X31600D01*
X40000Y360600D02*Y357400D01*
X38400Y359000D02*X41600D01*
X35000Y360600D02*Y357400D01*
X33400Y359000D02*X36600D01*
X30000Y352600D02*Y349400D01*
X28400Y351000D02*X31600D01*
X35000Y352600D02*Y349400D01*
X33400Y351000D02*X36600D01*
X40000Y352600D02*Y349400D01*
X38400Y351000D02*X41600D01*
X30000Y310600D02*Y307400D01*
X28400Y309000D02*X31600D01*
X40000Y310600D02*Y307400D01*
X38400Y309000D02*X41600D01*
X35000Y310600D02*Y307400D01*
X33400Y309000D02*X36600D01*
X30000Y302600D02*Y299400D01*
X28400Y301000D02*X31600D01*
X35000Y302600D02*Y299400D01*
X33400Y301000D02*X36600D01*
X40000Y302600D02*Y299400D01*
X38400Y301000D02*X41600D01*
X30000Y260600D02*Y257400D01*
X28400Y259000D02*X31600D01*
X40000Y260600D02*Y257400D01*
X38400Y259000D02*X41600D01*
X35000Y260600D02*Y257400D01*
X33400Y259000D02*X36600D01*
X30000Y252600D02*Y249400D01*
X28400Y251000D02*X31600D01*
X35000Y252600D02*Y249400D01*
X33400Y251000D02*X36600D01*
X40000Y252600D02*Y249400D01*
X38400Y251000D02*X41600D01*
X30000Y210600D02*Y207400D01*
X28400Y209000D02*X31600D01*
X40000Y210600D02*Y207400D01*
X38400Y209000D02*X41600D01*
X35000Y210600D02*Y207400D01*
X33400Y209000D02*X36600D01*
X30000Y202600D02*Y199400D01*
X28400Y201000D02*X31600D01*
X35000Y202600D02*Y199400D01*
X33400Y201000D02*X36600D01*
X40000Y202600D02*Y199400D01*
X38400Y201000D02*X41600D01*
X30000Y160600D02*Y157400D01*
X28400Y159000D02*X31600D01*
X40000Y160600D02*Y157400D01*
X38400Y159000D02*X41600D01*
X35000Y160600D02*Y157400D01*
X33400Y159000D02*X36600D01*
X30000Y152600D02*Y149400D01*
X28400Y151000D02*X31600D01*
X35000Y152600D02*Y149400D01*
X33400Y151000D02*X36600D01*
X40000Y152600D02*Y149400D01*
X38400Y151000D02*X41600D01*
X30000Y110600D02*Y107400D01*
X28400Y109000D02*X31600D01*
X40000Y110600D02*Y107400D01*
X38400Y109000D02*X41600D01*
X35000Y110600D02*Y107400D01*
X33400Y109000D02*X36600D01*
X30000Y102600D02*Y99400D01*
X28400Y101000D02*X31600D01*
X35000Y102600D02*Y99400D01*
X33400Y101000D02*X36600D01*
X40000Y102600D02*Y99400D01*
X38400Y101000D02*X41600D01*
X30000Y60600D02*Y57400D01*
X28400Y59000D02*X31600D01*
X40000Y60600D02*Y57400D01*
X38400Y59000D02*X41600D01*
X35000Y60600D02*Y57400D01*
X33400Y59000D02*X36600D01*
X30000Y52600D02*Y49400D01*
X28400Y51000D02*X31600D01*
X35000Y52600D02*Y49400D01*
X33400Y51000D02*X36600D01*
X40000Y52600D02*Y49400D01*
X38400Y51000D02*X41600D01*
X15000Y552850D02*Y549650D01*
X13400Y551250D02*X16600D01*
X140000Y553500D02*Y547500D01*
Y553500D02*Y552750D01*
X143750Y549000D01*
Y553500D02*Y547500D01*
X145550Y552750D02*Y548250D01*
Y552750D02*X146300Y553500D01*
X147800D01*
X148550Y552750D01*
Y548250D01*
X147800Y547500D02*X148550Y548250D01*
X146300Y547500D02*X147800D01*
X145550Y548250D02*X146300Y547500D01*
X98000Y553500D02*X101000D01*
X98000D02*Y550500D01*
X98750Y551250D01*
X100250D01*
X101000Y550500D01*
Y548250D01*
X100250Y547500D02*X101000Y548250D01*
X98750Y547500D02*X100250D01*
X98000Y548250D02*X98750Y547500D01*
X102800Y550500D02*X105800Y553500D01*
X102800Y550500D02*X106550D01*
X105800Y553500D02*Y547500D01*
X45000Y548250D02*X45750Y547500D01*
X45000Y552750D02*Y548250D01*
Y552750D02*X45750Y553500D01*
X47250D01*
X48000Y552750D01*
Y548250D01*
X47250Y547500D02*X48000Y548250D01*
X45750Y547500D02*X47250D01*
X45000Y549000D02*X48000Y552000D01*
X49800Y547500D02*X50550D01*
X52350Y548250D02*X53100Y547500D01*
X52350Y552750D02*Y548250D01*
Y552750D02*X53100Y553500D01*
X54600D01*
X55350Y552750D01*
Y548250D01*
X54600Y547500D02*X55350Y548250D01*
X53100Y547500D02*X54600D01*
X52350Y549000D02*X55350Y552000D01*
X57150Y552750D02*X57900Y553500D01*
X59400D01*
X60150Y552750D01*
Y548250D01*
X59400Y547500D02*X60150Y548250D01*
X57900Y547500D02*X59400D01*
X57150Y548250D02*X57900Y547500D01*
Y550500D02*X60150D01*
X62700Y547500D02*X64200D01*
X63450Y553500D02*Y547500D01*
X61950Y552000D02*X63450Y553500D01*
X26500Y495500D02*Y493900D01*
Y495500D02*X27887Y496300D01*
X26500Y495500D02*X25113Y496300D01*
X26500Y492500D02*Y490900D01*
Y492500D02*X27887Y493300D01*
X26500Y492500D02*X25113Y493300D01*
X41000Y482800D02*Y481200D01*
Y482800D02*X42387Y483600D01*
X41000Y482800D02*X39613Y483600D01*
X42500Y496000D02*Y494400D01*
Y496000D02*X43887Y496800D01*
X42500Y496000D02*X41113Y496800D01*
X45500Y496000D02*Y494400D01*
Y496000D02*X46887Y496800D01*
X45500Y496000D02*X44113Y496800D01*
X26500Y445500D02*Y443900D01*
Y445500D02*X27887Y446300D01*
X26500Y445500D02*X25113Y446300D01*
X26500Y442500D02*Y440900D01*
Y442500D02*X27887Y443300D01*
X26500Y442500D02*X25113Y443300D01*
X41000Y432800D02*Y431200D01*
Y432800D02*X42387Y433600D01*
X41000Y432800D02*X39613Y433600D01*
X42500Y446000D02*Y444400D01*
Y446000D02*X43887Y446800D01*
X42500Y446000D02*X41113Y446800D01*
X45500Y446000D02*Y444400D01*
Y446000D02*X46887Y446800D01*
X45500Y446000D02*X44113Y446800D01*
X26500Y395500D02*Y393900D01*
Y395500D02*X27887Y396300D01*
X26500Y395500D02*X25113Y396300D01*
X26500Y392500D02*Y390900D01*
Y392500D02*X27887Y393300D01*
X26500Y392500D02*X25113Y393300D01*
X41000Y382800D02*Y381200D01*
Y382800D02*X42387Y383600D01*
X41000Y382800D02*X39613Y383600D01*
X42500Y396000D02*Y394400D01*
Y396000D02*X43887Y396800D01*
X42500Y396000D02*X41113Y396800D01*
X45500Y396000D02*Y394400D01*
Y396000D02*X46887Y396800D01*
X45500Y396000D02*X44113Y396800D01*
X26500Y345500D02*Y343900D01*
Y345500D02*X27887Y346300D01*
X26500Y345500D02*X25113Y346300D01*
X26500Y342500D02*Y340900D01*
Y342500D02*X27887Y343300D01*
X26500Y342500D02*X25113Y343300D01*
X41000Y332800D02*Y331200D01*
Y332800D02*X42387Y333600D01*
X41000Y332800D02*X39613Y333600D01*
X42500Y346000D02*Y344400D01*
Y346000D02*X43887Y346800D01*
X42500Y346000D02*X41113Y346800D01*
X45500Y346000D02*Y344400D01*
Y346000D02*X46887Y346800D01*
X45500Y346000D02*X44113Y346800D01*
X26500Y295500D02*Y293900D01*
Y295500D02*X27887Y296300D01*
X26500Y295500D02*X25113Y296300D01*
X26500Y292500D02*Y290900D01*
Y292500D02*X27887Y293300D01*
X26500Y292500D02*X25113Y293300D01*
X41000Y282800D02*Y281200D01*
Y282800D02*X42387Y283600D01*
X41000Y282800D02*X39613Y283600D01*
X42500Y296000D02*Y294400D01*
Y296000D02*X43887Y296800D01*
X42500Y296000D02*X41113Y296800D01*
X45500Y296000D02*Y294400D01*
Y296000D02*X46887Y296800D01*
X45500Y296000D02*X44113Y296800D01*
X26500Y245500D02*Y243900D01*
Y245500D02*X27887Y246300D01*
X26500Y245500D02*X25113Y246300D01*
X26500Y242500D02*Y240900D01*
Y242500D02*X27887Y243300D01*
X26500Y242500D02*X25113Y243300D01*
X41000Y232800D02*Y231200D01*
Y232800D02*X42387Y233600D01*
X41000Y232800D02*X39613Y233600D01*
X42500Y246000D02*Y244400D01*
Y246000D02*X43887Y246800D01*
X42500Y246000D02*X41113Y246800D01*
X45500Y246000D02*Y244400D01*
Y246000D02*X46887Y246800D01*
X45500Y246000D02*X44113Y246800D01*
X26500Y195500D02*Y193900D01*
Y195500D02*X27887Y196300D01*
X26500Y195500D02*X25113Y196300D01*
X26500Y192500D02*Y190900D01*
Y192500D02*X27887Y193300D01*
X26500Y192500D02*X25113Y193300D01*
X41000Y182800D02*Y181200D01*
Y182800D02*X42387Y183600D01*
X41000Y182800D02*X39613Y183600D01*
X42500Y196000D02*Y194400D01*
Y196000D02*X43887Y196800D01*
X42500Y196000D02*X41113Y196800D01*
X45500Y196000D02*Y194400D01*
Y196000D02*X46887Y196800D01*
X45500Y196000D02*X44113Y196800D01*
X26500Y145500D02*Y143900D01*
Y145500D02*X27887Y146300D01*
X26500Y145500D02*X25113Y146300D01*
X26500Y142500D02*Y140900D01*
Y142500D02*X27887Y143300D01*
X26500Y142500D02*X25113Y143300D01*
X41000Y132800D02*Y131200D01*
Y132800D02*X42387Y133600D01*
X41000Y132800D02*X39613Y133600D01*
X42500Y146000D02*Y144400D01*
Y146000D02*X43887Y146800D01*
X42500Y146000D02*X41113Y146800D01*
X45500Y146000D02*Y144400D01*
Y146000D02*X46887Y146800D01*
X45500Y146000D02*X44113Y146800D01*
X26500Y95500D02*Y93900D01*
Y95500D02*X27887Y96300D01*
X26500Y95500D02*X25113Y96300D01*
X26500Y92500D02*Y90900D01*
Y92500D02*X27887Y93300D01*
X26500Y92500D02*X25113Y93300D01*
X41000Y82800D02*Y81200D01*
Y82800D02*X42387Y83600D01*
X41000Y82800D02*X39613Y83600D01*
X42500Y96000D02*Y94400D01*
Y96000D02*X43887Y96800D01*
X42500Y96000D02*X41113Y96800D01*
X45500Y96000D02*Y94400D01*
Y96000D02*X46887Y96800D01*
X45500Y96000D02*X44113Y96800D01*
X26500Y45500D02*Y43900D01*
Y45500D02*X27887Y46300D01*
X26500Y45500D02*X25113Y46300D01*
X26500Y42500D02*Y40900D01*
Y42500D02*X27887Y43300D01*
X26500Y42500D02*X25113Y43300D01*
X41000Y32800D02*Y31200D01*
Y32800D02*X42387Y33600D01*
X41000Y32800D02*X39613Y33600D01*
X42500Y46000D02*Y44400D01*
Y46000D02*X43887Y46800D01*
X42500Y46000D02*X41113Y46800D01*
X45500Y46000D02*Y44400D01*
Y46000D02*X46887Y46800D01*
X45500Y46000D02*X44113Y46800D01*
X15000Y566250D02*Y564650D01*
Y566250D02*X16387Y567050D01*
X15000Y566250D02*X13613Y567050D01*
X135000Y568500D02*Y567750D01*
X136500Y566250D01*
X138000Y567750D01*
Y568500D02*Y567750D01*
X136500Y566250D02*Y562500D01*
X139800Y565500D02*X142050D01*
X139800Y562500D02*X142800D01*
X139800Y568500D02*Y562500D01*
Y568500D02*X142800D01*
X147600D02*X148350Y567750D01*
X145350Y568500D02*X147600D01*
X144600Y567750D02*X145350Y568500D01*
X144600Y567750D02*Y566250D01*
X145350Y565500D01*
X147600D01*
X148350Y564750D01*
Y563250D01*
X147600Y562500D02*X148350Y563250D01*
X145350Y562500D02*X147600D01*
X144600Y563250D02*X145350Y562500D01*
X98000Y568500D02*X101000D01*
X98000D02*Y565500D01*
X98750Y566250D01*
X100250D01*
X101000Y565500D01*
Y563250D01*
X100250Y562500D02*X101000Y563250D01*
X98750Y562500D02*X100250D01*
X98000Y563250D02*X98750Y562500D01*
X102800Y563250D02*X103550Y562500D01*
X102800Y567750D02*Y563250D01*
Y567750D02*X103550Y568500D01*
X105050D01*
X105800Y567750D01*
Y563250D01*
X105050Y562500D02*X105800Y563250D01*
X103550Y562500D02*X105050D01*
X102800Y564000D02*X105800Y567000D01*
X45000Y563250D02*X45750Y562500D01*
X45000Y567750D02*Y563250D01*
Y567750D02*X45750Y568500D01*
X47250D01*
X48000Y567750D01*
Y563250D01*
X47250Y562500D02*X48000Y563250D01*
X45750Y562500D02*X47250D01*
X45000Y564000D02*X48000Y567000D01*
X49800Y562500D02*X50550D01*
X52350Y563250D02*X53100Y562500D01*
X52350Y567750D02*Y563250D01*
Y567750D02*X53100Y568500D01*
X54600D01*
X55350Y567750D01*
Y563250D01*
X54600Y562500D02*X55350Y563250D01*
X53100Y562500D02*X54600D01*
X52350Y564000D02*X55350Y567000D01*
X57900Y562500D02*X59400D01*
X58650Y568500D02*Y562500D01*
X57150Y567000D02*X58650Y568500D01*
X61200Y567750D02*X61950Y568500D01*
X64200D01*
X64950Y567750D01*
Y566250D01*
X61200Y562500D02*X64950Y566250D01*
X61200Y562500D02*X64950D01*
X3000Y583500D02*X3750Y582750D01*
X750Y583500D02*X3000D01*
X0Y582750D02*X750Y583500D01*
X0Y582750D02*Y581250D01*
X750Y580500D01*
X3000D01*
X3750Y579750D01*
Y578250D01*
X3000Y577500D02*X3750Y578250D01*
X750Y577500D02*X3000D01*
X0Y578250D02*X750Y577500D01*
X5550Y580500D02*Y578250D01*
X6300Y577500D01*
X8550Y580500D02*Y576000D01*
X7800Y575250D02*X8550Y576000D01*
X6300Y575250D02*X7800D01*
X5550Y576000D02*X6300Y575250D01*
Y577500D02*X7800D01*
X8550Y578250D01*
X11100Y579750D02*Y577500D01*
Y579750D02*X11850Y580500D01*
X12600D01*
X13350Y579750D01*
Y577500D01*
Y579750D02*X14100Y580500D01*
X14850D01*
X15600Y579750D01*
Y577500D01*
X10350Y580500D02*X11100Y579750D01*
X17400Y583500D02*Y577500D01*
Y578250D02*X18150Y577500D01*
X19650D01*
X20400Y578250D01*
Y579750D02*Y578250D01*
X19650Y580500D02*X20400Y579750D01*
X18150Y580500D02*X19650D01*
X17400Y579750D02*X18150Y580500D01*
X22200Y579750D02*Y578250D01*
Y579750D02*X22950Y580500D01*
X24450D01*
X25200Y579750D01*
Y578250D01*
X24450Y577500D02*X25200Y578250D01*
X22950Y577500D02*X24450D01*
X22200Y578250D02*X22950Y577500D01*
X27000Y583500D02*Y578250D01*
X27750Y577500D01*
X0Y574250D02*X29250D01*
X41750Y583500D02*Y577500D01*
X44000Y583500D02*X44750Y582750D01*
Y578250D01*
X44000Y577500D02*X44750Y578250D01*
X41000Y577500D02*X44000D01*
X41000Y583500D02*X44000D01*
X46550Y582000D02*Y581250D01*
Y579750D02*Y577500D01*
X50300Y580500D02*X51050Y579750D01*
X48800Y580500D02*X50300D01*
X48050Y579750D02*X48800Y580500D01*
X48050Y579750D02*Y578250D01*
X48800Y577500D01*
X51050Y580500D02*Y578250D01*
X51800Y577500D01*
X48800D02*X50300D01*
X51050Y578250D01*
X54350Y579750D02*Y577500D01*
Y579750D02*X55100Y580500D01*
X55850D01*
X56600Y579750D01*
Y577500D01*
Y579750D02*X57350Y580500D01*
X58100D01*
X58850Y579750D01*
Y577500D01*
X53600Y580500D02*X54350Y579750D01*
X60650Y577500D02*X61400D01*
X65900Y578250D02*X66650Y577500D01*
X65900Y582750D02*X66650Y583500D01*
X65900Y582750D02*Y578250D01*
X68450Y583500D02*X69950D01*
X69200D02*Y577500D01*
X68450D02*X69950D01*
X72500Y579750D02*Y577500D01*
Y579750D02*X73250Y580500D01*
X74000D01*
X74750Y579750D01*
Y577500D01*
X71750Y580500D02*X72500Y579750D01*
X77300Y580500D02*X79550D01*
X76550Y579750D02*X77300Y580500D01*
X76550Y579750D02*Y578250D01*
X77300Y577500D01*
X79550D01*
X81350Y583500D02*Y577500D01*
Y579750D02*X82100Y580500D01*
X83600D01*
X84350Y579750D01*
Y577500D01*
X86150Y583500D02*X86900Y582750D01*
Y578250D01*
X86150Y577500D02*X86900Y578250D01*
X41000Y574250D02*X88700D01*
X95750Y577500D02*X98000D01*
X95000Y578250D02*X95750Y577500D01*
X95000Y582750D02*Y578250D01*
Y582750D02*X95750Y583500D01*
X98000D01*
X99800Y579750D02*Y578250D01*
Y579750D02*X100550Y580500D01*
X102050D01*
X102800Y579750D01*
Y578250D01*
X102050Y577500D02*X102800Y578250D01*
X100550Y577500D02*X102050D01*
X99800Y578250D02*X100550Y577500D01*
X104600Y580500D02*Y578250D01*
X105350Y577500D01*
X106850D01*
X107600Y578250D01*
Y580500D02*Y578250D01*
X110150Y579750D02*Y577500D01*
Y579750D02*X110900Y580500D01*
X111650D01*
X112400Y579750D01*
Y577500D01*
X109400Y580500D02*X110150Y579750D01*
X114950Y583500D02*Y578250D01*
X115700Y577500D01*
X114200Y581250D02*X115700D01*
X95000Y574250D02*X117200D01*
X130750Y583500D02*Y577500D01*
X130000Y583500D02*X133000D01*
X133750Y582750D01*
Y581250D01*
X133000Y580500D02*X133750Y581250D01*
X130750Y580500D02*X133000D01*
X135550Y583500D02*Y578250D01*
X136300Y577500D01*
X140050Y580500D02*X140800Y579750D01*
X138550Y580500D02*X140050D01*
X137800Y579750D02*X138550Y580500D01*
X137800Y579750D02*Y578250D01*
X138550Y577500D01*
X140800Y580500D02*Y578250D01*
X141550Y577500D01*
X138550D02*X140050D01*
X140800Y578250D01*
X144100Y583500D02*Y578250D01*
X144850Y577500D01*
X143350Y581250D02*X144850D01*
X147100Y577500D02*X149350D01*
X146350Y578250D02*X147100Y577500D01*
X146350Y579750D02*Y578250D01*
Y579750D02*X147100Y580500D01*
X148600D01*
X149350Y579750D01*
X146350Y579000D02*X149350D01*
Y579750D02*Y579000D01*
X154150Y583500D02*Y577500D01*
X153400D02*X154150Y578250D01*
X151900Y577500D02*X153400D01*
X151150Y578250D02*X151900Y577500D01*
X151150Y579750D02*Y578250D01*
Y579750D02*X151900Y580500D01*
X153400D01*
X154150Y579750D01*
X157450Y580500D02*Y579750D01*
Y578250D02*Y577500D01*
X155950Y582750D02*Y582000D01*
Y582750D02*X156700Y583500D01*
X158200D01*
X158950Y582750D01*
Y582000D01*
X157450Y580500D02*X158950Y582000D01*
X130000Y574250D02*X160750D01*
X0Y598500D02*X3000D01*
X1500D02*Y592500D01*
X4800Y598500D02*Y592500D01*
Y594750D02*X5550Y595500D01*
X7050D01*
X7800Y594750D01*
Y592500D01*
X10350D02*X12600D01*
X9600Y593250D02*X10350Y592500D01*
X9600Y594750D02*Y593250D01*
Y594750D02*X10350Y595500D01*
X11850D01*
X12600Y594750D01*
X9600Y594000D02*X12600D01*
Y594750D02*Y594000D01*
X15150Y594750D02*Y592500D01*
Y594750D02*X15900Y595500D01*
X17400D01*
X14400D02*X15150Y594750D01*
X19950Y592500D02*X22200D01*
X19200Y593250D02*X19950Y592500D01*
X19200Y594750D02*Y593250D01*
Y594750D02*X19950Y595500D01*
X21450D01*
X22200Y594750D01*
X19200Y594000D02*X22200D01*
Y594750D02*Y594000D01*
X28950Y595500D02*X29700Y594750D01*
X27450Y595500D02*X28950D01*
X26700Y594750D02*X27450Y595500D01*
X26700Y594750D02*Y593250D01*
X27450Y592500D01*
X29700Y595500D02*Y593250D01*
X30450Y592500D01*
X27450D02*X28950D01*
X29700Y593250D01*
X33000Y594750D02*Y592500D01*
Y594750D02*X33750Y595500D01*
X35250D01*
X32250D02*X33000Y594750D01*
X37800Y592500D02*X40050D01*
X37050Y593250D02*X37800Y592500D01*
X37050Y594750D02*Y593250D01*
Y594750D02*X37800Y595500D01*
X39300D01*
X40050Y594750D01*
X37050Y594000D02*X40050D01*
Y594750D02*Y594000D01*
X44550Y597750D02*X45300Y598500D01*
X46800D01*
X47550Y597750D01*
Y593250D01*
X46800Y592500D02*X47550Y593250D01*
X45300Y592500D02*X46800D01*
X44550Y593250D02*X45300Y592500D01*
Y595500D02*X47550D01*
X55050Y598500D02*Y592500D01*
X54300D02*X55050Y593250D01*
X52800Y592500D02*X54300D01*
X52050Y593250D02*X52800Y592500D01*
X52050Y594750D02*Y593250D01*
Y594750D02*X52800Y595500D01*
X54300D01*
X55050Y594750D01*
X56850Y597000D02*Y596250D01*
Y594750D02*Y592500D01*
X59100Y597750D02*Y592500D01*
Y597750D02*X59850Y598500D01*
X60600D01*
X58350Y595500D02*X59850D01*
X62850Y597750D02*Y592500D01*
Y597750D02*X63600Y598500D01*
X64350D01*
X62100Y595500D02*X63600D01*
X66600Y592500D02*X68850D01*
X65850Y593250D02*X66600Y592500D01*
X65850Y594750D02*Y593250D01*
Y594750D02*X66600Y595500D01*
X68100D01*
X68850Y594750D01*
X65850Y594000D02*X68850D01*
Y594750D02*Y594000D01*
X71400Y594750D02*Y592500D01*
Y594750D02*X72150Y595500D01*
X73650D01*
X70650D02*X71400Y594750D01*
X76200Y592500D02*X78450D01*
X75450Y593250D02*X76200Y592500D01*
X75450Y594750D02*Y593250D01*
Y594750D02*X76200Y595500D01*
X77700D01*
X78450Y594750D01*
X75450Y594000D02*X78450D01*
Y594750D02*Y594000D01*
X81000Y594750D02*Y592500D01*
Y594750D02*X81750Y595500D01*
X82500D01*
X83250Y594750D01*
Y592500D01*
X80250Y595500D02*X81000Y594750D01*
X85800Y598500D02*Y593250D01*
X86550Y592500D01*
X85050Y596250D02*X86550D01*
X93750Y598500D02*Y592500D01*
X93000D02*X93750Y593250D01*
X91500Y592500D02*X93000D01*
X90750Y593250D02*X91500Y592500D01*
X90750Y594750D02*Y593250D01*
Y594750D02*X91500Y595500D01*
X93000D01*
X93750Y594750D01*
X96300D02*Y592500D01*
Y594750D02*X97050Y595500D01*
X98550D01*
X95550D02*X96300Y594750D01*
X100350Y597000D02*Y596250D01*
Y594750D02*Y592500D01*
X101850Y598500D02*Y593250D01*
X102600Y592500D01*
X104100Y598500D02*Y593250D01*
X104850Y592500D01*
X109800D02*X112050D01*
X112800Y593250D01*
X112050Y594000D02*X112800Y593250D01*
X109800Y594000D02*X112050D01*
X109050Y594750D02*X109800Y594000D01*
X109050Y594750D02*X109800Y595500D01*
X112050D01*
X112800Y594750D01*
X109050Y593250D02*X109800Y592500D01*
X114600Y597000D02*Y596250D01*
Y594750D02*Y592500D01*
X116100Y595500D02*X119100D01*
X116100Y592500D02*X119100Y595500D01*
X116100Y592500D02*X119100D01*
X121650D02*X123900D01*
X120900Y593250D02*X121650Y592500D01*
X120900Y594750D02*Y593250D01*
Y594750D02*X121650Y595500D01*
X123150D01*
X123900Y594750D01*
X120900Y594000D02*X123900D01*
Y594750D02*Y594000D01*
X126450Y592500D02*X128700D01*
X129450Y593250D01*
X128700Y594000D02*X129450Y593250D01*
X126450Y594000D02*X128700D01*
X125700Y594750D02*X126450Y594000D01*
X125700Y594750D02*X126450Y595500D01*
X128700D01*
X129450Y594750D01*
X125700Y593250D02*X126450Y592500D01*
X133950Y595500D02*Y593250D01*
X134700Y592500D01*
X136200D01*
X136950Y593250D01*
Y595500D02*Y593250D01*
X139500Y592500D02*X141750D01*
X142500Y593250D01*
X141750Y594000D02*X142500Y593250D01*
X139500Y594000D02*X141750D01*
X138750Y594750D02*X139500Y594000D01*
X138750Y594750D02*X139500Y595500D01*
X141750D01*
X142500Y594750D01*
X138750Y593250D02*X139500Y592500D01*
X145050D02*X147300D01*
X144300Y593250D02*X145050Y592500D01*
X144300Y594750D02*Y593250D01*
Y594750D02*X145050Y595500D01*
X146550D01*
X147300Y594750D01*
X144300Y594000D02*X147300D01*
Y594750D02*Y594000D01*
X152100Y598500D02*Y592500D01*
X151350D02*X152100Y593250D01*
X149850Y592500D02*X151350D01*
X149100Y593250D02*X149850Y592500D01*
X149100Y594750D02*Y593250D01*
Y594750D02*X149850Y595500D01*
X151350D01*
X152100Y594750D01*
X156600Y597000D02*Y596250D01*
Y594750D02*Y592500D01*
X158850Y594750D02*Y592500D01*
Y594750D02*X159600Y595500D01*
X160350D01*
X161100Y594750D01*
Y592500D01*
X158100Y595500D02*X158850Y594750D01*
X166350Y598500D02*Y593250D01*
X167100Y592500D01*
X165600Y596250D02*X167100D01*
X168600Y598500D02*Y592500D01*
Y594750D02*X169350Y595500D01*
X170850D01*
X171600Y594750D01*
Y592500D01*
X173400Y597000D02*Y596250D01*
Y594750D02*Y592500D01*
X175650D02*X177900D01*
X178650Y593250D01*
X177900Y594000D02*X178650Y593250D01*
X175650Y594000D02*X177900D01*
X174900Y594750D02*X175650Y594000D01*
X174900Y594750D02*X175650Y595500D01*
X177900D01*
X178650Y594750D01*
X174900Y593250D02*X175650Y592500D01*
X183150Y598500D02*Y593250D01*
X183900Y592500D01*
X187650Y595500D02*X188400Y594750D01*
X186150Y595500D02*X187650D01*
X185400Y594750D02*X186150Y595500D01*
X185400Y594750D02*Y593250D01*
X186150Y592500D01*
X188400Y595500D02*Y593250D01*
X189150Y592500D01*
X186150D02*X187650D01*
X188400Y593250D01*
X190950Y595500D02*Y593250D01*
X191700Y592500D01*
X193950Y595500D02*Y591000D01*
X193200Y590250D02*X193950Y591000D01*
X191700Y590250D02*X193200D01*
X190950Y591000D02*X191700Y590250D01*
Y592500D02*X193200D01*
X193950Y593250D01*
X195750Y594750D02*Y593250D01*
Y594750D02*X196500Y595500D01*
X198000D01*
X198750Y594750D01*
Y593250D01*
X198000Y592500D02*X198750Y593250D01*
X196500Y592500D02*X198000D01*
X195750Y593250D02*X196500Y592500D01*
X200550Y595500D02*Y593250D01*
X201300Y592500D01*
X202800D01*
X203550Y593250D01*
Y595500D02*Y593250D01*
X206100Y598500D02*Y593250D01*
X206850Y592500D01*
X205350Y596250D02*X206850D01*
X208350Y591000D02*X209850Y592500D01*
X215100D02*X216600D01*
X215850Y598500D02*Y592500D01*
X214350Y597000D02*X215850Y598500D01*
X220650D02*X221400Y597750D01*
X219150Y598500D02*X220650D01*
X218400Y597750D02*X219150Y598500D01*
X218400Y597750D02*Y593250D01*
X219150Y592500D01*
X220650Y595500D02*X221400Y594750D01*
X218400Y595500D02*X220650D01*
X219150Y592500D02*X220650D01*
X221400Y593250D01*
Y594750D02*Y593250D01*
X223200Y595500D02*X226200Y598500D01*
X223200Y595500D02*X226950D01*
X226200Y598500D02*Y592500D01*
X231450Y598500D02*Y592500D01*
Y594750D02*X232200Y595500D01*
X233700D01*
X234450Y594750D01*
Y592500D01*
X236250Y594750D02*Y593250D01*
Y594750D02*X237000Y595500D01*
X238500D01*
X239250Y594750D01*
Y593250D01*
X238500Y592500D02*X239250Y593250D01*
X237000Y592500D02*X238500D01*
X236250Y593250D02*X237000Y592500D01*
X241050Y598500D02*Y593250D01*
X241800Y592500D01*
X244050D02*X246300D01*
X243300Y593250D02*X244050Y592500D01*
X243300Y594750D02*Y593250D01*
Y594750D02*X244050Y595500D01*
X245550D01*
X246300Y594750D01*
X243300Y594000D02*X246300D01*
Y594750D02*Y594000D01*
X248850Y592500D02*X251100D01*
X251850Y593250D01*
X251100Y594000D02*X251850Y593250D01*
X248850Y594000D02*X251100D01*
X248100Y594750D02*X248850Y594000D01*
X248100Y594750D02*X248850Y595500D01*
X251100D01*
X251850Y594750D01*
X248100Y593250D02*X248850Y592500D01*
X257100Y598500D02*Y593250D01*
X257850Y592500D01*
X256350Y596250D02*X257850D01*
X259350Y594750D02*Y593250D01*
Y594750D02*X260100Y595500D01*
X261600D01*
X262350Y594750D01*
Y593250D01*
X261600Y592500D02*X262350Y593250D01*
X260100Y592500D02*X261600D01*
X259350Y593250D02*X260100Y592500D01*
X264900Y598500D02*Y593250D01*
X265650Y592500D01*
X264150Y596250D02*X265650D01*
X269400Y595500D02*X270150Y594750D01*
X267900Y595500D02*X269400D01*
X267150Y594750D02*X267900Y595500D01*
X267150Y594750D02*Y593250D01*
X267900Y592500D01*
X270150Y595500D02*Y593250D01*
X270900Y592500D01*
X267900D02*X269400D01*
X270150Y593250D01*
X272700Y598500D02*Y593250D01*
X273450Y592500D01*
G54D43*X25000Y460000D02*X8000D01*
X62000D02*X45000D01*
X8000Y500000D02*Y460000D01*
X62000D02*Y500000D01*
X25000Y410000D02*X8000D01*
X62000D02*X45000D01*
X25000Y450000D02*X8000D01*
X62000D02*X45000D01*
X8000D02*Y410000D01*
X62000D02*Y450000D01*
X25000Y360000D02*X8000D01*
X62000D02*X45000D01*
X25000Y400000D02*X8000D01*
X62000D02*X45000D01*
X8000D02*Y360000D01*
X62000D02*Y400000D01*
X25000Y310000D02*X8000D01*
X62000D02*X45000D01*
X25000Y350000D02*X8000D01*
X62000D02*X45000D01*
X8000D02*Y310000D01*
X62000D02*Y350000D01*
X25000Y260000D02*X8000D01*
X62000D02*X45000D01*
X25000Y300000D02*X8000D01*
X62000D02*X45000D01*
X8000D02*Y260000D01*
X62000D02*Y300000D01*
X25000Y210000D02*X8000D01*
X62000D02*X45000D01*
X25000Y250000D02*X8000D01*
X62000D02*X45000D01*
X8000D02*Y210000D01*
X62000D02*Y250000D01*
X25000Y160000D02*X8000D01*
X62000D02*X45000D01*
X25000Y200000D02*X8000D01*
X62000D02*X45000D01*
X8000D02*Y160000D01*
X62000D02*Y200000D01*
X25000Y110000D02*X8000D01*
X62000D02*X45000D01*
X25000Y150000D02*X8000D01*
X62000D02*X45000D01*
X8000D02*Y110000D01*
X62000D02*Y150000D01*
X25000Y60000D02*X8000D01*
X62000D02*X45000D01*
X25000Y100000D02*X8000D01*
X62000D02*X45000D01*
X8000D02*Y60000D01*
X62000D02*Y100000D01*
Y10000D02*X8000D01*
X25000Y50000D02*X8000D01*
X62000D02*X45000D01*
X8000D02*Y10000D01*
X62000D02*Y50000D01*
Y500000D02*X8000D01*
X40000Y455000D02*G75*G03X45000Y450000I5000J0D01*G01*
X40000Y455000D02*G75*G02X45000Y460000I5000J0D01*G01*
X30000Y455000D02*G75*G02X25000Y450000I-5000J0D01*G01*
X30000Y455000D02*G75*G03X25000Y460000I-5000J0D01*G01*
X40000Y405000D02*G75*G03X45000Y400000I5000J0D01*G01*
X40000Y405000D02*G75*G02X45000Y410000I5000J0D01*G01*
X30000Y405000D02*G75*G02X25000Y400000I-5000J0D01*G01*
X30000Y405000D02*G75*G03X25000Y410000I-5000J0D01*G01*
X40000Y355000D02*G75*G03X45000Y350000I5000J0D01*G01*
X40000Y355000D02*G75*G02X45000Y360000I5000J0D01*G01*
X30000Y355000D02*G75*G02X25000Y350000I-5000J0D01*G01*
X30000Y355000D02*G75*G03X25000Y360000I-5000J0D01*G01*
X40000Y305000D02*G75*G03X45000Y300000I5000J0D01*G01*
X40000Y305000D02*G75*G02X45000Y310000I5000J0D01*G01*
X30000Y305000D02*G75*G02X25000Y300000I-5000J0D01*G01*
X30000Y305000D02*G75*G03X25000Y310000I-5000J0D01*G01*
X40000Y255000D02*G75*G03X45000Y250000I5000J0D01*G01*
X40000Y255000D02*G75*G02X45000Y260000I5000J0D01*G01*
X30000Y255000D02*G75*G02X25000Y250000I-5000J0D01*G01*
X30000Y255000D02*G75*G03X25000Y260000I-5000J0D01*G01*
X40000Y205000D02*G75*G03X45000Y200000I5000J0D01*G01*
X40000Y205000D02*G75*G02X45000Y210000I5000J0D01*G01*
X30000Y205000D02*G75*G02X25000Y200000I-5000J0D01*G01*
X30000Y205000D02*G75*G03X25000Y210000I-5000J0D01*G01*
X40000Y155000D02*G75*G03X45000Y150000I5000J0D01*G01*
X40000Y155000D02*G75*G02X45000Y160000I5000J0D01*G01*
X30000Y155000D02*G75*G02X25000Y150000I-5000J0D01*G01*
X30000Y155000D02*G75*G03X25000Y160000I-5000J0D01*G01*
X40000Y105000D02*G75*G03X45000Y100000I5000J0D01*G01*
X40000Y105000D02*G75*G02X45000Y110000I5000J0D01*G01*
X30000Y105000D02*G75*G02X25000Y100000I-5000J0D01*G01*
X30000Y105000D02*G75*G03X25000Y110000I-5000J0D01*G01*
X40000Y55000D02*G75*G03X45000Y50000I5000J0D01*G01*
X40000Y55000D02*G75*G02X45000Y60000I5000J0D01*G01*
X30000Y55000D02*G75*G02X25000Y50000I-5000J0D01*G01*
X30000Y55000D02*G75*G03X25000Y60000I-5000J0D01*G01*
G54D42*X0Y-9500D02*X3000D01*
X3750Y-8750D01*
Y-7250D02*Y-8750D01*
X3000Y-6500D02*X3750Y-7250D01*
X750Y-6500D02*X3000D01*
X750Y-3500D02*Y-9500D01*
X0Y-3500D02*X3000D01*
X3750Y-4250D01*
Y-5750D01*
X3000Y-6500D02*X3750Y-5750D01*
X5550Y-7250D02*Y-8750D01*
Y-7250D02*X6300Y-6500D01*
X7800D01*
X8550Y-7250D01*
Y-8750D01*
X7800Y-9500D02*X8550Y-8750D01*
X6300Y-9500D02*X7800D01*
X5550Y-8750D02*X6300Y-9500D01*
X12600Y-6500D02*X13350Y-7250D01*
X11100Y-6500D02*X12600D01*
X10350Y-7250D02*X11100Y-6500D01*
X10350Y-7250D02*Y-8750D01*
X11100Y-9500D01*
X13350Y-6500D02*Y-8750D01*
X14100Y-9500D01*
X11100D02*X12600D01*
X13350Y-8750D01*
X16650Y-7250D02*Y-9500D01*
Y-7250D02*X17400Y-6500D01*
X18900D01*
X15900D02*X16650Y-7250D01*
X23700Y-3500D02*Y-9500D01*
X22950D02*X23700Y-8750D01*
X21450Y-9500D02*X22950D01*
X20700Y-8750D02*X21450Y-9500D01*
X20700Y-7250D02*Y-8750D01*
Y-7250D02*X21450Y-6500D01*
X22950D01*
X23700Y-7250D01*
X28200D02*Y-8750D01*
Y-7250D02*X28950Y-6500D01*
X30450D01*
X31200Y-7250D01*
Y-8750D01*
X30450Y-9500D02*X31200Y-8750D01*
X28950Y-9500D02*X30450D01*
X28200Y-8750D02*X28950Y-9500D01*
X33000Y-6500D02*Y-8750D01*
X33750Y-9500D01*
X35250D01*
X36000Y-8750D01*
Y-6500D02*Y-8750D01*
X38550Y-3500D02*Y-8750D01*
X39300Y-9500D01*
X37800Y-5750D02*X39300D01*
X40800Y-3500D02*Y-8750D01*
X41550Y-9500D01*
X43050Y-5000D02*Y-5750D01*
Y-7250D02*Y-9500D01*
X45300Y-7250D02*Y-9500D01*
Y-7250D02*X46050Y-6500D01*
X46800D01*
X47550Y-7250D01*
Y-9500D01*
X44550Y-6500D02*X45300Y-7250D01*
X50100Y-9500D02*X52350D01*
X49350Y-8750D02*X50100Y-9500D01*
X49350Y-7250D02*Y-8750D01*
Y-7250D02*X50100Y-6500D01*
X51600D01*
X52350Y-7250D01*
X49350Y-8000D02*X52350D01*
Y-7250D02*Y-8000D01*
X56850Y-5000D02*Y-5750D01*
Y-7250D02*Y-9500D01*
X59100D02*X61350D01*
X62100Y-8750D01*
X61350Y-8000D02*X62100Y-8750D01*
X59100Y-8000D02*X61350D01*
X58350Y-7250D02*X59100Y-8000D01*
X58350Y-7250D02*X59100Y-6500D01*
X61350D01*
X62100Y-7250D01*
X58350Y-8750D02*X59100Y-9500D01*
X67350Y-3500D02*Y-8750D01*
X68100Y-9500D01*
X66600Y-5750D02*X68100D01*
X69600Y-3500D02*Y-9500D01*
Y-7250D02*X70350Y-6500D01*
X71850D01*
X72600Y-7250D01*
Y-9500D01*
X75150D02*X77400D01*
X74400Y-8750D02*X75150Y-9500D01*
X74400Y-7250D02*Y-8750D01*
Y-7250D02*X75150Y-6500D01*
X76650D01*
X77400Y-7250D01*
X74400Y-8000D02*X77400D01*
Y-7250D02*Y-8000D01*
X82650Y-6500D02*X84900D01*
X81900Y-7250D02*X82650Y-6500D01*
X81900Y-7250D02*Y-8750D01*
X82650Y-9500D01*
X84900D01*
X87450D02*X89700D01*
X86700Y-8750D02*X87450Y-9500D01*
X86700Y-7250D02*Y-8750D01*
Y-7250D02*X87450Y-6500D01*
X88950D01*
X89700Y-7250D01*
X86700Y-8000D02*X89700D01*
Y-7250D02*Y-8000D01*
X92250Y-7250D02*Y-9500D01*
Y-7250D02*X93000Y-6500D01*
X93750D01*
X94500Y-7250D01*
Y-9500D01*
X91500Y-6500D02*X92250Y-7250D01*
X97050Y-3500D02*Y-8750D01*
X97800Y-9500D01*
X96300Y-5750D02*X97800D01*
X100050Y-9500D02*X102300D01*
X99300Y-8750D02*X100050Y-9500D01*
X99300Y-7250D02*Y-8750D01*
Y-7250D02*X100050Y-6500D01*
X101550D01*
X102300Y-7250D01*
X99300Y-8000D02*X102300D01*
Y-7250D02*Y-8000D01*
X104850Y-7250D02*Y-9500D01*
Y-7250D02*X105600Y-6500D01*
X107100D01*
X104100D02*X104850Y-7250D01*
X108900Y-3500D02*Y-8750D01*
X109650Y-9500D01*
X111150Y-5000D02*Y-5750D01*
Y-7250D02*Y-9500D01*
X113400Y-7250D02*Y-9500D01*
Y-7250D02*X114150Y-6500D01*
X114900D01*
X115650Y-7250D01*
Y-9500D01*
X112650Y-6500D02*X113400Y-7250D01*
X118200Y-9500D02*X120450D01*
X117450Y-8750D02*X118200Y-9500D01*
X117450Y-7250D02*Y-8750D01*
Y-7250D02*X118200Y-6500D01*
X119700D01*
X120450Y-7250D01*
X117450Y-8000D02*X120450D01*
Y-7250D02*Y-8000D01*
X124950Y-7250D02*Y-8750D01*
Y-7250D02*X125700Y-6500D01*
X127200D01*
X127950Y-7250D01*
Y-8750D01*
X127200Y-9500D02*X127950Y-8750D01*
X125700Y-9500D02*X127200D01*
X124950Y-8750D02*X125700Y-9500D01*
X130500Y-4250D02*Y-9500D01*
Y-4250D02*X131250Y-3500D01*
X132000D01*
X129750Y-6500D02*X131250D01*
X136950Y-3500D02*Y-8750D01*
X137700Y-9500D01*
X136200Y-5750D02*X137700D01*
X139200Y-3500D02*Y-9500D01*
Y-7250D02*X139950Y-6500D01*
X141450D01*
X142200Y-7250D01*
Y-9500D01*
X144000Y-5000D02*Y-5750D01*
Y-7250D02*Y-9500D01*
X146250D02*X148500D01*
X149250Y-8750D01*
X148500Y-8000D02*X149250Y-8750D01*
X146250Y-8000D02*X148500D01*
X145500Y-7250D02*X146250Y-8000D01*
X145500Y-7250D02*X146250Y-6500D01*
X148500D01*
X149250Y-7250D01*
X145500Y-8750D02*X146250Y-9500D01*
X154500Y-7250D02*Y-11750D01*
X153750Y-6500D02*X154500Y-7250D01*
X155250Y-6500D01*
X156750D01*
X157500Y-7250D01*
Y-8750D01*
X156750Y-9500D02*X157500Y-8750D01*
X155250Y-9500D02*X156750D01*
X154500Y-8750D02*X155250Y-9500D01*
X161550Y-6500D02*X162300Y-7250D01*
X160050Y-6500D02*X161550D01*
X159300Y-7250D02*X160050Y-6500D01*
X159300Y-7250D02*Y-8750D01*
X160050Y-9500D01*
X162300Y-6500D02*Y-8750D01*
X163050Y-9500D01*
X160050D02*X161550D01*
X162300Y-8750D01*
X165600Y-3500D02*Y-8750D01*
X166350Y-9500D01*
X164850Y-5750D02*X166350D01*
X167850Y-3500D02*Y-9500D01*
Y-7250D02*X168600Y-6500D01*
X170100D01*
X170850Y-7250D01*
Y-9500D01*
X200750Y538500D02*Y532500D01*
X203000Y538500D02*X203750Y537750D01*
Y533250D01*
X203000Y532500D02*X203750Y533250D01*
X200000Y532500D02*X203000D01*
X200000Y538500D02*X203000D01*
X207800Y535500D02*X208550Y534750D01*
X206300Y535500D02*X207800D01*
X205550Y534750D02*X206300Y535500D01*
X205550Y534750D02*Y533250D01*
X206300Y532500D01*
X208550Y535500D02*Y533250D01*
X209300Y532500D01*
X206300D02*X207800D01*
X208550Y533250D01*
X211850Y538500D02*Y533250D01*
X212600Y532500D01*
X211100Y536250D02*X212600D01*
X214850Y532500D02*X217100D01*
X214100Y533250D02*X214850Y532500D01*
X214100Y534750D02*Y533250D01*
Y534750D02*X214850Y535500D01*
X216350D01*
X217100Y534750D01*
X214100Y534000D02*X217100D01*
Y534750D02*Y534000D01*
X218900Y536250D02*X219650D01*
X218900Y534750D02*X219650D01*
X224150Y538500D02*Y532500D01*
Y538500D02*X226400Y536250D01*
X228650Y538500D01*
Y532500D01*
X230450Y534750D02*Y533250D01*
Y534750D02*X231200Y535500D01*
X232700D01*
X233450Y534750D01*
Y533250D01*
X232700Y532500D02*X233450Y533250D01*
X231200Y532500D02*X232700D01*
X230450Y533250D02*X231200Y532500D01*
X236000Y534750D02*Y532500D01*
Y534750D02*X236750Y535500D01*
X237500D01*
X238250Y534750D01*
Y532500D01*
X235250Y535500D02*X236000Y534750D01*
X242750Y537750D02*Y532500D01*
Y537750D02*X243500Y538500D01*
X245750D01*
X246500Y537750D01*
Y532500D01*
X242750Y535500D02*X246500D01*
X248300D02*Y533250D01*
X249050Y532500D01*
X250550D01*
X251300Y533250D01*
Y535500D02*Y533250D01*
X255350Y535500D02*X256100Y534750D01*
X253850Y535500D02*X255350D01*
X253100Y534750D02*X253850Y535500D01*
X253100Y534750D02*Y533250D01*
X253850Y532500D01*
X255350D01*
X256100Y533250D01*
X253100Y531000D02*X253850Y530250D01*
X255350D01*
X256100Y531000D01*
Y535500D02*Y531000D01*
X261350Y532500D02*X262850D01*
X262100Y538500D02*Y532500D01*
X260600Y537000D02*X262100Y538500D01*
X266900D02*X267650Y537750D01*
X265400Y538500D02*X266900D01*
X264650Y537750D02*X265400Y538500D01*
X264650Y537750D02*Y533250D01*
X265400Y532500D01*
X266900Y535500D02*X267650Y534750D01*
X264650Y535500D02*X266900D01*
X265400Y532500D02*X266900D01*
X267650Y533250D01*
Y534750D02*Y533250D01*
X272150D02*X272900Y532500D01*
X272150Y537750D02*Y533250D01*
Y537750D02*X272900Y538500D01*
X274400D01*
X275150Y537750D01*
Y533250D01*
X274400Y532500D02*X275150Y533250D01*
X272900Y532500D02*X274400D01*
X272150Y534000D02*X275150Y537000D01*
X277700Y532500D02*X279200D01*
X278450Y538500D02*Y532500D01*
X276950Y537000D02*X278450Y538500D01*
X281000Y536250D02*X281750D01*
X281000Y534750D02*X281750D01*
X283550Y537750D02*X284300Y538500D01*
X285800D01*
X286550Y537750D01*
Y533250D01*
X285800Y532500D02*X286550Y533250D01*
X284300Y532500D02*X285800D01*
X283550Y533250D02*X284300Y532500D01*
Y535500D02*X286550D01*
X288350Y537750D02*X289100Y538500D01*
X291350D01*
X292100Y537750D01*
Y536250D01*
X288350Y532500D02*X292100Y536250D01*
X288350Y532500D02*X292100D01*
X293900Y536250D02*X294650D01*
X293900Y534750D02*X294650D01*
X297200Y532500D02*X298700D01*
X297950Y538500D02*Y532500D01*
X296450Y537000D02*X297950Y538500D01*
X301250Y532500D02*X302750D01*
X302000Y538500D02*Y532500D01*
X300500Y537000D02*X302000Y538500D01*
X307250Y537750D02*X308000Y538500D01*
X310250D01*
X311000Y537750D01*
Y536250D01*
X307250Y532500D02*X311000Y536250D01*
X307250Y532500D02*X311000D01*
X312800Y533250D02*X313550Y532500D01*
X312800Y537750D02*Y533250D01*
Y537750D02*X313550Y538500D01*
X315050D01*
X315800Y537750D01*
Y533250D01*
X315050Y532500D02*X315800Y533250D01*
X313550Y532500D02*X315050D01*
X312800Y534000D02*X315800Y537000D01*
X317600Y537750D02*X318350Y538500D01*
X320600D01*
X321350Y537750D01*
Y536250D01*
X317600Y532500D02*X321350Y536250D01*
X317600Y532500D02*X321350D01*
X323900D02*X325400D01*
X324650Y538500D02*Y532500D01*
X323150Y537000D02*X324650Y538500D01*
X329900D02*Y533250D01*
X330650Y532500D01*
X332150D01*
X332900Y533250D01*
Y538500D02*Y533250D01*
X334700Y538500D02*X337700D01*
X336200D02*Y532500D01*
X340250D02*X342500D01*
X339500Y533250D02*X340250Y532500D01*
X339500Y537750D02*Y533250D01*
Y537750D02*X340250Y538500D01*
X342500D01*
X200000Y552750D02*Y547500D01*
Y552750D02*X200750Y553500D01*
X203000D01*
X203750Y552750D01*
Y547500D01*
X200000Y550500D02*X203750D01*
X205550D02*Y548250D01*
X206300Y547500D01*
X207800D01*
X208550Y548250D01*
Y550500D02*Y548250D01*
X211100Y553500D02*Y548250D01*
X211850Y547500D01*
X210350Y551250D02*X211850D01*
X213350Y553500D02*Y547500D01*
Y549750D02*X214100Y550500D01*
X215600D01*
X216350Y549750D01*
Y547500D01*
X218150Y549750D02*Y548250D01*
Y549750D02*X218900Y550500D01*
X220400D01*
X221150Y549750D01*
Y548250D01*
X220400Y547500D02*X221150Y548250D01*
X218900Y547500D02*X220400D01*
X218150Y548250D02*X218900Y547500D01*
X223700Y549750D02*Y547500D01*
Y549750D02*X224450Y550500D01*
X225950D01*
X222950D02*X223700Y549750D01*
X227750Y551250D02*X228500D01*
X227750Y549750D02*X228500D01*
X233000Y553500D02*Y547500D01*
Y553500D02*Y552750D01*
X236750Y549000D01*
Y553500D02*Y547500D01*
X240800Y550500D02*X241550Y549750D01*
X239300Y550500D02*X240800D01*
X238550Y549750D02*X239300Y550500D01*
X238550Y549750D02*Y548250D01*
X239300Y547500D01*
X241550Y550500D02*Y548250D01*
X242300Y547500D01*
X239300D02*X240800D01*
X241550Y548250D01*
X244850Y553500D02*Y548250D01*
X245600Y547500D01*
X244100Y551250D02*X245600D01*
X247100Y553500D02*Y547500D01*
Y549750D02*X247850Y550500D01*
X249350D01*
X250100Y549750D01*
Y547500D01*
X254150Y550500D02*X254900Y549750D01*
X252650Y550500D02*X254150D01*
X251900Y549750D02*X252650Y550500D01*
X251900Y549750D02*Y548250D01*
X252650Y547500D01*
X254900Y550500D02*Y548250D01*
X255650Y547500D01*
X252650D02*X254150D01*
X254900Y548250D01*
X258200Y549750D02*Y547500D01*
Y549750D02*X258950Y550500D01*
X259700D01*
X260450Y549750D01*
Y547500D01*
X257450Y550500D02*X258200Y549750D01*
X265700Y553500D02*Y547500D01*
X267950Y553500D02*X268700Y552750D01*
Y548250D01*
X267950Y547500D02*X268700Y548250D01*
X264950Y547500D02*X267950D01*
X264950Y553500D02*X267950D01*
X270500Y547500D02*X271250D01*
X275750Y553500D02*Y547500D01*
X279500Y553500D02*Y547500D01*
X275750Y550500D02*X279500D01*
X281300Y549750D02*Y548250D01*
Y549750D02*X282050Y550500D01*
X283550D01*
X284300Y549750D01*
Y548250D01*
X283550Y547500D02*X284300Y548250D01*
X282050Y547500D02*X283550D01*
X281300Y548250D02*X282050Y547500D01*
X286100Y553500D02*Y548250D01*
X286850Y547500D01*
X289100Y549750D02*Y547500D01*
Y549750D02*X289850Y550500D01*
X290600D01*
X291350Y549750D01*
Y547500D01*
Y549750D02*X292100Y550500D01*
X292850D01*
X293600Y549750D01*
Y547500D01*
X288350Y550500D02*X289100Y549750D01*
X296150Y547500D02*X298400D01*
X295400Y548250D02*X296150Y547500D01*
X295400Y549750D02*Y548250D01*
Y549750D02*X296150Y550500D01*
X297650D01*
X298400Y549750D01*
X295400Y549000D02*X298400D01*
Y549750D02*Y549000D01*
X300950Y547500D02*X303200D01*
X303950Y548250D01*
X303200Y549000D02*X303950Y548250D01*
X300950Y549000D02*X303200D01*
X300200Y549750D02*X300950Y549000D01*
X300200Y549750D02*X300950Y550500D01*
X303200D01*
X303950Y549750D01*
X300200Y548250D02*X300950Y547500D01*
X200000Y568500D02*X203000D01*
X201500D02*Y562500D01*
X204800Y567000D02*Y566250D01*
Y564750D02*Y562500D01*
X207050Y568500D02*Y563250D01*
X207800Y562500D01*
X206300Y566250D02*X207800D01*
X209300Y568500D02*Y563250D01*
X210050Y562500D01*
X212300D02*X214550D01*
X211550Y563250D02*X212300Y562500D01*
X211550Y564750D02*Y563250D01*
Y564750D02*X212300Y565500D01*
X213800D01*
X214550Y564750D01*
X211550Y564000D02*X214550D01*
Y564750D02*Y564000D01*
X216350Y566250D02*X217100D01*
X216350Y564750D02*X217100D01*
X221600Y563250D02*X222350Y562500D01*
X221600Y567750D02*X222350Y568500D01*
X221600Y567750D02*Y563250D01*
X224150Y565500D02*Y563250D01*
X224900Y562500D01*
X226400D01*
X227150Y563250D01*
Y565500D02*Y563250D01*
X229700Y564750D02*Y562500D01*
Y564750D02*X230450Y565500D01*
X231200D01*
X231950Y564750D01*
Y562500D01*
X228950Y565500D02*X229700Y564750D01*
X233750Y568500D02*Y562500D01*
Y564750D02*X236000Y562500D01*
X233750Y564750D02*X235250Y566250D01*
X238550Y564750D02*Y562500D01*
Y564750D02*X239300Y565500D01*
X240050D01*
X240800Y564750D01*
Y562500D01*
X237800Y565500D02*X238550Y564750D01*
X242600D02*Y563250D01*
Y564750D02*X243350Y565500D01*
X244850D01*
X245600Y564750D01*
Y563250D01*
X244850Y562500D02*X245600Y563250D01*
X243350Y562500D02*X244850D01*
X242600Y563250D02*X243350Y562500D01*
X247400Y565500D02*Y563250D01*
X248150Y562500D01*
X248900D01*
X249650Y563250D01*
Y565500D02*Y563250D01*
X250400Y562500D01*
X251150D01*
X251900Y563250D01*
Y565500D02*Y563250D01*
X254450Y564750D02*Y562500D01*
Y564750D02*X255200Y565500D01*
X255950D01*
X256700Y564750D01*
Y562500D01*
X253700Y565500D02*X254450Y564750D01*
X258500Y568500D02*X259250Y567750D01*
Y563250D01*
X258500Y562500D02*X259250Y563250D01*
X263750Y565500D02*X266750D01*
X271250Y568500D02*Y562500D01*
Y568500D02*X274250D01*
X271250Y565500D02*X273500D01*
X278300D02*X279050Y564750D01*
X276800Y565500D02*X278300D01*
X276050Y564750D02*X276800Y565500D01*
X276050Y564750D02*Y563250D01*
X276800Y562500D01*
X279050Y565500D02*Y563250D01*
X279800Y562500D01*
X276800D02*X278300D01*
X279050Y563250D01*
X281600Y568500D02*Y562500D01*
Y563250D02*X282350Y562500D01*
X283850D01*
X284600Y563250D01*
Y564750D02*Y563250D01*
X283850Y565500D02*X284600Y564750D01*
X282350Y565500D02*X283850D01*
X281600Y564750D02*X282350Y565500D01*
X287150Y564750D02*Y562500D01*
Y564750D02*X287900Y565500D01*
X289400D01*
X286400D02*X287150Y564750D01*
X291200Y567000D02*Y566250D01*
Y564750D02*Y562500D01*
X293450Y565500D02*X295700D01*
X292700Y564750D02*X293450Y565500D01*
X292700Y564750D02*Y563250D01*
X293450Y562500D01*
X295700D01*
X299750Y565500D02*X300500Y564750D01*
X298250Y565500D02*X299750D01*
X297500Y564750D02*X298250Y565500D01*
X297500Y564750D02*Y563250D01*
X298250Y562500D01*
X300500Y565500D02*Y563250D01*
X301250Y562500D01*
X298250D02*X299750D01*
X300500Y563250D01*
X303800Y568500D02*Y563250D01*
X304550Y562500D01*
X303050Y566250D02*X304550D01*
X306050Y567000D02*Y566250D01*
Y564750D02*Y562500D01*
X307550Y564750D02*Y563250D01*
Y564750D02*X308300Y565500D01*
X309800D01*
X310550Y564750D01*
Y563250D01*
X309800Y562500D02*X310550Y563250D01*
X308300Y562500D02*X309800D01*
X307550Y563250D02*X308300Y562500D01*
X313100Y564750D02*Y562500D01*
Y564750D02*X313850Y565500D01*
X314600D01*
X315350Y564750D01*
Y562500D01*
X312350Y565500D02*X313100Y564750D01*
X320600Y568500D02*Y562500D01*
X322850Y568500D02*X323600Y567750D01*
Y563250D01*
X322850Y562500D02*X323600Y563250D01*
X319850Y562500D02*X322850D01*
X319850Y568500D02*X322850D01*
X326150Y564750D02*Y562500D01*
Y564750D02*X326900Y565500D01*
X328400D01*
X325400D02*X326150Y564750D01*
X332450Y565500D02*X333200Y564750D01*
X330950Y565500D02*X332450D01*
X330200Y564750D02*X330950Y565500D01*
X330200Y564750D02*Y563250D01*
X330950Y562500D01*
X333200Y565500D02*Y563250D01*
X333950Y562500D01*
X330950D02*X332450D01*
X333200Y563250D01*
X335750Y565500D02*Y563250D01*
X336500Y562500D01*
X337250D01*
X338000Y563250D01*
Y565500D02*Y563250D01*
X338750Y562500D01*
X339500D01*
X340250Y563250D01*
Y565500D02*Y563250D01*
X342050Y567000D02*Y566250D01*
Y564750D02*Y562500D01*
X344300Y564750D02*Y562500D01*
Y564750D02*X345050Y565500D01*
X345800D01*
X346550Y564750D01*
Y562500D01*
X343550Y565500D02*X344300Y564750D01*
X350600Y565500D02*X351350Y564750D01*
X349100Y565500D02*X350600D01*
X348350Y564750D02*X349100Y565500D01*
X348350Y564750D02*Y563250D01*
X349100Y562500D01*
X350600D01*
X351350Y563250D01*
X348350Y561000D02*X349100Y560250D01*
X350600D01*
X351350Y561000D01*
Y565500D02*Y561000D01*
M02*
