G04 start of page 10 for group -4078 idx -4078 *
G04 Title: (unknown), bottomsilk *
G04 Creator: pcb 4.0.2 *
G04 CreationDate: Mon Aug 16 01:32:11 2021 UTC *
G04 For: ndholmes *
G04 Format: Gerber/RS-274X *
G04 PCB-Dimensions (mil): 700.00 5100.00 *
G04 PCB-Coordinate-Origin: lower left *
%MOIN*%
%FSLAX25Y25*%
%LNBOTTOMSILK*%
%ADD39C,0.0060*%
G54D39*X21885Y274850D02*X23040D01*
X21500Y274465D02*X21885Y274850D01*
X21500Y272155D02*Y274465D01*
Y272155D02*X21885Y271770D01*
X23040D01*
X23964D02*Y274850D01*
Y273310D02*X25504Y271770D01*
X23964Y273310D02*X25504Y274850D01*
X26428Y271770D02*X27968D01*
X27198D02*Y274850D01*
X28892Y273310D02*X30432D01*
X31356Y272155D02*Y274850D01*
Y272155D02*X31741Y271770D01*
X32896D01*
X33281Y272155D01*
Y274850D01*
X31356Y273310D02*X33281D01*
X34590Y271770D02*Y274850D01*
X34205Y271770D02*X35745D01*
X36130Y272155D01*
Y272925D01*
X35745Y273310D02*X36130Y272925D01*
X34590Y273310D02*X35745D01*
X38209Y271770D02*X38594Y272155D01*
X37439Y271770D02*X38209D01*
X37054Y272155D02*X37439Y271770D01*
X37054Y272155D02*Y274465D01*
X37439Y274850D01*
X38209Y273310D02*X38594Y273695D01*
X37054Y273310D02*X38209D01*
X37439Y274850D02*X38209D01*
X38594Y274465D01*
Y273695D02*Y274465D01*
X39518Y272155D02*X39903Y271770D01*
X40673D01*
X41058Y272155D01*
Y274465D01*
X40673Y274850D02*X41058Y274465D01*
X39903Y274850D02*X40673D01*
X39518Y274465D02*X39903Y274850D01*
Y273310D02*X41058D01*
X41982Y272155D02*X42367Y271770D01*
X43522D01*
X43907Y272155D01*
Y272925D01*
X41982Y274850D02*X43907Y272925D01*
X41982Y274850D02*X43907D01*
X44831Y274465D02*X45216Y274850D01*
X44831Y272155D02*Y274465D01*
Y272155D02*X45216Y271770D01*
X45986D01*
X46371Y272155D01*
Y274465D01*
X45986Y274850D02*X46371Y274465D01*
X45216Y274850D02*X45986D01*
X44831Y274080D02*X46371Y272540D01*
X47295Y273310D02*X48835Y274850D01*
X47295D02*X48835Y273310D01*
X31000Y279310D02*Y280080D01*
X31770Y280850D01*
X32540Y280080D01*
Y279310D02*Y280080D01*
X33849Y280850D02*X34619D01*
X34234Y277770D02*Y280850D01*
X33464Y278540D02*X34234Y277770D01*
X35543Y280850D02*X35928D01*
X36852Y280465D02*X37237Y280850D01*
X36852Y278155D02*Y280465D01*
Y278155D02*X37237Y277770D01*
X38007D01*
X38392Y278155D01*
Y280465D01*
X38007Y280850D02*X38392Y280465D01*
X37237Y280850D02*X38007D01*
X36852Y280080D02*X38392Y278540D01*
X21885Y224850D02*X23040D01*
X21500Y224465D02*X21885Y224850D01*
X21500Y222155D02*Y224465D01*
Y222155D02*X21885Y221770D01*
X23040D01*
X23964D02*Y224850D01*
Y223310D02*X25504Y221770D01*
X23964Y223310D02*X25504Y224850D01*
X26428Y221770D02*X27968D01*
X27198D02*Y224850D01*
X28892Y223310D02*X30432D01*
X31356Y222155D02*Y224850D01*
Y222155D02*X31741Y221770D01*
X32896D01*
X33281Y222155D01*
Y224850D01*
X31356Y223310D02*X33281D01*
X34590Y221770D02*Y224850D01*
X34205Y221770D02*X35745D01*
X36130Y222155D01*
Y222925D01*
X35745Y223310D02*X36130Y222925D01*
X34590Y223310D02*X35745D01*
X38209Y221770D02*X38594Y222155D01*
X37439Y221770D02*X38209D01*
X37054Y222155D02*X37439Y221770D01*
X37054Y222155D02*Y224465D01*
X37439Y224850D01*
X38209Y223310D02*X38594Y223695D01*
X37054Y223310D02*X38209D01*
X37439Y224850D02*X38209D01*
X38594Y224465D01*
Y223695D02*Y224465D01*
X39518Y222155D02*X39903Y221770D01*
X40673D01*
X41058Y222155D01*
Y224465D01*
X40673Y224850D02*X41058Y224465D01*
X39903Y224850D02*X40673D01*
X39518Y224465D02*X39903Y224850D01*
Y223310D02*X41058D01*
X41982Y222155D02*X42367Y221770D01*
X43522D01*
X43907Y222155D01*
Y222925D01*
X41982Y224850D02*X43907Y222925D01*
X41982Y224850D02*X43907D01*
X44831Y224465D02*X45216Y224850D01*
X44831Y222155D02*Y224465D01*
Y222155D02*X45216Y221770D01*
X45986D01*
X46371Y222155D01*
Y224465D01*
X45986Y224850D02*X46371Y224465D01*
X45216Y224850D02*X45986D01*
X44831Y224080D02*X46371Y222540D01*
X47295Y223310D02*X48835Y224850D01*
X47295D02*X48835Y223310D01*
X21885Y174850D02*X23040D01*
X21500Y174465D02*X21885Y174850D01*
X21500Y172155D02*Y174465D01*
Y172155D02*X21885Y171770D01*
X23040D01*
X23964D02*Y174850D01*
Y173310D02*X25504Y171770D01*
X23964Y173310D02*X25504Y174850D01*
X26428Y171770D02*X27968D01*
X27198D02*Y174850D01*
X28892Y173310D02*X30432D01*
X31356Y172155D02*Y174850D01*
Y172155D02*X31741Y171770D01*
X32896D01*
X33281Y172155D01*
Y174850D01*
X31356Y173310D02*X33281D01*
X34590Y171770D02*Y174850D01*
X34205Y171770D02*X35745D01*
X36130Y172155D01*
Y172925D01*
X35745Y173310D02*X36130Y172925D01*
X34590Y173310D02*X35745D01*
X38209Y171770D02*X38594Y172155D01*
X37439Y171770D02*X38209D01*
X37054Y172155D02*X37439Y171770D01*
X37054Y172155D02*Y174465D01*
X37439Y174850D01*
X38209Y173310D02*X38594Y173695D01*
X37054Y173310D02*X38209D01*
X37439Y174850D02*X38209D01*
X38594Y174465D01*
Y173695D02*Y174465D01*
X39518Y172155D02*X39903Y171770D01*
X40673D01*
X41058Y172155D01*
Y174465D01*
X40673Y174850D02*X41058Y174465D01*
X39903Y174850D02*X40673D01*
X39518Y174465D02*X39903Y174850D01*
Y173310D02*X41058D01*
X41982Y172155D02*X42367Y171770D01*
X43522D01*
X43907Y172155D01*
Y172925D01*
X41982Y174850D02*X43907Y172925D01*
X41982Y174850D02*X43907D01*
X44831Y174465D02*X45216Y174850D01*
X44831Y172155D02*Y174465D01*
Y172155D02*X45216Y171770D01*
X45986D01*
X46371Y172155D01*
Y174465D01*
X45986Y174850D02*X46371Y174465D01*
X45216Y174850D02*X45986D01*
X44831Y174080D02*X46371Y172540D01*
X47295Y173310D02*X48835Y174850D01*
X47295D02*X48835Y173310D01*
X31000Y179310D02*Y180080D01*
X31770Y180850D01*
X32540Y180080D01*
Y179310D02*Y180080D01*
X33849Y180850D02*X34619D01*
X34234Y177770D02*Y180850D01*
X33464Y178540D02*X34234Y177770D01*
X35543Y180850D02*X35928D01*
X36852Y180465D02*X37237Y180850D01*
X36852Y178155D02*Y180465D01*
Y178155D02*X37237Y177770D01*
X38007D01*
X38392Y178155D01*
Y180465D01*
X38007Y180850D02*X38392Y180465D01*
X37237Y180850D02*X38007D01*
X36852Y180080D02*X38392Y178540D01*
X31000Y229310D02*Y230080D01*
X31770Y230850D01*
X32540Y230080D01*
Y229310D02*Y230080D01*
X33849Y230850D02*X34619D01*
X34234Y227770D02*Y230850D01*
X33464Y228540D02*X34234Y227770D01*
X35543Y230850D02*X35928D01*
X36852Y230465D02*X37237Y230850D01*
X36852Y228155D02*Y230465D01*
Y228155D02*X37237Y227770D01*
X38007D01*
X38392Y228155D01*
Y230465D01*
X38007Y230850D02*X38392Y230465D01*
X37237Y230850D02*X38007D01*
X36852Y230080D02*X38392Y228540D01*
X21885Y124850D02*X23040D01*
X21500Y124465D02*X21885Y124850D01*
X21500Y122155D02*Y124465D01*
Y122155D02*X21885Y121770D01*
X23040D01*
X23964D02*Y124850D01*
Y123310D02*X25504Y121770D01*
X23964Y123310D02*X25504Y124850D01*
X26428Y121770D02*X27968D01*
X27198D02*Y124850D01*
X28892Y123310D02*X30432D01*
X31356Y122155D02*Y124850D01*
Y122155D02*X31741Y121770D01*
X32896D01*
X33281Y122155D01*
Y124850D01*
X31356Y123310D02*X33281D01*
X34590Y121770D02*Y124850D01*
X34205Y121770D02*X35745D01*
X36130Y122155D01*
Y122925D01*
X35745Y123310D02*X36130Y122925D01*
X34590Y123310D02*X35745D01*
X38209Y121770D02*X38594Y122155D01*
X37439Y121770D02*X38209D01*
X37054Y122155D02*X37439Y121770D01*
X37054Y122155D02*Y124465D01*
X37439Y124850D01*
X38209Y123310D02*X38594Y123695D01*
X37054Y123310D02*X38209D01*
X37439Y124850D02*X38209D01*
X38594Y124465D01*
Y123695D02*Y124465D01*
X39518Y122155D02*X39903Y121770D01*
X40673D01*
X41058Y122155D01*
Y124465D01*
X40673Y124850D02*X41058Y124465D01*
X39903Y124850D02*X40673D01*
X39518Y124465D02*X39903Y124850D01*
Y123310D02*X41058D01*
X41982Y122155D02*X42367Y121770D01*
X43522D01*
X43907Y122155D01*
Y122925D01*
X41982Y124850D02*X43907Y122925D01*
X41982Y124850D02*X43907D01*
X44831Y124465D02*X45216Y124850D01*
X44831Y122155D02*Y124465D01*
Y122155D02*X45216Y121770D01*
X45986D01*
X46371Y122155D01*
Y124465D01*
X45986Y124850D02*X46371Y124465D01*
X45216Y124850D02*X45986D01*
X44831Y124080D02*X46371Y122540D01*
X47295Y123310D02*X48835Y124850D01*
X47295D02*X48835Y123310D01*
X31000Y129310D02*Y130080D01*
X31770Y130850D01*
X32540Y130080D01*
Y129310D02*Y130080D01*
X33849Y130850D02*X34619D01*
X34234Y127770D02*Y130850D01*
X33464Y128540D02*X34234Y127770D01*
X35543Y130850D02*X35928D01*
X36852Y130465D02*X37237Y130850D01*
X36852Y128155D02*Y130465D01*
Y128155D02*X37237Y127770D01*
X38007D01*
X38392Y128155D01*
Y130465D01*
X38007Y130850D02*X38392Y130465D01*
X37237Y130850D02*X38007D01*
X36852Y130080D02*X38392Y128540D01*
X21885Y74850D02*X23040D01*
X21500Y74465D02*X21885Y74850D01*
X21500Y72155D02*Y74465D01*
Y72155D02*X21885Y71770D01*
X23040D01*
X23964D02*Y74850D01*
Y73310D02*X25504Y71770D01*
X23964Y73310D02*X25504Y74850D01*
X26428Y71770D02*X27968D01*
X27198D02*Y74850D01*
X28892Y73310D02*X30432D01*
X31356Y72155D02*Y74850D01*
Y72155D02*X31741Y71770D01*
X32896D01*
X33281Y72155D01*
Y74850D01*
X31356Y73310D02*X33281D01*
X34590Y71770D02*Y74850D01*
X34205Y71770D02*X35745D01*
X36130Y72155D01*
Y72925D01*
X35745Y73310D02*X36130Y72925D01*
X34590Y73310D02*X35745D01*
X38209Y71770D02*X38594Y72155D01*
X37439Y71770D02*X38209D01*
X37054Y72155D02*X37439Y71770D01*
X37054Y72155D02*Y74465D01*
X37439Y74850D01*
X38209Y73310D02*X38594Y73695D01*
X37054Y73310D02*X38209D01*
X37439Y74850D02*X38209D01*
X38594Y74465D01*
Y73695D02*Y74465D01*
X39518Y72155D02*X39903Y71770D01*
X40673D01*
X41058Y72155D01*
Y74465D01*
X40673Y74850D02*X41058Y74465D01*
X39903Y74850D02*X40673D01*
X39518Y74465D02*X39903Y74850D01*
Y73310D02*X41058D01*
X41982Y72155D02*X42367Y71770D01*
X43522D01*
X43907Y72155D01*
Y72925D01*
X41982Y74850D02*X43907Y72925D01*
X41982Y74850D02*X43907D01*
X44831Y74465D02*X45216Y74850D01*
X44831Y72155D02*Y74465D01*
Y72155D02*X45216Y71770D01*
X45986D01*
X46371Y72155D01*
Y74465D01*
X45986Y74850D02*X46371Y74465D01*
X45216Y74850D02*X45986D01*
X44831Y74080D02*X46371Y72540D01*
X47295Y73310D02*X48835Y74850D01*
X47295D02*X48835Y73310D01*
X31000Y79310D02*Y80080D01*
X31770Y80850D01*
X32540Y80080D01*
Y79310D02*Y80080D01*
X33849Y80850D02*X34619D01*
X34234Y77770D02*Y80850D01*
X33464Y78540D02*X34234Y77770D01*
X35543Y80850D02*X35928D01*
X36852Y80465D02*X37237Y80850D01*
X36852Y78155D02*Y80465D01*
Y78155D02*X37237Y77770D01*
X38007D01*
X38392Y78155D01*
Y80465D01*
X38007Y80850D02*X38392Y80465D01*
X37237Y80850D02*X38007D01*
X36852Y80080D02*X38392Y78540D01*
X21885Y24850D02*X23040D01*
X21500Y24465D02*X21885Y24850D01*
X21500Y22155D02*Y24465D01*
Y22155D02*X21885Y21770D01*
X23040D01*
X23964D02*Y24850D01*
Y23310D02*X25504Y21770D01*
X23964Y23310D02*X25504Y24850D01*
X26428Y21770D02*X27968D01*
X27198D02*Y24850D01*
X28892Y23310D02*X30432D01*
X31356Y22155D02*Y24850D01*
Y22155D02*X31741Y21770D01*
X32896D01*
X33281Y22155D01*
Y24850D01*
X31356Y23310D02*X33281D01*
X34590Y21770D02*Y24850D01*
X34205Y21770D02*X35745D01*
X36130Y22155D01*
Y22925D01*
X35745Y23310D02*X36130Y22925D01*
X34590Y23310D02*X35745D01*
X38209Y21770D02*X38594Y22155D01*
X37439Y21770D02*X38209D01*
X37054Y22155D02*X37439Y21770D01*
X37054Y22155D02*Y24465D01*
X37439Y24850D01*
X38209Y23310D02*X38594Y23695D01*
X37054Y23310D02*X38209D01*
X37439Y24850D02*X38209D01*
X38594Y24465D01*
Y23695D02*Y24465D01*
X39518Y22155D02*X39903Y21770D01*
X40673D01*
X41058Y22155D01*
Y24465D01*
X40673Y24850D02*X41058Y24465D01*
X39903Y24850D02*X40673D01*
X39518Y24465D02*X39903Y24850D01*
Y23310D02*X41058D01*
X41982Y22155D02*X42367Y21770D01*
X43522D01*
X43907Y22155D01*
Y22925D01*
X41982Y24850D02*X43907Y22925D01*
X41982Y24850D02*X43907D01*
X44831Y24465D02*X45216Y24850D01*
X44831Y22155D02*Y24465D01*
Y22155D02*X45216Y21770D01*
X45986D01*
X46371Y22155D01*
Y24465D01*
X45986Y24850D02*X46371Y24465D01*
X45216Y24850D02*X45986D01*
X44831Y24080D02*X46371Y22540D01*
X47295Y23310D02*X48835Y24850D01*
X47295D02*X48835Y23310D01*
X31000Y29310D02*Y30080D01*
X31770Y30850D01*
X32540Y30080D01*
Y29310D02*Y30080D01*
X33849Y30850D02*X34619D01*
X34234Y27770D02*Y30850D01*
X33464Y28540D02*X34234Y27770D01*
X35543Y30850D02*X35928D01*
X36852Y30465D02*X37237Y30850D01*
X36852Y28155D02*Y30465D01*
Y28155D02*X37237Y27770D01*
X38007D01*
X38392Y28155D01*
Y30465D01*
X38007Y30850D02*X38392Y30465D01*
X37237Y30850D02*X38007D01*
X36852Y30080D02*X38392Y28540D01*
X21885Y374850D02*X23040D01*
X21500Y374465D02*X21885Y374850D01*
X21500Y372155D02*Y374465D01*
Y372155D02*X21885Y371770D01*
X23040D01*
X23964D02*Y374850D01*
Y373310D02*X25504Y371770D01*
X23964Y373310D02*X25504Y374850D01*
X26428Y371770D02*X27968D01*
X27198D02*Y374850D01*
X28892Y373310D02*X30432D01*
X31356Y372155D02*Y374850D01*
Y372155D02*X31741Y371770D01*
X32896D01*
X33281Y372155D01*
Y374850D01*
X31356Y373310D02*X33281D01*
X34590Y371770D02*Y374850D01*
X34205Y371770D02*X35745D01*
X36130Y372155D01*
Y372925D01*
X35745Y373310D02*X36130Y372925D01*
X34590Y373310D02*X35745D01*
X38209Y371770D02*X38594Y372155D01*
X37439Y371770D02*X38209D01*
X37054Y372155D02*X37439Y371770D01*
X37054Y372155D02*Y374465D01*
X37439Y374850D01*
X38209Y373310D02*X38594Y373695D01*
X37054Y373310D02*X38209D01*
X37439Y374850D02*X38209D01*
X38594Y374465D01*
Y373695D02*Y374465D01*
X39518Y372155D02*X39903Y371770D01*
X40673D01*
X41058Y372155D01*
Y374465D01*
X40673Y374850D02*X41058Y374465D01*
X39903Y374850D02*X40673D01*
X39518Y374465D02*X39903Y374850D01*
Y373310D02*X41058D01*
X41982Y372155D02*X42367Y371770D01*
X43522D01*
X43907Y372155D01*
Y372925D01*
X41982Y374850D02*X43907Y372925D01*
X41982Y374850D02*X43907D01*
X44831Y374465D02*X45216Y374850D01*
X44831Y372155D02*Y374465D01*
Y372155D02*X45216Y371770D01*
X45986D01*
X46371Y372155D01*
Y374465D01*
X45986Y374850D02*X46371Y374465D01*
X45216Y374850D02*X45986D01*
X44831Y374080D02*X46371Y372540D01*
X47295Y373310D02*X48835Y374850D01*
X47295D02*X48835Y373310D01*
X31000Y379310D02*Y380080D01*
X31770Y380850D01*
X32540Y380080D01*
Y379310D02*Y380080D01*
X33849Y380850D02*X34619D01*
X34234Y377770D02*Y380850D01*
X33464Y378540D02*X34234Y377770D01*
X35543Y380850D02*X35928D01*
X36852Y380465D02*X37237Y380850D01*
X36852Y378155D02*Y380465D01*
Y378155D02*X37237Y377770D01*
X38007D01*
X38392Y378155D01*
Y380465D01*
X38007Y380850D02*X38392Y380465D01*
X37237Y380850D02*X38007D01*
X36852Y380080D02*X38392Y378540D01*
X21885Y324850D02*X23040D01*
X21500Y324465D02*X21885Y324850D01*
X21500Y322155D02*Y324465D01*
Y322155D02*X21885Y321770D01*
X23040D01*
X23964D02*Y324850D01*
Y323310D02*X25504Y321770D01*
X23964Y323310D02*X25504Y324850D01*
X26428Y321770D02*X27968D01*
X27198D02*Y324850D01*
X28892Y323310D02*X30432D01*
X31356Y322155D02*Y324850D01*
Y322155D02*X31741Y321770D01*
X32896D01*
X33281Y322155D01*
Y324850D01*
X31356Y323310D02*X33281D01*
X34590Y321770D02*Y324850D01*
X34205Y321770D02*X35745D01*
X36130Y322155D01*
Y322925D01*
X35745Y323310D02*X36130Y322925D01*
X34590Y323310D02*X35745D01*
X38209Y321770D02*X38594Y322155D01*
X37439Y321770D02*X38209D01*
X37054Y322155D02*X37439Y321770D01*
X37054Y322155D02*Y324465D01*
X37439Y324850D01*
X38209Y323310D02*X38594Y323695D01*
X37054Y323310D02*X38209D01*
X37439Y324850D02*X38209D01*
X38594Y324465D01*
Y323695D02*Y324465D01*
X39518Y322155D02*X39903Y321770D01*
X40673D01*
X41058Y322155D01*
Y324465D01*
X40673Y324850D02*X41058Y324465D01*
X39903Y324850D02*X40673D01*
X39518Y324465D02*X39903Y324850D01*
Y323310D02*X41058D01*
X41982Y322155D02*X42367Y321770D01*
X43522D01*
X43907Y322155D01*
Y322925D01*
X41982Y324850D02*X43907Y322925D01*
X41982Y324850D02*X43907D01*
X44831Y324465D02*X45216Y324850D01*
X44831Y322155D02*Y324465D01*
Y322155D02*X45216Y321770D01*
X45986D01*
X46371Y322155D01*
Y324465D01*
X45986Y324850D02*X46371Y324465D01*
X45216Y324850D02*X45986D01*
X44831Y324080D02*X46371Y322540D01*
X47295Y323310D02*X48835Y324850D01*
X47295D02*X48835Y323310D01*
X31000Y329310D02*Y330080D01*
X31770Y330850D01*
X32540Y330080D01*
Y329310D02*Y330080D01*
X33849Y330850D02*X34619D01*
X34234Y327770D02*Y330850D01*
X33464Y328540D02*X34234Y327770D01*
X35543Y330850D02*X35928D01*
X36852Y330465D02*X37237Y330850D01*
X36852Y328155D02*Y330465D01*
Y328155D02*X37237Y327770D01*
X38007D01*
X38392Y328155D01*
Y330465D01*
X38007Y330850D02*X38392Y330465D01*
X37237Y330850D02*X38007D01*
X36852Y330080D02*X38392Y328540D01*
X21885Y474850D02*X23040D01*
X21500Y474465D02*X21885Y474850D01*
X21500Y472155D02*Y474465D01*
Y472155D02*X21885Y471770D01*
X23040D01*
X23964D02*Y474850D01*
Y473310D02*X25504Y471770D01*
X23964Y473310D02*X25504Y474850D01*
X26428Y471770D02*X27968D01*
X27198D02*Y474850D01*
X28892Y473310D02*X30432D01*
X31356Y472155D02*Y474850D01*
Y472155D02*X31741Y471770D01*
X32896D01*
X33281Y472155D01*
Y474850D01*
X31356Y473310D02*X33281D01*
X34590Y471770D02*Y474850D01*
X34205Y471770D02*X35745D01*
X36130Y472155D01*
Y472925D01*
X35745Y473310D02*X36130Y472925D01*
X34590Y473310D02*X35745D01*
X38209Y471770D02*X38594Y472155D01*
X37439Y471770D02*X38209D01*
X37054Y472155D02*X37439Y471770D01*
X37054Y472155D02*Y474465D01*
X37439Y474850D01*
X38209Y473310D02*X38594Y473695D01*
X37054Y473310D02*X38209D01*
X37439Y474850D02*X38209D01*
X38594Y474465D01*
Y473695D02*Y474465D01*
X39518Y472155D02*X39903Y471770D01*
X40673D01*
X41058Y472155D01*
Y474465D01*
X40673Y474850D02*X41058Y474465D01*
X39903Y474850D02*X40673D01*
X39518Y474465D02*X39903Y474850D01*
Y473310D02*X41058D01*
X41982Y472155D02*X42367Y471770D01*
X43522D01*
X43907Y472155D01*
Y472925D01*
X41982Y474850D02*X43907Y472925D01*
X41982Y474850D02*X43907D01*
X44831Y474465D02*X45216Y474850D01*
X44831Y472155D02*Y474465D01*
Y472155D02*X45216Y471770D01*
X45986D01*
X46371Y472155D01*
Y474465D01*
X45986Y474850D02*X46371Y474465D01*
X45216Y474850D02*X45986D01*
X44831Y474080D02*X46371Y472540D01*
X47295Y473310D02*X48835Y474850D01*
X47295D02*X48835Y473310D01*
X31000Y479310D02*Y480080D01*
X31770Y480850D01*
X32540Y480080D01*
Y479310D02*Y480080D01*
X33849Y480850D02*X34619D01*
X34234Y477770D02*Y480850D01*
X33464Y478540D02*X34234Y477770D01*
X35543Y480850D02*X35928D01*
X36852Y480465D02*X37237Y480850D01*
X36852Y478155D02*Y480465D01*
Y478155D02*X37237Y477770D01*
X38007D01*
X38392Y478155D01*
Y480465D01*
X38007Y480850D02*X38392Y480465D01*
X37237Y480850D02*X38007D01*
X36852Y480080D02*X38392Y478540D01*
X21885Y424850D02*X23040D01*
X21500Y424465D02*X21885Y424850D01*
X21500Y422155D02*Y424465D01*
Y422155D02*X21885Y421770D01*
X23040D01*
X23964D02*Y424850D01*
Y423310D02*X25504Y421770D01*
X23964Y423310D02*X25504Y424850D01*
X26428Y421770D02*X27968D01*
X27198D02*Y424850D01*
X28892Y423310D02*X30432D01*
X31356Y422155D02*Y424850D01*
Y422155D02*X31741Y421770D01*
X32896D01*
X33281Y422155D01*
Y424850D01*
X31356Y423310D02*X33281D01*
X34590Y421770D02*Y424850D01*
X34205Y421770D02*X35745D01*
X36130Y422155D01*
Y422925D01*
X35745Y423310D02*X36130Y422925D01*
X34590Y423310D02*X35745D01*
X38209Y421770D02*X38594Y422155D01*
X37439Y421770D02*X38209D01*
X37054Y422155D02*X37439Y421770D01*
X37054Y422155D02*Y424465D01*
X37439Y424850D01*
X38209Y423310D02*X38594Y423695D01*
X37054Y423310D02*X38209D01*
X37439Y424850D02*X38209D01*
X38594Y424465D01*
Y423695D02*Y424465D01*
X39518Y422155D02*X39903Y421770D01*
X40673D01*
X41058Y422155D01*
Y424465D01*
X40673Y424850D02*X41058Y424465D01*
X39903Y424850D02*X40673D01*
X39518Y424465D02*X39903Y424850D01*
Y423310D02*X41058D01*
X41982Y422155D02*X42367Y421770D01*
X43522D01*
X43907Y422155D01*
Y422925D01*
X41982Y424850D02*X43907Y422925D01*
X41982Y424850D02*X43907D01*
X44831Y424465D02*X45216Y424850D01*
X44831Y422155D02*Y424465D01*
Y422155D02*X45216Y421770D01*
X45986D01*
X46371Y422155D01*
Y424465D01*
X45986Y424850D02*X46371Y424465D01*
X45216Y424850D02*X45986D01*
X44831Y424080D02*X46371Y422540D01*
X47295Y423310D02*X48835Y424850D01*
X47295D02*X48835Y423310D01*
X31000Y429310D02*Y430080D01*
X31770Y430850D01*
X32540Y430080D01*
Y429310D02*Y430080D01*
X33849Y430850D02*X34619D01*
X34234Y427770D02*Y430850D01*
X33464Y428540D02*X34234Y427770D01*
X35543Y430850D02*X35928D01*
X36852Y430465D02*X37237Y430850D01*
X36852Y428155D02*Y430465D01*
Y428155D02*X37237Y427770D01*
X38007D01*
X38392Y428155D01*
Y430465D01*
X38007Y430850D02*X38392Y430465D01*
X37237Y430850D02*X38007D01*
X36852Y430080D02*X38392Y428540D01*
X13500Y329000D02*Y332000D01*
Y329000D02*X14000Y328500D01*
X15000D01*
X15500Y329000D01*
Y332000D01*
X15000Y332500D02*X15500Y332000D01*
X14000Y332500D02*X15000D01*
X13500Y332000D02*X14000Y332500D01*
X16700Y328500D02*Y332000D01*
X17200Y332500D01*
X18200D01*
X18700Y332000D01*
Y328500D02*Y332000D01*
X19900Y328500D02*X21900D01*
X20900D02*Y332500D01*
X23100Y329000D02*X23600Y328500D01*
X25100D01*
X25600Y329000D01*
Y330000D01*
X23100Y332500D02*X25600Y330000D01*
X23100Y332500D02*X25600D01*
X15500Y314500D02*X16000Y315000D01*
X14000Y314500D02*X15500D01*
X13500Y315000D02*X14000Y314500D01*
X13500Y315000D02*Y318000D01*
X14000Y318500D01*
X15500D01*
X16000Y318000D01*
Y317000D02*Y318000D01*
X15500Y316500D02*X16000Y317000D01*
X14500Y316500D02*X15500D01*
X17200Y314500D02*Y318500D01*
Y314500D02*Y315000D01*
X19700Y317500D01*
Y314500D02*Y318500D01*
X21400Y314500D02*Y318500D01*
X22900Y314500D02*X23400Y315000D01*
Y318000D01*
X22900Y318500D02*X23400Y318000D01*
X20900Y318500D02*X22900D01*
X20900Y314500D02*X22900D01*
X13500Y342000D02*Y345000D01*
Y342000D02*X14000Y341500D01*
X15000D01*
X15500Y342000D01*
Y345000D01*
X15000Y345500D02*X15500Y345000D01*
X14000Y345500D02*X15000D01*
X13500Y345000D02*X14000Y345500D01*
X16700Y341500D02*Y345000D01*
X17200Y345500D01*
X18200D01*
X18700Y345000D01*
Y341500D02*Y345000D01*
X19900Y341500D02*X21900D01*
X20900D02*Y345500D01*
X45000Y314500D02*X45500Y315000D01*
X43500Y314500D02*X45000D01*
X43000Y315000D02*X43500Y314500D01*
X43000Y315000D02*Y318000D01*
X43500Y318500D01*
X45000D01*
X45500Y318000D01*
Y317000D02*Y318000D01*
X45000Y316500D02*X45500Y317000D01*
X44000Y316500D02*X45000D01*
X46700Y314500D02*Y318500D01*
Y314500D02*Y315000D01*
X49200Y317500D01*
Y314500D02*Y318500D01*
X50900Y314500D02*Y318500D01*
X52400Y314500D02*X52900Y315000D01*
Y318000D01*
X52400Y318500D02*X52900Y318000D01*
X50400Y318500D02*X52400D01*
X50400Y314500D02*X52400D01*
X54100Y315000D02*X54600Y314500D01*
X56100D01*
X56600Y315000D01*
Y316000D01*
X54100Y318500D02*X56600Y316000D01*
X54100Y318500D02*X56600D01*
X50500Y330000D02*X52000D01*
X50500Y332000D02*X52500D01*
X50500Y328000D02*Y332000D01*
Y328000D02*X52500D01*
X53700D02*Y332000D01*
Y328000D02*Y328500D01*
X56200Y331000D01*
Y328000D02*Y332000D01*
X51500Y341500D02*X52500D01*
X52000D02*Y345500D01*
X51500D02*X52500D01*
X53700Y341500D02*Y345500D01*
Y341500D02*Y342000D01*
X56200Y344500D01*
Y341500D02*Y345500D01*
X45000Y264500D02*X45500Y265000D01*
X43500Y264500D02*X45000D01*
X43000Y265000D02*X43500Y264500D01*
X43000Y265000D02*Y268000D01*
X43500Y268500D01*
X45000D01*
X45500Y268000D01*
Y267000D02*Y268000D01*
X45000Y266500D02*X45500Y267000D01*
X44000Y266500D02*X45000D01*
X46700Y264500D02*Y268500D01*
Y264500D02*Y265000D01*
X49200Y267500D01*
Y264500D02*Y268500D01*
X50900Y264500D02*Y268500D01*
X52400Y264500D02*X52900Y265000D01*
Y268000D01*
X52400Y268500D02*X52900Y268000D01*
X50400Y268500D02*X52400D01*
X50400Y264500D02*X52400D01*
X54100Y265000D02*X54600Y264500D01*
X56100D01*
X56600Y265000D01*
Y266000D01*
X54100Y268500D02*X56600Y266000D01*
X54100Y268500D02*X56600D01*
X13500Y279000D02*Y282000D01*
Y279000D02*X14000Y278500D01*
X15000D01*
X15500Y279000D01*
Y282000D01*
X15000Y282500D02*X15500Y282000D01*
X14000Y282500D02*X15000D01*
X13500Y282000D02*X14000Y282500D01*
X16700Y278500D02*Y282000D01*
X17200Y282500D01*
X18200D01*
X18700Y282000D01*
Y278500D02*Y282000D01*
X19900Y278500D02*X21900D01*
X20900D02*Y282500D01*
X23100Y279000D02*X23600Y278500D01*
X25100D01*
X25600Y279000D01*
Y280000D01*
X23100Y282500D02*X25600Y280000D01*
X23100Y282500D02*X25600D01*
X13500Y292000D02*Y295000D01*
Y292000D02*X14000Y291500D01*
X15000D01*
X15500Y292000D01*
Y295000D01*
X15000Y295500D02*X15500Y295000D01*
X14000Y295500D02*X15000D01*
X13500Y295000D02*X14000Y295500D01*
X16700Y291500D02*Y295000D01*
X17200Y295500D01*
X18200D01*
X18700Y295000D01*
Y291500D02*Y295000D01*
X19900Y291500D02*X21900D01*
X20900D02*Y295500D01*
X50500Y280000D02*X52000D01*
X50500Y282000D02*X52500D01*
X50500Y278000D02*Y282000D01*
Y278000D02*X52500D01*
X53700D02*Y282000D01*
Y278000D02*Y278500D01*
X56200Y281000D01*
Y278000D02*Y282000D01*
X51500Y291500D02*X52500D01*
X52000D02*Y295500D01*
X51500D02*X52500D01*
X53700Y291500D02*Y295500D01*
Y291500D02*Y292000D01*
X56200Y294500D01*
Y291500D02*Y295500D01*
X45000Y214500D02*X45500Y215000D01*
X43500Y214500D02*X45000D01*
X43000Y215000D02*X43500Y214500D01*
X43000Y215000D02*Y218000D01*
X43500Y218500D01*
X45000D01*
X45500Y218000D01*
Y217000D02*Y218000D01*
X45000Y216500D02*X45500Y217000D01*
X44000Y216500D02*X45000D01*
X46700Y214500D02*Y218500D01*
Y214500D02*Y215000D01*
X49200Y217500D01*
Y214500D02*Y218500D01*
X50900Y214500D02*Y218500D01*
X52400Y214500D02*X52900Y215000D01*
Y218000D01*
X52400Y218500D02*X52900Y218000D01*
X50400Y218500D02*X52400D01*
X50400Y214500D02*X52400D01*
X54100Y215000D02*X54600Y214500D01*
X56100D01*
X56600Y215000D01*
Y216000D01*
X54100Y218500D02*X56600Y216000D01*
X54100Y218500D02*X56600D01*
X50500Y230000D02*X52000D01*
X50500Y232000D02*X52500D01*
X50500Y228000D02*Y232000D01*
Y228000D02*X52500D01*
X53700D02*Y232000D01*
Y228000D02*Y228500D01*
X56200Y231000D01*
Y228000D02*Y232000D01*
X51500Y241500D02*X52500D01*
X52000D02*Y245500D01*
X51500D02*X52500D01*
X53700Y241500D02*Y245500D01*
Y241500D02*Y242000D01*
X56200Y244500D01*
Y241500D02*Y245500D01*
X51500Y191500D02*X52500D01*
X52000D02*Y195500D01*
X51500D02*X52500D01*
X53700Y191500D02*Y195500D01*
Y191500D02*Y192000D01*
X56200Y194500D01*
Y191500D02*Y195500D01*
X13500Y192000D02*Y195000D01*
Y192000D02*X14000Y191500D01*
X15000D01*
X15500Y192000D01*
Y195000D01*
X15000Y195500D02*X15500Y195000D01*
X14000Y195500D02*X15000D01*
X13500Y195000D02*X14000Y195500D01*
X16700Y191500D02*Y195000D01*
X17200Y195500D01*
X18200D01*
X18700Y195000D01*
Y191500D02*Y195000D01*
X19900Y191500D02*X21900D01*
X20900D02*Y195500D01*
X15500Y264500D02*X16000Y265000D01*
X14000Y264500D02*X15500D01*
X13500Y265000D02*X14000Y264500D01*
X13500Y265000D02*Y268000D01*
X14000Y268500D01*
X15500D01*
X16000Y268000D01*
Y267000D02*Y268000D01*
X15500Y266500D02*X16000Y267000D01*
X14500Y266500D02*X15500D01*
X17200Y264500D02*Y268500D01*
Y264500D02*Y265000D01*
X19700Y267500D01*
Y264500D02*Y268500D01*
X21400Y264500D02*Y268500D01*
X22900Y264500D02*X23400Y265000D01*
Y268000D01*
X22900Y268500D02*X23400Y268000D01*
X20900Y268500D02*X22900D01*
X20900Y264500D02*X22900D01*
X13500Y229000D02*Y232000D01*
Y229000D02*X14000Y228500D01*
X15000D01*
X15500Y229000D01*
Y232000D01*
X15000Y232500D02*X15500Y232000D01*
X14000Y232500D02*X15000D01*
X13500Y232000D02*X14000Y232500D01*
X16700Y228500D02*Y232000D01*
X17200Y232500D01*
X18200D01*
X18700Y232000D01*
Y228500D02*Y232000D01*
X19900Y228500D02*X21900D01*
X20900D02*Y232500D01*
X23100Y229000D02*X23600Y228500D01*
X25100D01*
X25600Y229000D01*
Y230000D01*
X23100Y232500D02*X25600Y230000D01*
X23100Y232500D02*X25600D01*
X15500Y214500D02*X16000Y215000D01*
X14000Y214500D02*X15500D01*
X13500Y215000D02*X14000Y214500D01*
X13500Y215000D02*Y218000D01*
X14000Y218500D01*
X15500D01*
X16000Y218000D01*
Y217000D02*Y218000D01*
X15500Y216500D02*X16000Y217000D01*
X14500Y216500D02*X15500D01*
X17200Y214500D02*Y218500D01*
Y214500D02*Y215000D01*
X19700Y217500D01*
Y214500D02*Y218500D01*
X21400Y214500D02*Y218500D01*
X22900Y214500D02*X23400Y215000D01*
Y218000D01*
X22900Y218500D02*X23400Y218000D01*
X20900Y218500D02*X22900D01*
X20900Y214500D02*X22900D01*
X13500Y242000D02*Y245000D01*
Y242000D02*X14000Y241500D01*
X15000D01*
X15500Y242000D01*
Y245000D01*
X15000Y245500D02*X15500Y245000D01*
X14000Y245500D02*X15000D01*
X13500Y245000D02*X14000Y245500D01*
X16700Y241500D02*Y245000D01*
X17200Y245500D01*
X18200D01*
X18700Y245000D01*
Y241500D02*Y245000D01*
X19900Y241500D02*X21900D01*
X20900D02*Y245500D01*
X13500Y142000D02*Y145000D01*
Y142000D02*X14000Y141500D01*
X15000D01*
X15500Y142000D01*
Y145000D01*
X15000Y145500D02*X15500Y145000D01*
X14000Y145500D02*X15000D01*
X13500Y145000D02*X14000Y145500D01*
X16700Y141500D02*Y145000D01*
X17200Y145500D01*
X18200D01*
X18700Y145000D01*
Y141500D02*Y145000D01*
X19900Y141500D02*X21900D01*
X20900D02*Y145500D01*
X13500Y92000D02*Y95000D01*
Y92000D02*X14000Y91500D01*
X15000D01*
X15500Y92000D01*
Y95000D01*
X15000Y95500D02*X15500Y95000D01*
X14000Y95500D02*X15000D01*
X13500Y95000D02*X14000Y95500D01*
X16700Y91500D02*Y95000D01*
X17200Y95500D01*
X18200D01*
X18700Y95000D01*
Y91500D02*Y95000D01*
X19900Y91500D02*X21900D01*
X20900D02*Y95500D01*
X13500Y29000D02*Y32000D01*
Y29000D02*X14000Y28500D01*
X15000D01*
X15500Y29000D01*
Y32000D01*
X15000Y32500D02*X15500Y32000D01*
X14000Y32500D02*X15000D01*
X13500Y32000D02*X14000Y32500D01*
X16700Y28500D02*Y32000D01*
X17200Y32500D01*
X18200D01*
X18700Y32000D01*
Y28500D02*Y32000D01*
X19900Y28500D02*X21900D01*
X20900D02*Y32500D01*
X23100Y29000D02*X23600Y28500D01*
X25100D01*
X25600Y29000D01*
Y30000D01*
X23100Y32500D02*X25600Y30000D01*
X23100Y32500D02*X25600D01*
X15500Y14500D02*X16000Y15000D01*
X14000Y14500D02*X15500D01*
X13500Y15000D02*X14000Y14500D01*
X13500Y15000D02*Y18000D01*
X14000Y18500D01*
X15500D01*
X16000Y18000D01*
Y17000D02*Y18000D01*
X15500Y16500D02*X16000Y17000D01*
X14500Y16500D02*X15500D01*
X17200Y14500D02*Y18500D01*
Y14500D02*Y15000D01*
X19700Y17500D01*
Y14500D02*Y18500D01*
X21400Y14500D02*Y18500D01*
X22900Y14500D02*X23400Y15000D01*
Y18000D01*
X22900Y18500D02*X23400Y18000D01*
X20900Y18500D02*X22900D01*
X20900Y14500D02*X22900D01*
X13500Y42000D02*Y45000D01*
Y42000D02*X14000Y41500D01*
X15000D01*
X15500Y42000D01*
Y45000D01*
X15000Y45500D02*X15500Y45000D01*
X14000Y45500D02*X15000D01*
X13500Y45000D02*X14000Y45500D01*
X16700Y41500D02*Y45000D01*
X17200Y45500D01*
X18200D01*
X18700Y45000D01*
Y41500D02*Y45000D01*
X19900Y41500D02*X21900D01*
X20900D02*Y45500D01*
X45000Y164500D02*X45500Y165000D01*
X43500Y164500D02*X45000D01*
X43000Y165000D02*X43500Y164500D01*
X43000Y165000D02*Y168000D01*
X43500Y168500D01*
X45000D01*
X45500Y168000D01*
Y167000D02*Y168000D01*
X45000Y166500D02*X45500Y167000D01*
X44000Y166500D02*X45000D01*
X46700Y164500D02*Y168500D01*
Y164500D02*Y165000D01*
X49200Y167500D01*
Y164500D02*Y168500D01*
X50900Y164500D02*Y168500D01*
X52400Y164500D02*X52900Y165000D01*
Y168000D01*
X52400Y168500D02*X52900Y168000D01*
X50400Y168500D02*X52400D01*
X50400Y164500D02*X52400D01*
X54100Y165000D02*X54600Y164500D01*
X56100D01*
X56600Y165000D01*
Y166000D01*
X54100Y168500D02*X56600Y166000D01*
X54100Y168500D02*X56600D01*
X50500Y180000D02*X52000D01*
X50500Y182000D02*X52500D01*
X50500Y178000D02*Y182000D01*
Y178000D02*X52500D01*
X53700D02*Y182000D01*
Y178000D02*Y178500D01*
X56200Y181000D01*
Y178000D02*Y182000D01*
X13500Y179000D02*Y182000D01*
Y179000D02*X14000Y178500D01*
X15000D01*
X15500Y179000D01*
Y182000D01*
X15000Y182500D02*X15500Y182000D01*
X14000Y182500D02*X15000D01*
X13500Y182000D02*X14000Y182500D01*
X16700Y178500D02*Y182000D01*
X17200Y182500D01*
X18200D01*
X18700Y182000D01*
Y178500D02*Y182000D01*
X19900Y178500D02*X21900D01*
X20900D02*Y182500D01*
X23100Y179000D02*X23600Y178500D01*
X25100D01*
X25600Y179000D01*
Y180000D01*
X23100Y182500D02*X25600Y180000D01*
X23100Y182500D02*X25600D01*
X15500Y164500D02*X16000Y165000D01*
X14000Y164500D02*X15500D01*
X13500Y165000D02*X14000Y164500D01*
X13500Y165000D02*Y168000D01*
X14000Y168500D01*
X15500D01*
X16000Y168000D01*
Y167000D02*Y168000D01*
X15500Y166500D02*X16000Y167000D01*
X14500Y166500D02*X15500D01*
X17200Y164500D02*Y168500D01*
Y164500D02*Y165000D01*
X19700Y167500D01*
Y164500D02*Y168500D01*
X21400Y164500D02*Y168500D01*
X22900Y164500D02*X23400Y165000D01*
Y168000D01*
X22900Y168500D02*X23400Y168000D01*
X20900Y168500D02*X22900D01*
X20900Y164500D02*X22900D01*
X51500Y141500D02*X52500D01*
X52000D02*Y145500D01*
X51500D02*X52500D01*
X53700Y141500D02*Y145500D01*
Y141500D02*Y142000D01*
X56200Y144500D01*
Y141500D02*Y145500D01*
X50500Y130000D02*X52000D01*
X50500Y132000D02*X52500D01*
X50500Y128000D02*Y132000D01*
Y128000D02*X52500D01*
X53700D02*Y132000D01*
Y128000D02*Y128500D01*
X56200Y131000D01*
Y128000D02*Y132000D01*
X45000Y114500D02*X45500Y115000D01*
X43500Y114500D02*X45000D01*
X43000Y115000D02*X43500Y114500D01*
X43000Y115000D02*Y118000D01*
X43500Y118500D01*
X45000D01*
X45500Y118000D01*
Y117000D02*Y118000D01*
X45000Y116500D02*X45500Y117000D01*
X44000Y116500D02*X45000D01*
X46700Y114500D02*Y118500D01*
Y114500D02*Y115000D01*
X49200Y117500D01*
Y114500D02*Y118500D01*
X50900Y114500D02*Y118500D01*
X52400Y114500D02*X52900Y115000D01*
Y118000D01*
X52400Y118500D02*X52900Y118000D01*
X50400Y118500D02*X52400D01*
X50400Y114500D02*X52400D01*
X54100Y115000D02*X54600Y114500D01*
X56100D01*
X56600Y115000D01*
Y116000D01*
X54100Y118500D02*X56600Y116000D01*
X54100Y118500D02*X56600D01*
X13500Y129000D02*Y132000D01*
Y129000D02*X14000Y128500D01*
X15000D01*
X15500Y129000D01*
Y132000D01*
X15000Y132500D02*X15500Y132000D01*
X14000Y132500D02*X15000D01*
X13500Y132000D02*X14000Y132500D01*
X16700Y128500D02*Y132000D01*
X17200Y132500D01*
X18200D01*
X18700Y132000D01*
Y128500D02*Y132000D01*
X19900Y128500D02*X21900D01*
X20900D02*Y132500D01*
X23100Y129000D02*X23600Y128500D01*
X25100D01*
X25600Y129000D01*
Y130000D01*
X23100Y132500D02*X25600Y130000D01*
X23100Y132500D02*X25600D01*
X15500Y114500D02*X16000Y115000D01*
X14000Y114500D02*X15500D01*
X13500Y115000D02*X14000Y114500D01*
X13500Y115000D02*Y118000D01*
X14000Y118500D01*
X15500D01*
X16000Y118000D01*
Y117000D02*Y118000D01*
X15500Y116500D02*X16000Y117000D01*
X14500Y116500D02*X15500D01*
X17200Y114500D02*Y118500D01*
Y114500D02*Y115000D01*
X19700Y117500D01*
Y114500D02*Y118500D01*
X21400Y114500D02*Y118500D01*
X22900Y114500D02*X23400Y115000D01*
Y118000D01*
X22900Y118500D02*X23400Y118000D01*
X20900Y118500D02*X22900D01*
X20900Y114500D02*X22900D01*
X13500Y79000D02*Y82000D01*
Y79000D02*X14000Y78500D01*
X15000D01*
X15500Y79000D01*
Y82000D01*
X15000Y82500D02*X15500Y82000D01*
X14000Y82500D02*X15000D01*
X13500Y82000D02*X14000Y82500D01*
X16700Y78500D02*Y82000D01*
X17200Y82500D01*
X18200D01*
X18700Y82000D01*
Y78500D02*Y82000D01*
X19900Y78500D02*X21900D01*
X20900D02*Y82500D01*
X23100Y79000D02*X23600Y78500D01*
X25100D01*
X25600Y79000D01*
Y80000D01*
X23100Y82500D02*X25600Y80000D01*
X23100Y82500D02*X25600D01*
X15500Y64500D02*X16000Y65000D01*
X14000Y64500D02*X15500D01*
X13500Y65000D02*X14000Y64500D01*
X13500Y65000D02*Y68000D01*
X14000Y68500D01*
X15500D01*
X16000Y68000D01*
Y67000D02*Y68000D01*
X15500Y66500D02*X16000Y67000D01*
X14500Y66500D02*X15500D01*
X17200Y64500D02*Y68500D01*
Y64500D02*Y65000D01*
X19700Y67500D01*
Y64500D02*Y68500D01*
X21400Y64500D02*Y68500D01*
X22900Y64500D02*X23400Y65000D01*
Y68000D01*
X22900Y68500D02*X23400Y68000D01*
X20900Y68500D02*X22900D01*
X20900Y64500D02*X22900D01*
X45000D02*X45500Y65000D01*
X43500Y64500D02*X45000D01*
X43000Y65000D02*X43500Y64500D01*
X43000Y65000D02*Y68000D01*
X43500Y68500D01*
X45000D01*
X45500Y68000D01*
Y67000D02*Y68000D01*
X45000Y66500D02*X45500Y67000D01*
X44000Y66500D02*X45000D01*
X46700Y64500D02*Y68500D01*
Y64500D02*Y65000D01*
X49200Y67500D01*
Y64500D02*Y68500D01*
X50900Y64500D02*Y68500D01*
X52400Y64500D02*X52900Y65000D01*
Y68000D01*
X52400Y68500D02*X52900Y68000D01*
X50400Y68500D02*X52400D01*
X50400Y64500D02*X52400D01*
X54100Y65000D02*X54600Y64500D01*
X56100D01*
X56600Y65000D01*
Y66000D01*
X54100Y68500D02*X56600Y66000D01*
X54100Y68500D02*X56600D01*
X50500Y80000D02*X52000D01*
X50500Y82000D02*X52500D01*
X50500Y78000D02*Y82000D01*
Y78000D02*X52500D01*
X53700D02*Y82000D01*
Y78000D02*Y78500D01*
X56200Y81000D01*
Y78000D02*Y82000D01*
X51500Y91500D02*X52500D01*
X52000D02*Y95500D01*
X51500D02*X52500D01*
X53700Y91500D02*Y95500D01*
Y91500D02*Y92000D01*
X56200Y94500D01*
Y91500D02*Y95500D01*
X51500Y41500D02*X52500D01*
X52000D02*Y45500D01*
X51500D02*X52500D01*
X53700Y41500D02*Y45500D01*
Y41500D02*Y42000D01*
X56200Y44500D01*
Y41500D02*Y45500D01*
X45000Y14500D02*X45500Y15000D01*
X43500Y14500D02*X45000D01*
X43000Y15000D02*X43500Y14500D01*
X43000Y15000D02*Y18000D01*
X43500Y18500D01*
X45000D01*
X45500Y18000D01*
Y17000D02*Y18000D01*
X45000Y16500D02*X45500Y17000D01*
X44000Y16500D02*X45000D01*
X46700Y14500D02*Y18500D01*
Y14500D02*Y15000D01*
X49200Y17500D01*
Y14500D02*Y18500D01*
X50900Y14500D02*Y18500D01*
X52400Y14500D02*X52900Y15000D01*
Y18000D01*
X52400Y18500D02*X52900Y18000D01*
X50400Y18500D02*X52400D01*
X50400Y14500D02*X52400D01*
X54100Y15000D02*X54600Y14500D01*
X56100D01*
X56600Y15000D01*
Y16000D01*
X54100Y18500D02*X56600Y16000D01*
X54100Y18500D02*X56600D01*
X50500Y30000D02*X52000D01*
X50500Y32000D02*X52500D01*
X50500Y28000D02*Y32000D01*
Y28000D02*X52500D01*
X53700D02*Y32000D01*
Y28000D02*Y28500D01*
X56200Y31000D01*
Y28000D02*Y32000D01*
X50500Y430000D02*X52000D01*
X50500Y432000D02*X52500D01*
X50500Y428000D02*Y432000D01*
Y428000D02*X52500D01*
X53700D02*Y432000D01*
Y428000D02*Y428500D01*
X56200Y431000D01*
Y428000D02*Y432000D01*
X45000Y414500D02*X45500Y415000D01*
X43500Y414500D02*X45000D01*
X43000Y415000D02*X43500Y414500D01*
X43000Y415000D02*Y418000D01*
X43500Y418500D01*
X45000D01*
X45500Y418000D01*
Y417000D02*Y418000D01*
X45000Y416500D02*X45500Y417000D01*
X44000Y416500D02*X45000D01*
X46700Y414500D02*Y418500D01*
Y414500D02*Y415000D01*
X49200Y417500D01*
Y414500D02*Y418500D01*
X50900Y414500D02*Y418500D01*
X52400Y414500D02*X52900Y415000D01*
Y418000D01*
X52400Y418500D02*X52900Y418000D01*
X50400Y418500D02*X52400D01*
X50400Y414500D02*X52400D01*
X54100Y415000D02*X54600Y414500D01*
X56100D01*
X56600Y415000D01*
Y416000D01*
X54100Y418500D02*X56600Y416000D01*
X54100Y418500D02*X56600D01*
X13500Y429000D02*Y432000D01*
Y429000D02*X14000Y428500D01*
X15000D01*
X15500Y429000D01*
Y432000D01*
X15000Y432500D02*X15500Y432000D01*
X14000Y432500D02*X15000D01*
X13500Y432000D02*X14000Y432500D01*
X16700Y428500D02*Y432000D01*
X17200Y432500D01*
X18200D01*
X18700Y432000D01*
Y428500D02*Y432000D01*
X19900Y428500D02*X21900D01*
X20900D02*Y432500D01*
X23100Y429000D02*X23600Y428500D01*
X25100D01*
X25600Y429000D01*
Y430000D01*
X23100Y432500D02*X25600Y430000D01*
X23100Y432500D02*X25600D01*
X13500Y442000D02*Y445000D01*
Y442000D02*X14000Y441500D01*
X15000D01*
X15500Y442000D01*
Y445000D01*
X15000Y445500D02*X15500Y445000D01*
X14000Y445500D02*X15000D01*
X13500Y445000D02*X14000Y445500D01*
X16700Y441500D02*Y445000D01*
X17200Y445500D01*
X18200D01*
X18700Y445000D01*
Y441500D02*Y445000D01*
X19900Y441500D02*X21900D01*
X20900D02*Y445500D01*
X51500Y441500D02*X52500D01*
X52000D02*Y445500D01*
X51500D02*X52500D01*
X53700Y441500D02*Y445500D01*
Y441500D02*Y442000D01*
X56200Y444500D01*
Y441500D02*Y445500D01*
X45000Y464500D02*X45500Y465000D01*
X43500Y464500D02*X45000D01*
X43000Y465000D02*X43500Y464500D01*
X43000Y465000D02*Y468000D01*
X43500Y468500D01*
X45000D01*
X45500Y468000D01*
Y467000D02*Y468000D01*
X45000Y466500D02*X45500Y467000D01*
X44000Y466500D02*X45000D01*
X46700Y464500D02*Y468500D01*
Y464500D02*Y465000D01*
X49200Y467500D01*
Y464500D02*Y468500D01*
X50900Y464500D02*Y468500D01*
X52400Y464500D02*X52900Y465000D01*
Y468000D01*
X52400Y468500D02*X52900Y468000D01*
X50400Y468500D02*X52400D01*
X50400Y464500D02*X52400D01*
X54100Y465000D02*X54600Y464500D01*
X56100D01*
X56600Y465000D01*
Y466000D01*
X54100Y468500D02*X56600Y466000D01*
X54100Y468500D02*X56600D01*
X50500Y480000D02*X52000D01*
X50500Y482000D02*X52500D01*
X50500Y478000D02*Y482000D01*
Y478000D02*X52500D01*
X53700D02*Y482000D01*
Y478000D02*Y478500D01*
X56200Y481000D01*
Y478000D02*Y482000D01*
X51500Y491500D02*X52500D01*
X52000D02*Y495500D01*
X51500D02*X52500D01*
X53700Y491500D02*Y495500D01*
Y491500D02*Y492000D01*
X56200Y494500D01*
Y491500D02*Y495500D01*
X13500Y479000D02*Y482000D01*
Y479000D02*X14000Y478500D01*
X15000D01*
X15500Y479000D01*
Y482000D01*
X15000Y482500D02*X15500Y482000D01*
X14000Y482500D02*X15000D01*
X13500Y482000D02*X14000Y482500D01*
X16700Y478500D02*Y482000D01*
X17200Y482500D01*
X18200D01*
X18700Y482000D01*
Y478500D02*Y482000D01*
X19900Y478500D02*X21900D01*
X20900D02*Y482500D01*
X23100Y479000D02*X23600Y478500D01*
X25100D01*
X25600Y479000D01*
Y480000D01*
X23100Y482500D02*X25600Y480000D01*
X23100Y482500D02*X25600D01*
X15500Y464500D02*X16000Y465000D01*
X14000Y464500D02*X15500D01*
X13500Y465000D02*X14000Y464500D01*
X13500Y465000D02*Y468000D01*
X14000Y468500D01*
X15500D01*
X16000Y468000D01*
Y467000D02*Y468000D01*
X15500Y466500D02*X16000Y467000D01*
X14500Y466500D02*X15500D01*
X17200Y464500D02*Y468500D01*
Y464500D02*Y465000D01*
X19700Y467500D01*
Y464500D02*Y468500D01*
X21400Y464500D02*Y468500D01*
X22900Y464500D02*X23400Y465000D01*
Y468000D01*
X22900Y468500D02*X23400Y468000D01*
X20900Y468500D02*X22900D01*
X20900Y464500D02*X22900D01*
X13500Y492000D02*Y495000D01*
Y492000D02*X14000Y491500D01*
X15000D01*
X15500Y492000D01*
Y495000D01*
X15000Y495500D02*X15500Y495000D01*
X14000Y495500D02*X15000D01*
X13500Y495000D02*X14000Y495500D01*
X16700Y491500D02*Y495000D01*
X17200Y495500D01*
X18200D01*
X18700Y495000D01*
Y491500D02*Y495000D01*
X19900Y491500D02*X21900D01*
X20900D02*Y495500D01*
X15500Y414500D02*X16000Y415000D01*
X14000Y414500D02*X15500D01*
X13500Y415000D02*X14000Y414500D01*
X13500Y415000D02*Y418000D01*
X14000Y418500D01*
X15500D01*
X16000Y418000D01*
Y417000D02*Y418000D01*
X15500Y416500D02*X16000Y417000D01*
X14500Y416500D02*X15500D01*
X17200Y414500D02*Y418500D01*
Y414500D02*Y415000D01*
X19700Y417500D01*
Y414500D02*Y418500D01*
X21400Y414500D02*Y418500D01*
X22900Y414500D02*X23400Y415000D01*
Y418000D01*
X22900Y418500D02*X23400Y418000D01*
X20900Y418500D02*X22900D01*
X20900Y414500D02*X22900D01*
X45000Y364500D02*X45500Y365000D01*
X43500Y364500D02*X45000D01*
X43000Y365000D02*X43500Y364500D01*
X43000Y365000D02*Y368000D01*
X43500Y368500D01*
X45000D01*
X45500Y368000D01*
Y367000D02*Y368000D01*
X45000Y366500D02*X45500Y367000D01*
X44000Y366500D02*X45000D01*
X46700Y364500D02*Y368500D01*
Y364500D02*Y365000D01*
X49200Y367500D01*
Y364500D02*Y368500D01*
X50900Y364500D02*Y368500D01*
X52400Y364500D02*X52900Y365000D01*
Y368000D01*
X52400Y368500D02*X52900Y368000D01*
X50400Y368500D02*X52400D01*
X50400Y364500D02*X52400D01*
X54100Y365000D02*X54600Y364500D01*
X56100D01*
X56600Y365000D01*
Y366000D01*
X54100Y368500D02*X56600Y366000D01*
X54100Y368500D02*X56600D01*
X50500Y380000D02*X52000D01*
X50500Y382000D02*X52500D01*
X50500Y378000D02*Y382000D01*
Y378000D02*X52500D01*
X53700D02*Y382000D01*
Y378000D02*Y378500D01*
X56200Y381000D01*
Y378000D02*Y382000D01*
X51500Y391500D02*X52500D01*
X52000D02*Y395500D01*
X51500D02*X52500D01*
X53700Y391500D02*Y395500D01*
Y391500D02*Y392000D01*
X56200Y394500D01*
Y391500D02*Y395500D01*
X13500Y379000D02*Y382000D01*
Y379000D02*X14000Y378500D01*
X15000D01*
X15500Y379000D01*
Y382000D01*
X15000Y382500D02*X15500Y382000D01*
X14000Y382500D02*X15000D01*
X13500Y382000D02*X14000Y382500D01*
X16700Y378500D02*Y382000D01*
X17200Y382500D01*
X18200D01*
X18700Y382000D01*
Y378500D02*Y382000D01*
X19900Y378500D02*X21900D01*
X20900D02*Y382500D01*
X23100Y379000D02*X23600Y378500D01*
X25100D01*
X25600Y379000D01*
Y380000D01*
X23100Y382500D02*X25600Y380000D01*
X23100Y382500D02*X25600D01*
X15500Y364500D02*X16000Y365000D01*
X14000Y364500D02*X15500D01*
X13500Y365000D02*X14000Y364500D01*
X13500Y365000D02*Y368000D01*
X14000Y368500D01*
X15500D01*
X16000Y368000D01*
Y367000D02*Y368000D01*
X15500Y366500D02*X16000Y367000D01*
X14500Y366500D02*X15500D01*
X17200Y364500D02*Y368500D01*
Y364500D02*Y365000D01*
X19700Y367500D01*
Y364500D02*Y368500D01*
X21400Y364500D02*Y368500D01*
X22900Y364500D02*X23400Y365000D01*
Y368000D01*
X22900Y368500D02*X23400Y368000D01*
X20900Y368500D02*X22900D01*
X20900Y364500D02*X22900D01*
X13500Y392000D02*Y395000D01*
Y392000D02*X14000Y391500D01*
X15000D01*
X15500Y392000D01*
Y395000D01*
X15000Y395500D02*X15500Y395000D01*
X14000Y395500D02*X15000D01*
X13500Y395000D02*X14000Y395500D01*
X16700Y391500D02*Y395000D01*
X17200Y395500D01*
X18200D01*
X18700Y395000D01*
Y391500D02*Y395000D01*
X19900Y391500D02*X21900D01*
X20900D02*Y395500D01*
M02*
