G04 start of page 10 for group -4078 idx -4078 *
G04 Title: (unknown), bottomsilk *
G04 Creator: pcb 4.0.2 *
G04 CreationDate: Mon Aug 16 16:10:31 2021 UTC *
G04 For: ndholmes *
G04 Format: Gerber/RS-274X *
G04 PCB-Dimensions (mil): 700.00 5100.00 *
G04 PCB-Coordinate-Origin: lower left *
%MOIN*%
%FSLAX25Y25*%
%LNBOTTOMSILK*%
%ADD40C,0.0060*%
G54D40*X47460Y271650D02*X48615D01*
X49000Y272035D02*X48615Y271650D01*
X49000Y272035D02*Y274345D01*
X48615Y274730D01*
X47460D02*X48615D01*
X46536Y271650D02*Y274730D01*
Y273190D02*X44996Y274730D01*
X46536Y273190D02*X44996Y271650D01*
X42532Y274730D02*X44072D01*
X43302Y271650D02*Y274730D01*
X40068Y273190D02*X41608D01*
X39144Y271650D02*Y274345D01*
X38759Y274730D01*
X37604D02*X38759D01*
X37604D02*X37219Y274345D01*
Y271650D02*Y274345D01*
Y273190D02*X39144D01*
X35910Y271650D02*Y274730D01*
X34755D02*X36295D01*
X34755D02*X34370Y274345D01*
Y273575D02*Y274345D01*
X34755Y273190D02*X34370Y273575D01*
X34755Y273190D02*X35910D01*
X32291Y274730D02*X31906Y274345D01*
X32291Y274730D02*X33061D01*
X33446Y274345D02*X33061Y274730D01*
X33446Y272035D02*Y274345D01*
Y272035D02*X33061Y271650D01*
X32291Y273190D02*X31906Y272805D01*
X32291Y273190D02*X33446D01*
X32291Y271650D02*X33061D01*
X32291D02*X31906Y272035D01*
Y272805D01*
X30982Y274345D02*X30597Y274730D01*
X29827D02*X30597D01*
X29827D02*X29442Y274345D01*
Y272035D02*Y274345D01*
X29827Y271650D02*X29442Y272035D01*
X29827Y271650D02*X30597D01*
X30982Y272035D02*X30597Y271650D01*
X29442Y273190D02*X30597D01*
X28518Y274345D02*X28133Y274730D01*
X26978D02*X28133D01*
X26978D02*X26593Y274345D01*
Y273575D02*Y274345D01*
X28518Y271650D02*X26593Y273575D01*
Y271650D02*X28518D01*
X25669Y272035D02*X25284Y271650D01*
X25669Y272035D02*Y274345D01*
X25284Y274730D01*
X24514D02*X25284D01*
X24514D02*X24129Y274345D01*
Y272035D02*Y274345D01*
X24514Y271650D02*X24129Y272035D01*
X24514Y271650D02*X25284D01*
X25669Y272420D02*X24129Y273960D01*
X23205Y273190D02*X21665Y271650D01*
X23205D02*X21665Y273190D01*
X40000Y278420D02*Y279190D01*
Y278420D02*X39230Y277650D01*
X38460Y278420D01*
Y279190D01*
X36381Y277650D02*X37151D01*
X36766D02*Y280730D01*
X37536Y279960D02*X36766Y280730D01*
X35072Y277650D02*X35457D01*
X32993D02*X33763D01*
X33378D02*Y280730D01*
X34148Y279960D02*X33378Y280730D01*
X47460Y221650D02*X48615D01*
X49000Y222035D02*X48615Y221650D01*
X49000Y222035D02*Y224345D01*
X48615Y224730D01*
X47460D02*X48615D01*
X46536Y221650D02*Y224730D01*
Y223190D02*X44996Y224730D01*
X46536Y223190D02*X44996Y221650D01*
X42532Y224730D02*X44072D01*
X43302Y221650D02*Y224730D01*
X40068Y223190D02*X41608D01*
X39144Y221650D02*Y224345D01*
X38759Y224730D01*
X37604D02*X38759D01*
X37604D02*X37219Y224345D01*
Y221650D02*Y224345D01*
Y223190D02*X39144D01*
X35910Y221650D02*Y224730D01*
X34755D02*X36295D01*
X34755D02*X34370Y224345D01*
Y223575D02*Y224345D01*
X34755Y223190D02*X34370Y223575D01*
X34755Y223190D02*X35910D01*
X32291Y224730D02*X31906Y224345D01*
X32291Y224730D02*X33061D01*
X33446Y224345D02*X33061Y224730D01*
X33446Y222035D02*Y224345D01*
Y222035D02*X33061Y221650D01*
X32291Y223190D02*X31906Y222805D01*
X32291Y223190D02*X33446D01*
X32291Y221650D02*X33061D01*
X32291D02*X31906Y222035D01*
Y222805D01*
X30982Y224345D02*X30597Y224730D01*
X29827D02*X30597D01*
X29827D02*X29442Y224345D01*
Y222035D02*Y224345D01*
X29827Y221650D02*X29442Y222035D01*
X29827Y221650D02*X30597D01*
X30982Y222035D02*X30597Y221650D01*
X29442Y223190D02*X30597D01*
X28518Y224345D02*X28133Y224730D01*
X26978D02*X28133D01*
X26978D02*X26593Y224345D01*
Y223575D02*Y224345D01*
X28518Y221650D02*X26593Y223575D01*
Y221650D02*X28518D01*
X25669Y222035D02*X25284Y221650D01*
X25669Y222035D02*Y224345D01*
X25284Y224730D01*
X24514D02*X25284D01*
X24514D02*X24129Y224345D01*
Y222035D02*Y224345D01*
X24514Y221650D02*X24129Y222035D01*
X24514Y221650D02*X25284D01*
X25669Y222420D02*X24129Y223960D01*
X23205Y223190D02*X21665Y221650D01*
X23205D02*X21665Y223190D01*
X47460Y171650D02*X48615D01*
X49000Y172035D02*X48615Y171650D01*
X49000Y172035D02*Y174345D01*
X48615Y174730D01*
X47460D02*X48615D01*
X46536Y171650D02*Y174730D01*
Y173190D02*X44996Y174730D01*
X46536Y173190D02*X44996Y171650D01*
X42532Y174730D02*X44072D01*
X43302Y171650D02*Y174730D01*
X40068Y173190D02*X41608D01*
X39144Y171650D02*Y174345D01*
X38759Y174730D01*
X37604D02*X38759D01*
X37604D02*X37219Y174345D01*
Y171650D02*Y174345D01*
Y173190D02*X39144D01*
X35910Y171650D02*Y174730D01*
X34755D02*X36295D01*
X34755D02*X34370Y174345D01*
Y173575D02*Y174345D01*
X34755Y173190D02*X34370Y173575D01*
X34755Y173190D02*X35910D01*
X32291Y174730D02*X31906Y174345D01*
X32291Y174730D02*X33061D01*
X33446Y174345D02*X33061Y174730D01*
X33446Y172035D02*Y174345D01*
Y172035D02*X33061Y171650D01*
X32291Y173190D02*X31906Y172805D01*
X32291Y173190D02*X33446D01*
X32291Y171650D02*X33061D01*
X32291D02*X31906Y172035D01*
Y172805D01*
X30982Y174345D02*X30597Y174730D01*
X29827D02*X30597D01*
X29827D02*X29442Y174345D01*
Y172035D02*Y174345D01*
X29827Y171650D02*X29442Y172035D01*
X29827Y171650D02*X30597D01*
X30982Y172035D02*X30597Y171650D01*
X29442Y173190D02*X30597D01*
X28518Y174345D02*X28133Y174730D01*
X26978D02*X28133D01*
X26978D02*X26593Y174345D01*
Y173575D02*Y174345D01*
X28518Y171650D02*X26593Y173575D01*
Y171650D02*X28518D01*
X25669Y172035D02*X25284Y171650D01*
X25669Y172035D02*Y174345D01*
X25284Y174730D01*
X24514D02*X25284D01*
X24514D02*X24129Y174345D01*
Y172035D02*Y174345D01*
X24514Y171650D02*X24129Y172035D01*
X24514Y171650D02*X25284D01*
X25669Y172420D02*X24129Y173960D01*
X23205Y173190D02*X21665Y171650D01*
X23205D02*X21665Y173190D01*
X40000Y178420D02*Y179190D01*
Y178420D02*X39230Y177650D01*
X38460Y178420D01*
Y179190D01*
X36381Y177650D02*X37151D01*
X36766D02*Y180730D01*
X37536Y179960D02*X36766Y180730D01*
X35072Y177650D02*X35457D01*
X32993D02*X33763D01*
X33378D02*Y180730D01*
X34148Y179960D02*X33378Y180730D01*
X40000Y228420D02*Y229190D01*
Y228420D02*X39230Y227650D01*
X38460Y228420D01*
Y229190D01*
X36381Y227650D02*X37151D01*
X36766D02*Y230730D01*
X37536Y229960D02*X36766Y230730D01*
X35072Y227650D02*X35457D01*
X32993D02*X33763D01*
X33378D02*Y230730D01*
X34148Y229960D02*X33378Y230730D01*
X47460Y121650D02*X48615D01*
X49000Y122035D02*X48615Y121650D01*
X49000Y122035D02*Y124345D01*
X48615Y124730D01*
X47460D02*X48615D01*
X46536Y121650D02*Y124730D01*
Y123190D02*X44996Y124730D01*
X46536Y123190D02*X44996Y121650D01*
X42532Y124730D02*X44072D01*
X43302Y121650D02*Y124730D01*
X40068Y123190D02*X41608D01*
X39144Y121650D02*Y124345D01*
X38759Y124730D01*
X37604D02*X38759D01*
X37604D02*X37219Y124345D01*
Y121650D02*Y124345D01*
Y123190D02*X39144D01*
X35910Y121650D02*Y124730D01*
X34755D02*X36295D01*
X34755D02*X34370Y124345D01*
Y123575D02*Y124345D01*
X34755Y123190D02*X34370Y123575D01*
X34755Y123190D02*X35910D01*
X32291Y124730D02*X31906Y124345D01*
X32291Y124730D02*X33061D01*
X33446Y124345D02*X33061Y124730D01*
X33446Y122035D02*Y124345D01*
Y122035D02*X33061Y121650D01*
X32291Y123190D02*X31906Y122805D01*
X32291Y123190D02*X33446D01*
X32291Y121650D02*X33061D01*
X32291D02*X31906Y122035D01*
Y122805D01*
X30982Y124345D02*X30597Y124730D01*
X29827D02*X30597D01*
X29827D02*X29442Y124345D01*
Y122035D02*Y124345D01*
X29827Y121650D02*X29442Y122035D01*
X29827Y121650D02*X30597D01*
X30982Y122035D02*X30597Y121650D01*
X29442Y123190D02*X30597D01*
X28518Y124345D02*X28133Y124730D01*
X26978D02*X28133D01*
X26978D02*X26593Y124345D01*
Y123575D02*Y124345D01*
X28518Y121650D02*X26593Y123575D01*
Y121650D02*X28518D01*
X25669Y122035D02*X25284Y121650D01*
X25669Y122035D02*Y124345D01*
X25284Y124730D01*
X24514D02*X25284D01*
X24514D02*X24129Y124345D01*
Y122035D02*Y124345D01*
X24514Y121650D02*X24129Y122035D01*
X24514Y121650D02*X25284D01*
X25669Y122420D02*X24129Y123960D01*
X23205Y123190D02*X21665Y121650D01*
X23205D02*X21665Y123190D01*
X40000Y128420D02*Y129190D01*
Y128420D02*X39230Y127650D01*
X38460Y128420D01*
Y129190D01*
X36381Y127650D02*X37151D01*
X36766D02*Y130730D01*
X37536Y129960D02*X36766Y130730D01*
X35072Y127650D02*X35457D01*
X32993D02*X33763D01*
X33378D02*Y130730D01*
X34148Y129960D02*X33378Y130730D01*
X47460Y71650D02*X48615D01*
X49000Y72035D02*X48615Y71650D01*
X49000Y72035D02*Y74345D01*
X48615Y74730D01*
X47460D02*X48615D01*
X46536Y71650D02*Y74730D01*
Y73190D02*X44996Y74730D01*
X46536Y73190D02*X44996Y71650D01*
X42532Y74730D02*X44072D01*
X43302Y71650D02*Y74730D01*
X40068Y73190D02*X41608D01*
X39144Y71650D02*Y74345D01*
X38759Y74730D01*
X37604D02*X38759D01*
X37604D02*X37219Y74345D01*
Y71650D02*Y74345D01*
Y73190D02*X39144D01*
X35910Y71650D02*Y74730D01*
X34755D02*X36295D01*
X34755D02*X34370Y74345D01*
Y73575D02*Y74345D01*
X34755Y73190D02*X34370Y73575D01*
X34755Y73190D02*X35910D01*
X32291Y74730D02*X31906Y74345D01*
X32291Y74730D02*X33061D01*
X33446Y74345D02*X33061Y74730D01*
X33446Y72035D02*Y74345D01*
Y72035D02*X33061Y71650D01*
X32291Y73190D02*X31906Y72805D01*
X32291Y73190D02*X33446D01*
X32291Y71650D02*X33061D01*
X32291D02*X31906Y72035D01*
Y72805D01*
X30982Y74345D02*X30597Y74730D01*
X29827D02*X30597D01*
X29827D02*X29442Y74345D01*
Y72035D02*Y74345D01*
X29827Y71650D02*X29442Y72035D01*
X29827Y71650D02*X30597D01*
X30982Y72035D02*X30597Y71650D01*
X29442Y73190D02*X30597D01*
X28518Y74345D02*X28133Y74730D01*
X26978D02*X28133D01*
X26978D02*X26593Y74345D01*
Y73575D02*Y74345D01*
X28518Y71650D02*X26593Y73575D01*
Y71650D02*X28518D01*
X25669Y72035D02*X25284Y71650D01*
X25669Y72035D02*Y74345D01*
X25284Y74730D01*
X24514D02*X25284D01*
X24514D02*X24129Y74345D01*
Y72035D02*Y74345D01*
X24514Y71650D02*X24129Y72035D01*
X24514Y71650D02*X25284D01*
X25669Y72420D02*X24129Y73960D01*
X23205Y73190D02*X21665Y71650D01*
X23205D02*X21665Y73190D01*
X40000Y78420D02*Y79190D01*
Y78420D02*X39230Y77650D01*
X38460Y78420D01*
Y79190D01*
X36381Y77650D02*X37151D01*
X36766D02*Y80730D01*
X37536Y79960D02*X36766Y80730D01*
X35072Y77650D02*X35457D01*
X32993D02*X33763D01*
X33378D02*Y80730D01*
X34148Y79960D02*X33378Y80730D01*
X47460Y21650D02*X48615D01*
X49000Y22035D02*X48615Y21650D01*
X49000Y22035D02*Y24345D01*
X48615Y24730D01*
X47460D02*X48615D01*
X46536Y21650D02*Y24730D01*
Y23190D02*X44996Y24730D01*
X46536Y23190D02*X44996Y21650D01*
X42532Y24730D02*X44072D01*
X43302Y21650D02*Y24730D01*
X40068Y23190D02*X41608D01*
X39144Y21650D02*Y24345D01*
X38759Y24730D01*
X37604D02*X38759D01*
X37604D02*X37219Y24345D01*
Y21650D02*Y24345D01*
Y23190D02*X39144D01*
X35910Y21650D02*Y24730D01*
X34755D02*X36295D01*
X34755D02*X34370Y24345D01*
Y23575D02*Y24345D01*
X34755Y23190D02*X34370Y23575D01*
X34755Y23190D02*X35910D01*
X32291Y24730D02*X31906Y24345D01*
X32291Y24730D02*X33061D01*
X33446Y24345D02*X33061Y24730D01*
X33446Y22035D02*Y24345D01*
Y22035D02*X33061Y21650D01*
X32291Y23190D02*X31906Y22805D01*
X32291Y23190D02*X33446D01*
X32291Y21650D02*X33061D01*
X32291D02*X31906Y22035D01*
Y22805D01*
X30982Y24345D02*X30597Y24730D01*
X29827D02*X30597D01*
X29827D02*X29442Y24345D01*
Y22035D02*Y24345D01*
X29827Y21650D02*X29442Y22035D01*
X29827Y21650D02*X30597D01*
X30982Y22035D02*X30597Y21650D01*
X29442Y23190D02*X30597D01*
X28518Y24345D02*X28133Y24730D01*
X26978D02*X28133D01*
X26978D02*X26593Y24345D01*
Y23575D02*Y24345D01*
X28518Y21650D02*X26593Y23575D01*
Y21650D02*X28518D01*
X25669Y22035D02*X25284Y21650D01*
X25669Y22035D02*Y24345D01*
X25284Y24730D01*
X24514D02*X25284D01*
X24514D02*X24129Y24345D01*
Y22035D02*Y24345D01*
X24514Y21650D02*X24129Y22035D01*
X24514Y21650D02*X25284D01*
X25669Y22420D02*X24129Y23960D01*
X23205Y23190D02*X21665Y21650D01*
X23205D02*X21665Y23190D01*
X40000Y28420D02*Y29190D01*
Y28420D02*X39230Y27650D01*
X38460Y28420D01*
Y29190D01*
X36381Y27650D02*X37151D01*
X36766D02*Y30730D01*
X37536Y29960D02*X36766Y30730D01*
X35072Y27650D02*X35457D01*
X32993D02*X33763D01*
X33378D02*Y30730D01*
X34148Y29960D02*X33378Y30730D01*
X47460Y371650D02*X48615D01*
X49000Y372035D02*X48615Y371650D01*
X49000Y372035D02*Y374345D01*
X48615Y374730D01*
X47460D02*X48615D01*
X46536Y371650D02*Y374730D01*
Y373190D02*X44996Y374730D01*
X46536Y373190D02*X44996Y371650D01*
X42532Y374730D02*X44072D01*
X43302Y371650D02*Y374730D01*
X40068Y373190D02*X41608D01*
X39144Y371650D02*Y374345D01*
X38759Y374730D01*
X37604D02*X38759D01*
X37604D02*X37219Y374345D01*
Y371650D02*Y374345D01*
Y373190D02*X39144D01*
X35910Y371650D02*Y374730D01*
X34755D02*X36295D01*
X34755D02*X34370Y374345D01*
Y373575D02*Y374345D01*
X34755Y373190D02*X34370Y373575D01*
X34755Y373190D02*X35910D01*
X32291Y374730D02*X31906Y374345D01*
X32291Y374730D02*X33061D01*
X33446Y374345D02*X33061Y374730D01*
X33446Y372035D02*Y374345D01*
Y372035D02*X33061Y371650D01*
X32291Y373190D02*X31906Y372805D01*
X32291Y373190D02*X33446D01*
X32291Y371650D02*X33061D01*
X32291D02*X31906Y372035D01*
Y372805D01*
X30982Y374345D02*X30597Y374730D01*
X29827D02*X30597D01*
X29827D02*X29442Y374345D01*
Y372035D02*Y374345D01*
X29827Y371650D02*X29442Y372035D01*
X29827Y371650D02*X30597D01*
X30982Y372035D02*X30597Y371650D01*
X29442Y373190D02*X30597D01*
X28518Y374345D02*X28133Y374730D01*
X26978D02*X28133D01*
X26978D02*X26593Y374345D01*
Y373575D02*Y374345D01*
X28518Y371650D02*X26593Y373575D01*
Y371650D02*X28518D01*
X25669Y372035D02*X25284Y371650D01*
X25669Y372035D02*Y374345D01*
X25284Y374730D01*
X24514D02*X25284D01*
X24514D02*X24129Y374345D01*
Y372035D02*Y374345D01*
X24514Y371650D02*X24129Y372035D01*
X24514Y371650D02*X25284D01*
X25669Y372420D02*X24129Y373960D01*
X23205Y373190D02*X21665Y371650D01*
X23205D02*X21665Y373190D01*
X40000Y378420D02*Y379190D01*
Y378420D02*X39230Y377650D01*
X38460Y378420D01*
Y379190D01*
X36381Y377650D02*X37151D01*
X36766D02*Y380730D01*
X37536Y379960D02*X36766Y380730D01*
X35072Y377650D02*X35457D01*
X32993D02*X33763D01*
X33378D02*Y380730D01*
X34148Y379960D02*X33378Y380730D01*
X47460Y321650D02*X48615D01*
X49000Y322035D02*X48615Y321650D01*
X49000Y322035D02*Y324345D01*
X48615Y324730D01*
X47460D02*X48615D01*
X46536Y321650D02*Y324730D01*
Y323190D02*X44996Y324730D01*
X46536Y323190D02*X44996Y321650D01*
X42532Y324730D02*X44072D01*
X43302Y321650D02*Y324730D01*
X40068Y323190D02*X41608D01*
X39144Y321650D02*Y324345D01*
X38759Y324730D01*
X37604D02*X38759D01*
X37604D02*X37219Y324345D01*
Y321650D02*Y324345D01*
Y323190D02*X39144D01*
X35910Y321650D02*Y324730D01*
X34755D02*X36295D01*
X34755D02*X34370Y324345D01*
Y323575D02*Y324345D01*
X34755Y323190D02*X34370Y323575D01*
X34755Y323190D02*X35910D01*
X32291Y324730D02*X31906Y324345D01*
X32291Y324730D02*X33061D01*
X33446Y324345D02*X33061Y324730D01*
X33446Y322035D02*Y324345D01*
Y322035D02*X33061Y321650D01*
X32291Y323190D02*X31906Y322805D01*
X32291Y323190D02*X33446D01*
X32291Y321650D02*X33061D01*
X32291D02*X31906Y322035D01*
Y322805D01*
X30982Y324345D02*X30597Y324730D01*
X29827D02*X30597D01*
X29827D02*X29442Y324345D01*
Y322035D02*Y324345D01*
X29827Y321650D02*X29442Y322035D01*
X29827Y321650D02*X30597D01*
X30982Y322035D02*X30597Y321650D01*
X29442Y323190D02*X30597D01*
X28518Y324345D02*X28133Y324730D01*
X26978D02*X28133D01*
X26978D02*X26593Y324345D01*
Y323575D02*Y324345D01*
X28518Y321650D02*X26593Y323575D01*
Y321650D02*X28518D01*
X25669Y322035D02*X25284Y321650D01*
X25669Y322035D02*Y324345D01*
X25284Y324730D01*
X24514D02*X25284D01*
X24514D02*X24129Y324345D01*
Y322035D02*Y324345D01*
X24514Y321650D02*X24129Y322035D01*
X24514Y321650D02*X25284D01*
X25669Y322420D02*X24129Y323960D01*
X23205Y323190D02*X21665Y321650D01*
X23205D02*X21665Y323190D01*
X40000Y328420D02*Y329190D01*
Y328420D02*X39230Y327650D01*
X38460Y328420D01*
Y329190D01*
X36381Y327650D02*X37151D01*
X36766D02*Y330730D01*
X37536Y329960D02*X36766Y330730D01*
X35072Y327650D02*X35457D01*
X32993D02*X33763D01*
X33378D02*Y330730D01*
X34148Y329960D02*X33378Y330730D01*
X47460Y471650D02*X48615D01*
X49000Y472035D02*X48615Y471650D01*
X49000Y472035D02*Y474345D01*
X48615Y474730D01*
X47460D02*X48615D01*
X46536Y471650D02*Y474730D01*
Y473190D02*X44996Y474730D01*
X46536Y473190D02*X44996Y471650D01*
X42532Y474730D02*X44072D01*
X43302Y471650D02*Y474730D01*
X40068Y473190D02*X41608D01*
X39144Y471650D02*Y474345D01*
X38759Y474730D01*
X37604D02*X38759D01*
X37604D02*X37219Y474345D01*
Y471650D02*Y474345D01*
Y473190D02*X39144D01*
X35910Y471650D02*Y474730D01*
X34755D02*X36295D01*
X34755D02*X34370Y474345D01*
Y473575D02*Y474345D01*
X34755Y473190D02*X34370Y473575D01*
X34755Y473190D02*X35910D01*
X32291Y474730D02*X31906Y474345D01*
X32291Y474730D02*X33061D01*
X33446Y474345D02*X33061Y474730D01*
X33446Y472035D02*Y474345D01*
Y472035D02*X33061Y471650D01*
X32291Y473190D02*X31906Y472805D01*
X32291Y473190D02*X33446D01*
X32291Y471650D02*X33061D01*
X32291D02*X31906Y472035D01*
Y472805D01*
X30982Y474345D02*X30597Y474730D01*
X29827D02*X30597D01*
X29827D02*X29442Y474345D01*
Y472035D02*Y474345D01*
X29827Y471650D02*X29442Y472035D01*
X29827Y471650D02*X30597D01*
X30982Y472035D02*X30597Y471650D01*
X29442Y473190D02*X30597D01*
X28518Y474345D02*X28133Y474730D01*
X26978D02*X28133D01*
X26978D02*X26593Y474345D01*
Y473575D02*Y474345D01*
X28518Y471650D02*X26593Y473575D01*
Y471650D02*X28518D01*
X25669Y472035D02*X25284Y471650D01*
X25669Y472035D02*Y474345D01*
X25284Y474730D01*
X24514D02*X25284D01*
X24514D02*X24129Y474345D01*
Y472035D02*Y474345D01*
X24514Y471650D02*X24129Y472035D01*
X24514Y471650D02*X25284D01*
X25669Y472420D02*X24129Y473960D01*
X23205Y473190D02*X21665Y471650D01*
X23205D02*X21665Y473190D01*
X40000Y478420D02*Y479190D01*
Y478420D02*X39230Y477650D01*
X38460Y478420D01*
Y479190D01*
X36381Y477650D02*X37151D01*
X36766D02*Y480730D01*
X37536Y479960D02*X36766Y480730D01*
X35072Y477650D02*X35457D01*
X32993D02*X33763D01*
X33378D02*Y480730D01*
X34148Y479960D02*X33378Y480730D01*
X47460Y421650D02*X48615D01*
X49000Y422035D02*X48615Y421650D01*
X49000Y422035D02*Y424345D01*
X48615Y424730D01*
X47460D02*X48615D01*
X46536Y421650D02*Y424730D01*
Y423190D02*X44996Y424730D01*
X46536Y423190D02*X44996Y421650D01*
X42532Y424730D02*X44072D01*
X43302Y421650D02*Y424730D01*
X40068Y423190D02*X41608D01*
X39144Y421650D02*Y424345D01*
X38759Y424730D01*
X37604D02*X38759D01*
X37604D02*X37219Y424345D01*
Y421650D02*Y424345D01*
Y423190D02*X39144D01*
X35910Y421650D02*Y424730D01*
X34755D02*X36295D01*
X34755D02*X34370Y424345D01*
Y423575D02*Y424345D01*
X34755Y423190D02*X34370Y423575D01*
X34755Y423190D02*X35910D01*
X32291Y424730D02*X31906Y424345D01*
X32291Y424730D02*X33061D01*
X33446Y424345D02*X33061Y424730D01*
X33446Y422035D02*Y424345D01*
Y422035D02*X33061Y421650D01*
X32291Y423190D02*X31906Y422805D01*
X32291Y423190D02*X33446D01*
X32291Y421650D02*X33061D01*
X32291D02*X31906Y422035D01*
Y422805D01*
X30982Y424345D02*X30597Y424730D01*
X29827D02*X30597D01*
X29827D02*X29442Y424345D01*
Y422035D02*Y424345D01*
X29827Y421650D02*X29442Y422035D01*
X29827Y421650D02*X30597D01*
X30982Y422035D02*X30597Y421650D01*
X29442Y423190D02*X30597D01*
X28518Y424345D02*X28133Y424730D01*
X26978D02*X28133D01*
X26978D02*X26593Y424345D01*
Y423575D02*Y424345D01*
X28518Y421650D02*X26593Y423575D01*
Y421650D02*X28518D01*
X25669Y422035D02*X25284Y421650D01*
X25669Y422035D02*Y424345D01*
X25284Y424730D01*
X24514D02*X25284D01*
X24514D02*X24129Y424345D01*
Y422035D02*Y424345D01*
X24514Y421650D02*X24129Y422035D01*
X24514Y421650D02*X25284D01*
X25669Y422420D02*X24129Y423960D01*
X23205Y423190D02*X21665Y421650D01*
X23205D02*X21665Y423190D01*
X40000Y428420D02*Y429190D01*
Y428420D02*X39230Y427650D01*
X38460Y428420D01*
Y429190D01*
X36381Y427650D02*X37151D01*
X36766D02*Y430730D01*
X37536Y429960D02*X36766Y430730D01*
X35072Y427650D02*X35457D01*
X32993D02*X33763D01*
X33378D02*Y430730D01*
X34148Y429960D02*X33378Y430730D01*
X53000Y280000D02*X54500D01*
X52500Y278000D02*X54500D01*
Y282000D01*
X52500D02*X54500D01*
X51300Y278000D02*Y282000D01*
Y281500D02*Y282000D01*
Y281500D02*X48800Y279000D01*
Y278000D02*Y282000D01*
X53500Y295500D02*X54500D01*
X54000Y291500D02*Y295500D01*
X53500Y291500D02*X54500D01*
X52300D02*Y295500D01*
Y295000D02*Y295500D01*
Y295000D02*X49800Y292500D01*
Y291500D02*Y295500D01*
X23500Y268500D02*X23000Y268000D01*
X23500Y268500D02*X25000D01*
X25500Y268000D02*X25000Y268500D01*
X25500Y265000D02*Y268000D01*
Y265000D02*X25000Y264500D01*
X23500D02*X25000D01*
X23500D02*X23000Y265000D01*
Y266000D01*
X23500Y266500D02*X23000Y266000D01*
X23500Y266500D02*X24500D01*
X21800Y264500D02*Y268500D01*
Y268000D02*Y268500D01*
Y268000D02*X19300Y265500D01*
Y264500D02*Y268500D01*
X17600Y264500D02*Y268500D01*
X16100D02*X15600Y268000D01*
Y265000D02*Y268000D01*
X16100Y264500D02*X15600Y265000D01*
X16100Y264500D02*X18100D01*
X16100Y268500D02*X18100D01*
X24000Y292000D02*Y295000D01*
X23500Y295500D01*
X22500D02*X23500D01*
X22500D02*X22000Y295000D01*
Y292000D02*Y295000D01*
X22500Y291500D02*X22000Y292000D01*
X22500Y291500D02*X23500D01*
X24000Y292000D02*X23500Y291500D01*
X20800Y292000D02*Y295500D01*
Y292000D02*X20300Y291500D01*
X19300D02*X20300D01*
X19300D02*X18800Y292000D01*
Y295500D01*
X15600D02*X17600D01*
X16600Y291500D02*Y295500D01*
X53000Y230000D02*X54500D01*
X52500Y228000D02*X54500D01*
Y232000D01*
X52500D02*X54500D01*
X51300Y228000D02*Y232000D01*
Y231500D02*Y232000D01*
Y231500D02*X48800Y229000D01*
Y228000D02*Y232000D01*
X53500Y245500D02*X54500D01*
X54000Y241500D02*Y245500D01*
X53500Y241500D02*X54500D01*
X52300D02*Y245500D01*
Y245000D02*Y245500D01*
Y245000D02*X49800Y242500D01*
Y241500D02*Y245500D01*
X24000Y242000D02*Y245000D01*
X23500Y245500D01*
X22500D02*X23500D01*
X22500D02*X22000Y245000D01*
Y242000D02*Y245000D01*
X22500Y241500D02*X22000Y242000D01*
X22500Y241500D02*X23500D01*
X24000Y242000D02*X23500Y241500D01*
X20800Y242000D02*Y245500D01*
Y242000D02*X20300Y241500D01*
X19300D02*X20300D01*
X19300D02*X18800Y242000D01*
Y245500D01*
X15600D02*X17600D01*
X16600Y241500D02*Y245500D01*
X23500Y218500D02*X23000Y218000D01*
X23500Y218500D02*X25000D01*
X25500Y218000D02*X25000Y218500D01*
X25500Y215000D02*Y218000D01*
Y215000D02*X25000Y214500D01*
X23500D02*X25000D01*
X23500D02*X23000Y215000D01*
Y216000D01*
X23500Y216500D02*X23000Y216000D01*
X23500Y216500D02*X24500D01*
X21800Y214500D02*Y218500D01*
Y218000D02*Y218500D01*
Y218000D02*X19300Y215500D01*
Y214500D02*Y218500D01*
X17600Y214500D02*Y218500D01*
X16100D02*X15600Y218000D01*
Y215000D02*Y218000D01*
X16100Y214500D02*X15600Y215000D01*
X16100Y214500D02*X18100D01*
X16100Y218500D02*X18100D01*
X24000Y192000D02*Y195000D01*
X23500Y195500D01*
X22500D02*X23500D01*
X22500D02*X22000Y195000D01*
Y192000D02*Y195000D01*
X22500Y191500D02*X22000Y192000D01*
X22500Y191500D02*X23500D01*
X24000Y192000D02*X23500Y191500D01*
X20800Y192000D02*Y195500D01*
Y192000D02*X20300Y191500D01*
X19300D02*X20300D01*
X19300D02*X18800Y192000D01*
Y195500D01*
X15600D02*X17600D01*
X16600Y191500D02*Y195500D01*
X53500D02*X54500D01*
X54000Y191500D02*Y195500D01*
X53500Y191500D02*X54500D01*
X52300D02*Y195500D01*
Y195000D02*Y195500D01*
Y195000D02*X49800Y192500D01*
Y191500D02*Y195500D01*
X53000Y180000D02*X54500D01*
X52500Y178000D02*X54500D01*
Y182000D01*
X52500D02*X54500D01*
X51300Y178000D02*Y182000D01*
Y181500D02*Y182000D01*
Y181500D02*X48800Y179000D01*
Y178000D02*Y182000D01*
X23500Y168500D02*X23000Y168000D01*
X23500Y168500D02*X25000D01*
X25500Y168000D02*X25000Y168500D01*
X25500Y165000D02*Y168000D01*
Y165000D02*X25000Y164500D01*
X23500D02*X25000D01*
X23500D02*X23000Y165000D01*
Y166000D01*
X23500Y166500D02*X23000Y166000D01*
X23500Y166500D02*X24500D01*
X21800Y164500D02*Y168500D01*
Y168000D02*Y168500D01*
Y168000D02*X19300Y165500D01*
Y164500D02*Y168500D01*
X17600Y164500D02*Y168500D01*
X16100D02*X15600Y168000D01*
Y165000D02*Y168000D01*
X16100Y164500D02*X15600Y165000D01*
X16100Y164500D02*X18100D01*
X16100Y168500D02*X18100D01*
X53000Y130000D02*X54500D01*
X52500Y128000D02*X54500D01*
Y132000D01*
X52500D02*X54500D01*
X51300Y128000D02*Y132000D01*
Y131500D02*Y132000D01*
Y131500D02*X48800Y129000D01*
Y128000D02*Y132000D01*
X53500Y145500D02*X54500D01*
X54000Y141500D02*Y145500D01*
X53500Y141500D02*X54500D01*
X52300D02*Y145500D01*
Y145000D02*Y145500D01*
Y145000D02*X49800Y142500D01*
Y141500D02*Y145500D01*
X24000Y142000D02*Y145000D01*
X23500Y145500D01*
X22500D02*X23500D01*
X22500D02*X22000Y145000D01*
Y142000D02*Y145000D01*
X22500Y141500D02*X22000Y142000D01*
X22500Y141500D02*X23500D01*
X24000Y142000D02*X23500Y141500D01*
X20800Y142000D02*Y145500D01*
Y142000D02*X20300Y141500D01*
X19300D02*X20300D01*
X19300D02*X18800Y142000D01*
Y145500D01*
X15600D02*X17600D01*
X16600Y141500D02*Y145500D01*
X23500Y118500D02*X23000Y118000D01*
X23500Y118500D02*X25000D01*
X25500Y118000D02*X25000Y118500D01*
X25500Y115000D02*Y118000D01*
Y115000D02*X25000Y114500D01*
X23500D02*X25000D01*
X23500D02*X23000Y115000D01*
Y116000D01*
X23500Y116500D02*X23000Y116000D01*
X23500Y116500D02*X24500D01*
X21800Y114500D02*Y118500D01*
Y118000D02*Y118500D01*
Y118000D02*X19300Y115500D01*
Y114500D02*Y118500D01*
X17600Y114500D02*Y118500D01*
X16100D02*X15600Y118000D01*
Y115000D02*Y118000D01*
X16100Y114500D02*X15600Y115000D01*
X16100Y114500D02*X18100D01*
X16100Y118500D02*X18100D01*
X24000Y92000D02*Y95000D01*
X23500Y95500D01*
X22500D02*X23500D01*
X22500D02*X22000Y95000D01*
Y92000D02*Y95000D01*
X22500Y91500D02*X22000Y92000D01*
X22500Y91500D02*X23500D01*
X24000Y92000D02*X23500Y91500D01*
X20800Y92000D02*Y95500D01*
Y92000D02*X20300Y91500D01*
X19300D02*X20300D01*
X19300D02*X18800Y92000D01*
Y95500D01*
X15600D02*X17600D01*
X16600Y91500D02*Y95500D01*
X53500D02*X54500D01*
X54000Y91500D02*Y95500D01*
X53500Y91500D02*X54500D01*
X52300D02*Y95500D01*
Y95000D02*Y95500D01*
Y95000D02*X49800Y92500D01*
Y91500D02*Y95500D01*
X53000Y80000D02*X54500D01*
X52500Y78000D02*X54500D01*
Y82000D01*
X52500D02*X54500D01*
X51300Y78000D02*Y82000D01*
Y81500D02*Y82000D01*
Y81500D02*X48800Y79000D01*
Y78000D02*Y82000D01*
X23500Y68500D02*X23000Y68000D01*
X23500Y68500D02*X25000D01*
X25500Y68000D02*X25000Y68500D01*
X25500Y65000D02*Y68000D01*
Y65000D02*X25000Y64500D01*
X23500D02*X25000D01*
X23500D02*X23000Y65000D01*
Y66000D01*
X23500Y66500D02*X23000Y66000D01*
X23500Y66500D02*X24500D01*
X21800Y64500D02*Y68500D01*
Y68000D02*Y68500D01*
Y68000D02*X19300Y65500D01*
Y64500D02*Y68500D01*
X17600Y64500D02*Y68500D01*
X16100D02*X15600Y68000D01*
Y65000D02*Y68000D01*
X16100Y64500D02*X15600Y65000D01*
X16100Y64500D02*X18100D01*
X16100Y68500D02*X18100D01*
X24000Y42000D02*Y45000D01*
X23500Y45500D01*
X22500D02*X23500D01*
X22500D02*X22000Y45000D01*
Y42000D02*Y45000D01*
X22500Y41500D02*X22000Y42000D01*
X22500Y41500D02*X23500D01*
X24000Y42000D02*X23500Y41500D01*
X20800Y42000D02*Y45500D01*
Y42000D02*X20300Y41500D01*
X19300D02*X20300D01*
X19300D02*X18800Y42000D01*
Y45500D01*
X15600D02*X17600D01*
X16600Y41500D02*Y45500D01*
X23500Y18500D02*X23000Y18000D01*
X23500Y18500D02*X25000D01*
X25500Y18000D02*X25000Y18500D01*
X25500Y15000D02*Y18000D01*
Y15000D02*X25000Y14500D01*
X23500D02*X25000D01*
X23500D02*X23000Y15000D01*
Y16000D01*
X23500Y16500D02*X23000Y16000D01*
X23500Y16500D02*X24500D01*
X21800Y14500D02*Y18500D01*
Y18000D02*Y18500D01*
Y18000D02*X19300Y15500D01*
Y14500D02*Y18500D01*
X17600Y14500D02*Y18500D01*
X16100D02*X15600Y18000D01*
Y15000D02*Y18000D01*
X16100Y14500D02*X15600Y15000D01*
X16100Y14500D02*X18100D01*
X16100Y18500D02*X18100D01*
X53000Y30000D02*X54500D01*
X52500Y28000D02*X54500D01*
Y32000D01*
X52500D02*X54500D01*
X51300Y28000D02*Y32000D01*
Y31500D02*Y32000D01*
Y31500D02*X48800Y29000D01*
Y28000D02*Y32000D01*
X53500Y45500D02*X54500D01*
X54000Y41500D02*Y45500D01*
X53500Y41500D02*X54500D01*
X52300D02*Y45500D01*
Y45000D02*Y45500D01*
Y45000D02*X49800Y42500D01*
Y41500D02*Y45500D01*
X23500Y468500D02*X23000Y468000D01*
X23500Y468500D02*X25000D01*
X25500Y468000D02*X25000Y468500D01*
X25500Y465000D02*Y468000D01*
Y465000D02*X25000Y464500D01*
X23500D02*X25000D01*
X23500D02*X23000Y465000D01*
Y466000D01*
X23500Y466500D02*X23000Y466000D01*
X23500Y466500D02*X24500D01*
X21800Y464500D02*Y468500D01*
Y468000D02*Y468500D01*
Y468000D02*X19300Y465500D01*
Y464500D02*Y468500D01*
X17600Y464500D02*Y468500D01*
X16100D02*X15600Y468000D01*
Y465000D02*Y468000D01*
X16100Y464500D02*X15600Y465000D01*
X16100Y464500D02*X18100D01*
X16100Y468500D02*X18100D01*
X53000Y430000D02*X54500D01*
X52500Y428000D02*X54500D01*
Y432000D01*
X52500D02*X54500D01*
X51300Y428000D02*Y432000D01*
Y431500D02*Y432000D01*
Y431500D02*X48800Y429000D01*
Y428000D02*Y432000D01*
X53500Y445500D02*X54500D01*
X54000Y441500D02*Y445500D01*
X53500Y441500D02*X54500D01*
X52300D02*Y445500D01*
Y445000D02*Y445500D01*
Y445000D02*X49800Y442500D01*
Y441500D02*Y445500D01*
X23500Y418500D02*X23000Y418000D01*
X23500Y418500D02*X25000D01*
X25500Y418000D02*X25000Y418500D01*
X25500Y415000D02*Y418000D01*
Y415000D02*X25000Y414500D01*
X23500D02*X25000D01*
X23500D02*X23000Y415000D01*
Y416000D01*
X23500Y416500D02*X23000Y416000D01*
X23500Y416500D02*X24500D01*
X21800Y414500D02*Y418500D01*
Y418000D02*Y418500D01*
Y418000D02*X19300Y415500D01*
Y414500D02*Y418500D01*
X17600Y414500D02*Y418500D01*
X16100D02*X15600Y418000D01*
Y415000D02*Y418000D01*
X16100Y414500D02*X15600Y415000D01*
X16100Y414500D02*X18100D01*
X16100Y418500D02*X18100D01*
X24000Y442000D02*Y445000D01*
X23500Y445500D01*
X22500D02*X23500D01*
X22500D02*X22000Y445000D01*
Y442000D02*Y445000D01*
X22500Y441500D02*X22000Y442000D01*
X22500Y441500D02*X23500D01*
X24000Y442000D02*X23500Y441500D01*
X20800Y442000D02*Y445500D01*
Y442000D02*X20300Y441500D01*
X19300D02*X20300D01*
X19300D02*X18800Y442000D01*
Y445500D01*
X15600D02*X17600D01*
X16600Y441500D02*Y445500D01*
X24000Y492000D02*Y495000D01*
X23500Y495500D01*
X22500D02*X23500D01*
X22500D02*X22000Y495000D01*
Y492000D02*Y495000D01*
X22500Y491500D02*X22000Y492000D01*
X22500Y491500D02*X23500D01*
X24000Y492000D02*X23500Y491500D01*
X20800Y492000D02*Y495500D01*
Y492000D02*X20300Y491500D01*
X19300D02*X20300D01*
X19300D02*X18800Y492000D01*
Y495500D01*
X15600D02*X17600D01*
X16600Y491500D02*Y495500D01*
X53000Y480000D02*X54500D01*
X52500Y478000D02*X54500D01*
Y482000D01*
X52500D02*X54500D01*
X51300Y478000D02*Y482000D01*
Y481500D02*Y482000D01*
Y481500D02*X48800Y479000D01*
Y478000D02*Y482000D01*
X53500Y495500D02*X54500D01*
X54000Y491500D02*Y495500D01*
X53500Y491500D02*X54500D01*
X52300D02*Y495500D01*
Y495000D02*Y495500D01*
Y495000D02*X49800Y492500D01*
Y491500D02*Y495500D01*
X24000Y392000D02*Y395000D01*
X23500Y395500D01*
X22500D02*X23500D01*
X22500D02*X22000Y395000D01*
Y392000D02*Y395000D01*
X22500Y391500D02*X22000Y392000D01*
X22500Y391500D02*X23500D01*
X24000Y392000D02*X23500Y391500D01*
X20800Y392000D02*Y395500D01*
Y392000D02*X20300Y391500D01*
X19300D02*X20300D01*
X19300D02*X18800Y392000D01*
Y395500D01*
X15600D02*X17600D01*
X16600Y391500D02*Y395500D01*
X23500Y368500D02*X23000Y368000D01*
X23500Y368500D02*X25000D01*
X25500Y368000D02*X25000Y368500D01*
X25500Y365000D02*Y368000D01*
Y365000D02*X25000Y364500D01*
X23500D02*X25000D01*
X23500D02*X23000Y365000D01*
Y366000D01*
X23500Y366500D02*X23000Y366000D01*
X23500Y366500D02*X24500D01*
X21800Y364500D02*Y368500D01*
Y368000D02*Y368500D01*
Y368000D02*X19300Y365500D01*
Y364500D02*Y368500D01*
X17600Y364500D02*Y368500D01*
X16100D02*X15600Y368000D01*
Y365000D02*Y368000D01*
X16100Y364500D02*X15600Y365000D01*
X16100Y364500D02*X18100D01*
X16100Y368500D02*X18100D01*
X24000Y342000D02*Y345000D01*
X23500Y345500D01*
X22500D02*X23500D01*
X22500D02*X22000Y345000D01*
Y342000D02*Y345000D01*
X22500Y341500D02*X22000Y342000D01*
X22500Y341500D02*X23500D01*
X24000Y342000D02*X23500Y341500D01*
X20800Y342000D02*Y345500D01*
Y342000D02*X20300Y341500D01*
X19300D02*X20300D01*
X19300D02*X18800Y342000D01*
Y345500D01*
X15600D02*X17600D01*
X16600Y341500D02*Y345500D01*
X53000Y380000D02*X54500D01*
X52500Y378000D02*X54500D01*
Y382000D01*
X52500D02*X54500D01*
X51300Y378000D02*Y382000D01*
Y381500D02*Y382000D01*
Y381500D02*X48800Y379000D01*
Y378000D02*Y382000D01*
X53500Y395500D02*X54500D01*
X54000Y391500D02*Y395500D01*
X53500Y391500D02*X54500D01*
X52300D02*Y395500D01*
Y395000D02*Y395500D01*
Y395000D02*X49800Y392500D01*
Y391500D02*Y395500D01*
X53000Y330000D02*X54500D01*
X52500Y328000D02*X54500D01*
Y332000D01*
X52500D02*X54500D01*
X51300Y328000D02*Y332000D01*
Y331500D02*Y332000D01*
Y331500D02*X48800Y329000D01*
Y328000D02*Y332000D01*
X53500Y345500D02*X54500D01*
X54000Y341500D02*Y345500D01*
X53500Y341500D02*X54500D01*
X52300D02*Y345500D01*
Y345000D02*Y345500D01*
Y345000D02*X49800Y342500D01*
Y341500D02*Y345500D01*
X23500Y318500D02*X23000Y318000D01*
X23500Y318500D02*X25000D01*
X25500Y318000D02*X25000Y318500D01*
X25500Y315000D02*Y318000D01*
Y315000D02*X25000Y314500D01*
X23500D02*X25000D01*
X23500D02*X23000Y315000D01*
Y316000D01*
X23500Y316500D02*X23000Y316000D01*
X23500Y316500D02*X24500D01*
X21800Y314500D02*Y318500D01*
Y318000D02*Y318500D01*
Y318000D02*X19300Y315500D01*
Y314500D02*Y318500D01*
X17600Y314500D02*Y318500D01*
X16100D02*X15600Y318000D01*
Y315000D02*Y318000D01*
X16100Y314500D02*X15600Y315000D01*
X16100Y314500D02*X18100D01*
X16100Y318500D02*X18100D01*
M02*
