G04 start of page 11 for group -4015 idx -4015 *
G04 Title: (unknown), toppaste *
G04 Creator: pcb 4.0.2 *
G04 CreationDate: Mon Aug 16 16:10:31 2021 UTC *
G04 For: ndholmes *
G04 Format: Gerber/RS-274X *
G04 PCB-Dimensions (mil): 700.00 5100.00 *
G04 PCB-Coordinate-Origin: lower left *
%MOIN*%
%FSLAX25Y25*%
%LNTOPPASTE*%
%ADD41C,0.0001*%
G54D41*G36*
X18016Y496952D02*X12898D01*
Y491048D01*
X18016D01*
Y496952D01*
G37*
G36*
X25102D02*X19984D01*
Y491048D01*
X25102D01*
Y496952D01*
G37*
G36*
X40102D02*X34984D01*
Y491048D01*
X40102D01*
Y496952D01*
G37*
G36*
X33016D02*X27898D01*
Y491048D01*
X33016D01*
Y496952D01*
G37*
G36*
X51500Y476200D02*Y473800D01*
X55500D01*
Y476200D01*
X51500D01*
G37*
G36*
Y480100D02*Y477700D01*
X55500D01*
Y480100D01*
X51500D01*
G37*
G36*
Y484000D02*Y481600D01*
X55500D01*
Y484000D01*
X51500D01*
G37*
G36*
X43300D02*Y481600D01*
X47300D01*
Y484000D01*
X43300D01*
G37*
G36*
Y480100D02*Y477700D01*
X47300D01*
Y480100D01*
X43300D01*
G37*
G36*
Y476200D02*Y473800D01*
X47300D01*
Y476200D01*
X43300D01*
G37*
G36*
X54602Y469452D02*X49484D01*
Y463548D01*
X54602D01*
Y469452D01*
G37*
G36*
X47516D02*X42398D01*
Y463548D01*
X47516D01*
Y469452D01*
G37*
G36*
X14150Y465450D02*Y463150D01*
X37850D01*
Y465450D01*
X14150D01*
G37*
G36*
X37850Y471050D02*X35550D01*
Y463150D01*
X37850D01*
Y471050D01*
G37*
G36*
X16450D02*X14150D01*
Y463150D01*
X16450D01*
Y471050D01*
G37*
G36*
X14150Y486850D02*Y484550D01*
X37850D01*
Y486850D01*
X14150D01*
G37*
G36*
X37850D02*X35550D01*
Y478950D01*
X37850D01*
Y486850D01*
G37*
G36*
X16450D02*X14150D01*
Y478950D01*
X16450D01*
Y486850D01*
G37*
G36*
X37671Y468923D02*X35550Y471044D01*
X29956Y465450D01*
X32077Y463329D01*
X37671Y468923D01*
G37*
G36*
X16450Y471044D02*X14329Y468923D01*
X19923Y463329D01*
X22044Y465450D01*
X16450Y471044D01*
G37*
G36*
X32077Y486671D02*X29956Y484550D01*
X35550Y478956D01*
X37671Y481077D01*
X32077Y486671D01*
G37*
G36*
X22044Y484550D02*X19923Y486671D01*
X14329Y481077D01*
X16450Y478956D01*
X22044Y484550D01*
G37*
G36*
X33750Y467250D02*Y463650D01*
X37350D01*
Y467250D01*
X33750D01*
G37*
G36*
X14650D02*Y463650D01*
X18250D01*
Y467250D01*
X14650D01*
G37*
G36*
X33750Y486350D02*Y482750D01*
X37350D01*
Y486350D01*
X33750D01*
G37*
G36*
X14650D02*Y482750D01*
X18250D01*
Y486350D01*
X14650D01*
G37*
G36*
X55102Y493952D02*X49984D01*
Y488048D01*
X55102D01*
Y493952D01*
G37*
G36*
X48016D02*X42898D01*
Y488048D01*
X48016D01*
Y493952D01*
G37*
G36*
X18016Y446952D02*X12898D01*
Y441048D01*
X18016D01*
Y446952D01*
G37*
G36*
X25102D02*X19984D01*
Y441048D01*
X25102D01*
Y446952D01*
G37*
G36*
X40102D02*X34984D01*
Y441048D01*
X40102D01*
Y446952D01*
G37*
G36*
X33016D02*X27898D01*
Y441048D01*
X33016D01*
Y446952D01*
G37*
G36*
X51500Y426200D02*Y423800D01*
X55500D01*
Y426200D01*
X51500D01*
G37*
G36*
Y430100D02*Y427700D01*
X55500D01*
Y430100D01*
X51500D01*
G37*
G36*
Y434000D02*Y431600D01*
X55500D01*
Y434000D01*
X51500D01*
G37*
G36*
X43300D02*Y431600D01*
X47300D01*
Y434000D01*
X43300D01*
G37*
G36*
Y430100D02*Y427700D01*
X47300D01*
Y430100D01*
X43300D01*
G37*
G36*
Y426200D02*Y423800D01*
X47300D01*
Y426200D01*
X43300D01*
G37*
G36*
X54602Y419452D02*X49484D01*
Y413548D01*
X54602D01*
Y419452D01*
G37*
G36*
X47516D02*X42398D01*
Y413548D01*
X47516D01*
Y419452D01*
G37*
G36*
X14150Y415450D02*Y413150D01*
X37850D01*
Y415450D01*
X14150D01*
G37*
G36*
X37850Y421050D02*X35550D01*
Y413150D01*
X37850D01*
Y421050D01*
G37*
G36*
X16450D02*X14150D01*
Y413150D01*
X16450D01*
Y421050D01*
G37*
G36*
X14150Y436850D02*Y434550D01*
X37850D01*
Y436850D01*
X14150D01*
G37*
G36*
X37850D02*X35550D01*
Y428950D01*
X37850D01*
Y436850D01*
G37*
G36*
X16450D02*X14150D01*
Y428950D01*
X16450D01*
Y436850D01*
G37*
G36*
X37671Y418923D02*X35550Y421044D01*
X29956Y415450D01*
X32077Y413329D01*
X37671Y418923D01*
G37*
G36*
X16450Y421044D02*X14329Y418923D01*
X19923Y413329D01*
X22044Y415450D01*
X16450Y421044D01*
G37*
G36*
X32077Y436671D02*X29956Y434550D01*
X35550Y428956D01*
X37671Y431077D01*
X32077Y436671D01*
G37*
G36*
X22044Y434550D02*X19923Y436671D01*
X14329Y431077D01*
X16450Y428956D01*
X22044Y434550D01*
G37*
G36*
X33750Y417250D02*Y413650D01*
X37350D01*
Y417250D01*
X33750D01*
G37*
G36*
X14650D02*Y413650D01*
X18250D01*
Y417250D01*
X14650D01*
G37*
G36*
X33750Y436350D02*Y432750D01*
X37350D01*
Y436350D01*
X33750D01*
G37*
G36*
X14650D02*Y432750D01*
X18250D01*
Y436350D01*
X14650D01*
G37*
G36*
X55102Y443952D02*X49984D01*
Y438048D01*
X55102D01*
Y443952D01*
G37*
G36*
X48016D02*X42898D01*
Y438048D01*
X48016D01*
Y443952D01*
G37*
G36*
X18016Y396952D02*X12898D01*
Y391048D01*
X18016D01*
Y396952D01*
G37*
G36*
X25102D02*X19984D01*
Y391048D01*
X25102D01*
Y396952D01*
G37*
G36*
X40102D02*X34984D01*
Y391048D01*
X40102D01*
Y396952D01*
G37*
G36*
X33016D02*X27898D01*
Y391048D01*
X33016D01*
Y396952D01*
G37*
G36*
X51500Y376200D02*Y373800D01*
X55500D01*
Y376200D01*
X51500D01*
G37*
G36*
Y380100D02*Y377700D01*
X55500D01*
Y380100D01*
X51500D01*
G37*
G36*
Y384000D02*Y381600D01*
X55500D01*
Y384000D01*
X51500D01*
G37*
G36*
X43300D02*Y381600D01*
X47300D01*
Y384000D01*
X43300D01*
G37*
G36*
Y380100D02*Y377700D01*
X47300D01*
Y380100D01*
X43300D01*
G37*
G36*
Y376200D02*Y373800D01*
X47300D01*
Y376200D01*
X43300D01*
G37*
G36*
X54602Y369452D02*X49484D01*
Y363548D01*
X54602D01*
Y369452D01*
G37*
G36*
X47516D02*X42398D01*
Y363548D01*
X47516D01*
Y369452D01*
G37*
G36*
X14150Y365450D02*Y363150D01*
X37850D01*
Y365450D01*
X14150D01*
G37*
G36*
X37850Y371050D02*X35550D01*
Y363150D01*
X37850D01*
Y371050D01*
G37*
G36*
X16450D02*X14150D01*
Y363150D01*
X16450D01*
Y371050D01*
G37*
G36*
X14150Y386850D02*Y384550D01*
X37850D01*
Y386850D01*
X14150D01*
G37*
G36*
X37850D02*X35550D01*
Y378950D01*
X37850D01*
Y386850D01*
G37*
G36*
X16450D02*X14150D01*
Y378950D01*
X16450D01*
Y386850D01*
G37*
G36*
X37671Y368923D02*X35550Y371044D01*
X29956Y365450D01*
X32077Y363329D01*
X37671Y368923D01*
G37*
G36*
X16450Y371044D02*X14329Y368923D01*
X19923Y363329D01*
X22044Y365450D01*
X16450Y371044D01*
G37*
G36*
X32077Y386671D02*X29956Y384550D01*
X35550Y378956D01*
X37671Y381077D01*
X32077Y386671D01*
G37*
G36*
X22044Y384550D02*X19923Y386671D01*
X14329Y381077D01*
X16450Y378956D01*
X22044Y384550D01*
G37*
G36*
X33750Y367250D02*Y363650D01*
X37350D01*
Y367250D01*
X33750D01*
G37*
G36*
X14650D02*Y363650D01*
X18250D01*
Y367250D01*
X14650D01*
G37*
G36*
X33750Y386350D02*Y382750D01*
X37350D01*
Y386350D01*
X33750D01*
G37*
G36*
X14650D02*Y382750D01*
X18250D01*
Y386350D01*
X14650D01*
G37*
G36*
X55102Y393952D02*X49984D01*
Y388048D01*
X55102D01*
Y393952D01*
G37*
G36*
X48016D02*X42898D01*
Y388048D01*
X48016D01*
Y393952D01*
G37*
G36*
X18016Y346952D02*X12898D01*
Y341048D01*
X18016D01*
Y346952D01*
G37*
G36*
X25102D02*X19984D01*
Y341048D01*
X25102D01*
Y346952D01*
G37*
G36*
X40102D02*X34984D01*
Y341048D01*
X40102D01*
Y346952D01*
G37*
G36*
X33016D02*X27898D01*
Y341048D01*
X33016D01*
Y346952D01*
G37*
G36*
X51500Y326200D02*Y323800D01*
X55500D01*
Y326200D01*
X51500D01*
G37*
G36*
Y330100D02*Y327700D01*
X55500D01*
Y330100D01*
X51500D01*
G37*
G36*
Y334000D02*Y331600D01*
X55500D01*
Y334000D01*
X51500D01*
G37*
G36*
X43300D02*Y331600D01*
X47300D01*
Y334000D01*
X43300D01*
G37*
G36*
Y330100D02*Y327700D01*
X47300D01*
Y330100D01*
X43300D01*
G37*
G36*
Y326200D02*Y323800D01*
X47300D01*
Y326200D01*
X43300D01*
G37*
G36*
X54602Y319452D02*X49484D01*
Y313548D01*
X54602D01*
Y319452D01*
G37*
G36*
X47516D02*X42398D01*
Y313548D01*
X47516D01*
Y319452D01*
G37*
G36*
X14150Y315450D02*Y313150D01*
X37850D01*
Y315450D01*
X14150D01*
G37*
G36*
X37850Y321050D02*X35550D01*
Y313150D01*
X37850D01*
Y321050D01*
G37*
G36*
X16450D02*X14150D01*
Y313150D01*
X16450D01*
Y321050D01*
G37*
G36*
X14150Y336850D02*Y334550D01*
X37850D01*
Y336850D01*
X14150D01*
G37*
G36*
X37850D02*X35550D01*
Y328950D01*
X37850D01*
Y336850D01*
G37*
G36*
X16450D02*X14150D01*
Y328950D01*
X16450D01*
Y336850D01*
G37*
G36*
X37671Y318923D02*X35550Y321044D01*
X29956Y315450D01*
X32077Y313329D01*
X37671Y318923D01*
G37*
G36*
X16450Y321044D02*X14329Y318923D01*
X19923Y313329D01*
X22044Y315450D01*
X16450Y321044D01*
G37*
G36*
X32077Y336671D02*X29956Y334550D01*
X35550Y328956D01*
X37671Y331077D01*
X32077Y336671D01*
G37*
G36*
X22044Y334550D02*X19923Y336671D01*
X14329Y331077D01*
X16450Y328956D01*
X22044Y334550D01*
G37*
G36*
X33750Y317250D02*Y313650D01*
X37350D01*
Y317250D01*
X33750D01*
G37*
G36*
X14650D02*Y313650D01*
X18250D01*
Y317250D01*
X14650D01*
G37*
G36*
X33750Y336350D02*Y332750D01*
X37350D01*
Y336350D01*
X33750D01*
G37*
G36*
X14650D02*Y332750D01*
X18250D01*
Y336350D01*
X14650D01*
G37*
G36*
X55102Y343952D02*X49984D01*
Y338048D01*
X55102D01*
Y343952D01*
G37*
G36*
X48016D02*X42898D01*
Y338048D01*
X48016D01*
Y343952D01*
G37*
G36*
X18016Y296952D02*X12898D01*
Y291048D01*
X18016D01*
Y296952D01*
G37*
G36*
X25102D02*X19984D01*
Y291048D01*
X25102D01*
Y296952D01*
G37*
G36*
X40102D02*X34984D01*
Y291048D01*
X40102D01*
Y296952D01*
G37*
G36*
X33016D02*X27898D01*
Y291048D01*
X33016D01*
Y296952D01*
G37*
G36*
X51500Y276200D02*Y273800D01*
X55500D01*
Y276200D01*
X51500D01*
G37*
G36*
Y280100D02*Y277700D01*
X55500D01*
Y280100D01*
X51500D01*
G37*
G36*
Y284000D02*Y281600D01*
X55500D01*
Y284000D01*
X51500D01*
G37*
G36*
X43300D02*Y281600D01*
X47300D01*
Y284000D01*
X43300D01*
G37*
G36*
Y280100D02*Y277700D01*
X47300D01*
Y280100D01*
X43300D01*
G37*
G36*
Y276200D02*Y273800D01*
X47300D01*
Y276200D01*
X43300D01*
G37*
G36*
X54602Y269452D02*X49484D01*
Y263548D01*
X54602D01*
Y269452D01*
G37*
G36*
X47516D02*X42398D01*
Y263548D01*
X47516D01*
Y269452D01*
G37*
G36*
X14150Y265450D02*Y263150D01*
X37850D01*
Y265450D01*
X14150D01*
G37*
G36*
X37850Y271050D02*X35550D01*
Y263150D01*
X37850D01*
Y271050D01*
G37*
G36*
X16450D02*X14150D01*
Y263150D01*
X16450D01*
Y271050D01*
G37*
G36*
X14150Y286850D02*Y284550D01*
X37850D01*
Y286850D01*
X14150D01*
G37*
G36*
X37850D02*X35550D01*
Y278950D01*
X37850D01*
Y286850D01*
G37*
G36*
X16450D02*X14150D01*
Y278950D01*
X16450D01*
Y286850D01*
G37*
G36*
X37671Y268923D02*X35550Y271044D01*
X29956Y265450D01*
X32077Y263329D01*
X37671Y268923D01*
G37*
G36*
X16450Y271044D02*X14329Y268923D01*
X19923Y263329D01*
X22044Y265450D01*
X16450Y271044D01*
G37*
G36*
X32077Y286671D02*X29956Y284550D01*
X35550Y278956D01*
X37671Y281077D01*
X32077Y286671D01*
G37*
G36*
X22044Y284550D02*X19923Y286671D01*
X14329Y281077D01*
X16450Y278956D01*
X22044Y284550D01*
G37*
G36*
X33750Y267250D02*Y263650D01*
X37350D01*
Y267250D01*
X33750D01*
G37*
G36*
X14650D02*Y263650D01*
X18250D01*
Y267250D01*
X14650D01*
G37*
G36*
X33750Y286350D02*Y282750D01*
X37350D01*
Y286350D01*
X33750D01*
G37*
G36*
X14650D02*Y282750D01*
X18250D01*
Y286350D01*
X14650D01*
G37*
G36*
X55102Y293952D02*X49984D01*
Y288048D01*
X55102D01*
Y293952D01*
G37*
G36*
X48016D02*X42898D01*
Y288048D01*
X48016D01*
Y293952D01*
G37*
G36*
X18016Y246952D02*X12898D01*
Y241048D01*
X18016D01*
Y246952D01*
G37*
G36*
X25102D02*X19984D01*
Y241048D01*
X25102D01*
Y246952D01*
G37*
G36*
X40102D02*X34984D01*
Y241048D01*
X40102D01*
Y246952D01*
G37*
G36*
X33016D02*X27898D01*
Y241048D01*
X33016D01*
Y246952D01*
G37*
G36*
X51500Y226200D02*Y223800D01*
X55500D01*
Y226200D01*
X51500D01*
G37*
G36*
Y230100D02*Y227700D01*
X55500D01*
Y230100D01*
X51500D01*
G37*
G36*
Y234000D02*Y231600D01*
X55500D01*
Y234000D01*
X51500D01*
G37*
G36*
X43300D02*Y231600D01*
X47300D01*
Y234000D01*
X43300D01*
G37*
G36*
Y230100D02*Y227700D01*
X47300D01*
Y230100D01*
X43300D01*
G37*
G36*
Y226200D02*Y223800D01*
X47300D01*
Y226200D01*
X43300D01*
G37*
G36*
X54602Y219452D02*X49484D01*
Y213548D01*
X54602D01*
Y219452D01*
G37*
G36*
X47516D02*X42398D01*
Y213548D01*
X47516D01*
Y219452D01*
G37*
G36*
X14150Y215450D02*Y213150D01*
X37850D01*
Y215450D01*
X14150D01*
G37*
G36*
X37850Y221050D02*X35550D01*
Y213150D01*
X37850D01*
Y221050D01*
G37*
G36*
X16450D02*X14150D01*
Y213150D01*
X16450D01*
Y221050D01*
G37*
G36*
X14150Y236850D02*Y234550D01*
X37850D01*
Y236850D01*
X14150D01*
G37*
G36*
X37850D02*X35550D01*
Y228950D01*
X37850D01*
Y236850D01*
G37*
G36*
X16450D02*X14150D01*
Y228950D01*
X16450D01*
Y236850D01*
G37*
G36*
X37671Y218923D02*X35550Y221044D01*
X29956Y215450D01*
X32077Y213329D01*
X37671Y218923D01*
G37*
G36*
X16450Y221044D02*X14329Y218923D01*
X19923Y213329D01*
X22044Y215450D01*
X16450Y221044D01*
G37*
G36*
X32077Y236671D02*X29956Y234550D01*
X35550Y228956D01*
X37671Y231077D01*
X32077Y236671D01*
G37*
G36*
X22044Y234550D02*X19923Y236671D01*
X14329Y231077D01*
X16450Y228956D01*
X22044Y234550D01*
G37*
G36*
X33750Y217250D02*Y213650D01*
X37350D01*
Y217250D01*
X33750D01*
G37*
G36*
X14650D02*Y213650D01*
X18250D01*
Y217250D01*
X14650D01*
G37*
G36*
X33750Y236350D02*Y232750D01*
X37350D01*
Y236350D01*
X33750D01*
G37*
G36*
X14650D02*Y232750D01*
X18250D01*
Y236350D01*
X14650D01*
G37*
G36*
X55102Y243952D02*X49984D01*
Y238048D01*
X55102D01*
Y243952D01*
G37*
G36*
X48016D02*X42898D01*
Y238048D01*
X48016D01*
Y243952D01*
G37*
G36*
X18016Y196952D02*X12898D01*
Y191048D01*
X18016D01*
Y196952D01*
G37*
G36*
X25102D02*X19984D01*
Y191048D01*
X25102D01*
Y196952D01*
G37*
G36*
X40102D02*X34984D01*
Y191048D01*
X40102D01*
Y196952D01*
G37*
G36*
X33016D02*X27898D01*
Y191048D01*
X33016D01*
Y196952D01*
G37*
G36*
X51500Y176200D02*Y173800D01*
X55500D01*
Y176200D01*
X51500D01*
G37*
G36*
Y180100D02*Y177700D01*
X55500D01*
Y180100D01*
X51500D01*
G37*
G36*
Y184000D02*Y181600D01*
X55500D01*
Y184000D01*
X51500D01*
G37*
G36*
X43300D02*Y181600D01*
X47300D01*
Y184000D01*
X43300D01*
G37*
G36*
Y180100D02*Y177700D01*
X47300D01*
Y180100D01*
X43300D01*
G37*
G36*
Y176200D02*Y173800D01*
X47300D01*
Y176200D01*
X43300D01*
G37*
G36*
X54602Y169452D02*X49484D01*
Y163548D01*
X54602D01*
Y169452D01*
G37*
G36*
X47516D02*X42398D01*
Y163548D01*
X47516D01*
Y169452D01*
G37*
G36*
X14150Y165450D02*Y163150D01*
X37850D01*
Y165450D01*
X14150D01*
G37*
G36*
X37850Y171050D02*X35550D01*
Y163150D01*
X37850D01*
Y171050D01*
G37*
G36*
X16450D02*X14150D01*
Y163150D01*
X16450D01*
Y171050D01*
G37*
G36*
X14150Y186850D02*Y184550D01*
X37850D01*
Y186850D01*
X14150D01*
G37*
G36*
X37850D02*X35550D01*
Y178950D01*
X37850D01*
Y186850D01*
G37*
G36*
X16450D02*X14150D01*
Y178950D01*
X16450D01*
Y186850D01*
G37*
G36*
X37671Y168923D02*X35550Y171044D01*
X29956Y165450D01*
X32077Y163329D01*
X37671Y168923D01*
G37*
G36*
X16450Y171044D02*X14329Y168923D01*
X19923Y163329D01*
X22044Y165450D01*
X16450Y171044D01*
G37*
G36*
X32077Y186671D02*X29956Y184550D01*
X35550Y178956D01*
X37671Y181077D01*
X32077Y186671D01*
G37*
G36*
X22044Y184550D02*X19923Y186671D01*
X14329Y181077D01*
X16450Y178956D01*
X22044Y184550D01*
G37*
G36*
X33750Y167250D02*Y163650D01*
X37350D01*
Y167250D01*
X33750D01*
G37*
G36*
X14650D02*Y163650D01*
X18250D01*
Y167250D01*
X14650D01*
G37*
G36*
X33750Y186350D02*Y182750D01*
X37350D01*
Y186350D01*
X33750D01*
G37*
G36*
X14650D02*Y182750D01*
X18250D01*
Y186350D01*
X14650D01*
G37*
G36*
X55102Y193952D02*X49984D01*
Y188048D01*
X55102D01*
Y193952D01*
G37*
G36*
X48016D02*X42898D01*
Y188048D01*
X48016D01*
Y193952D01*
G37*
G36*
X18016Y146952D02*X12898D01*
Y141048D01*
X18016D01*
Y146952D01*
G37*
G36*
X25102D02*X19984D01*
Y141048D01*
X25102D01*
Y146952D01*
G37*
G36*
X40102D02*X34984D01*
Y141048D01*
X40102D01*
Y146952D01*
G37*
G36*
X33016D02*X27898D01*
Y141048D01*
X33016D01*
Y146952D01*
G37*
G36*
X51500Y126200D02*Y123800D01*
X55500D01*
Y126200D01*
X51500D01*
G37*
G36*
Y130100D02*Y127700D01*
X55500D01*
Y130100D01*
X51500D01*
G37*
G36*
Y134000D02*Y131600D01*
X55500D01*
Y134000D01*
X51500D01*
G37*
G36*
X43300D02*Y131600D01*
X47300D01*
Y134000D01*
X43300D01*
G37*
G36*
Y130100D02*Y127700D01*
X47300D01*
Y130100D01*
X43300D01*
G37*
G36*
Y126200D02*Y123800D01*
X47300D01*
Y126200D01*
X43300D01*
G37*
G36*
X54602Y119452D02*X49484D01*
Y113548D01*
X54602D01*
Y119452D01*
G37*
G36*
X47516D02*X42398D01*
Y113548D01*
X47516D01*
Y119452D01*
G37*
G36*
X14150Y115450D02*Y113150D01*
X37850D01*
Y115450D01*
X14150D01*
G37*
G36*
X37850Y121050D02*X35550D01*
Y113150D01*
X37850D01*
Y121050D01*
G37*
G36*
X16450D02*X14150D01*
Y113150D01*
X16450D01*
Y121050D01*
G37*
G36*
X14150Y136850D02*Y134550D01*
X37850D01*
Y136850D01*
X14150D01*
G37*
G36*
X37850D02*X35550D01*
Y128950D01*
X37850D01*
Y136850D01*
G37*
G36*
X16450D02*X14150D01*
Y128950D01*
X16450D01*
Y136850D01*
G37*
G36*
X37671Y118923D02*X35550Y121044D01*
X29956Y115450D01*
X32077Y113329D01*
X37671Y118923D01*
G37*
G36*
X16450Y121044D02*X14329Y118923D01*
X19923Y113329D01*
X22044Y115450D01*
X16450Y121044D01*
G37*
G36*
X32077Y136671D02*X29956Y134550D01*
X35550Y128956D01*
X37671Y131077D01*
X32077Y136671D01*
G37*
G36*
X22044Y134550D02*X19923Y136671D01*
X14329Y131077D01*
X16450Y128956D01*
X22044Y134550D01*
G37*
G36*
X33750Y117250D02*Y113650D01*
X37350D01*
Y117250D01*
X33750D01*
G37*
G36*
X14650D02*Y113650D01*
X18250D01*
Y117250D01*
X14650D01*
G37*
G36*
X33750Y136350D02*Y132750D01*
X37350D01*
Y136350D01*
X33750D01*
G37*
G36*
X14650D02*Y132750D01*
X18250D01*
Y136350D01*
X14650D01*
G37*
G36*
X55102Y143952D02*X49984D01*
Y138048D01*
X55102D01*
Y143952D01*
G37*
G36*
X48016D02*X42898D01*
Y138048D01*
X48016D01*
Y143952D01*
G37*
G36*
X18016Y96952D02*X12898D01*
Y91048D01*
X18016D01*
Y96952D01*
G37*
G36*
X25102D02*X19984D01*
Y91048D01*
X25102D01*
Y96952D01*
G37*
G36*
X40102D02*X34984D01*
Y91048D01*
X40102D01*
Y96952D01*
G37*
G36*
X33016D02*X27898D01*
Y91048D01*
X33016D01*
Y96952D01*
G37*
G36*
X51500Y76200D02*Y73800D01*
X55500D01*
Y76200D01*
X51500D01*
G37*
G36*
Y80100D02*Y77700D01*
X55500D01*
Y80100D01*
X51500D01*
G37*
G36*
Y84000D02*Y81600D01*
X55500D01*
Y84000D01*
X51500D01*
G37*
G36*
X43300D02*Y81600D01*
X47300D01*
Y84000D01*
X43300D01*
G37*
G36*
Y80100D02*Y77700D01*
X47300D01*
Y80100D01*
X43300D01*
G37*
G36*
Y76200D02*Y73800D01*
X47300D01*
Y76200D01*
X43300D01*
G37*
G36*
X54602Y69452D02*X49484D01*
Y63548D01*
X54602D01*
Y69452D01*
G37*
G36*
X47516D02*X42398D01*
Y63548D01*
X47516D01*
Y69452D01*
G37*
G36*
X14150Y65450D02*Y63150D01*
X37850D01*
Y65450D01*
X14150D01*
G37*
G36*
X37850Y71050D02*X35550D01*
Y63150D01*
X37850D01*
Y71050D01*
G37*
G36*
X16450D02*X14150D01*
Y63150D01*
X16450D01*
Y71050D01*
G37*
G36*
X14150Y86850D02*Y84550D01*
X37850D01*
Y86850D01*
X14150D01*
G37*
G36*
X37850D02*X35550D01*
Y78950D01*
X37850D01*
Y86850D01*
G37*
G36*
X16450D02*X14150D01*
Y78950D01*
X16450D01*
Y86850D01*
G37*
G36*
X37671Y68923D02*X35550Y71044D01*
X29956Y65450D01*
X32077Y63329D01*
X37671Y68923D01*
G37*
G36*
X16450Y71044D02*X14329Y68923D01*
X19923Y63329D01*
X22044Y65450D01*
X16450Y71044D01*
G37*
G36*
X32077Y86671D02*X29956Y84550D01*
X35550Y78956D01*
X37671Y81077D01*
X32077Y86671D01*
G37*
G36*
X22044Y84550D02*X19923Y86671D01*
X14329Y81077D01*
X16450Y78956D01*
X22044Y84550D01*
G37*
G36*
X33750Y67250D02*Y63650D01*
X37350D01*
Y67250D01*
X33750D01*
G37*
G36*
X14650D02*Y63650D01*
X18250D01*
Y67250D01*
X14650D01*
G37*
G36*
X33750Y86350D02*Y82750D01*
X37350D01*
Y86350D01*
X33750D01*
G37*
G36*
X14650D02*Y82750D01*
X18250D01*
Y86350D01*
X14650D01*
G37*
G36*
X55102Y93952D02*X49984D01*
Y88048D01*
X55102D01*
Y93952D01*
G37*
G36*
X48016D02*X42898D01*
Y88048D01*
X48016D01*
Y93952D01*
G37*
G36*
X18016Y46952D02*X12898D01*
Y41048D01*
X18016D01*
Y46952D01*
G37*
G36*
X25102D02*X19984D01*
Y41048D01*
X25102D01*
Y46952D01*
G37*
G36*
X40102D02*X34984D01*
Y41048D01*
X40102D01*
Y46952D01*
G37*
G36*
X33016D02*X27898D01*
Y41048D01*
X33016D01*
Y46952D01*
G37*
G36*
X51500Y26200D02*Y23800D01*
X55500D01*
Y26200D01*
X51500D01*
G37*
G36*
Y30100D02*Y27700D01*
X55500D01*
Y30100D01*
X51500D01*
G37*
G36*
Y34000D02*Y31600D01*
X55500D01*
Y34000D01*
X51500D01*
G37*
G36*
X43300D02*Y31600D01*
X47300D01*
Y34000D01*
X43300D01*
G37*
G36*
Y30100D02*Y27700D01*
X47300D01*
Y30100D01*
X43300D01*
G37*
G36*
Y26200D02*Y23800D01*
X47300D01*
Y26200D01*
X43300D01*
G37*
G36*
X54602Y19452D02*X49484D01*
Y13548D01*
X54602D01*
Y19452D01*
G37*
G36*
X47516D02*X42398D01*
Y13548D01*
X47516D01*
Y19452D01*
G37*
G36*
X14150Y15450D02*Y13150D01*
X37850D01*
Y15450D01*
X14150D01*
G37*
G36*
X37850Y21050D02*X35550D01*
Y13150D01*
X37850D01*
Y21050D01*
G37*
G36*
X16450D02*X14150D01*
Y13150D01*
X16450D01*
Y21050D01*
G37*
G36*
X14150Y36850D02*Y34550D01*
X37850D01*
Y36850D01*
X14150D01*
G37*
G36*
X37850D02*X35550D01*
Y28950D01*
X37850D01*
Y36850D01*
G37*
G36*
X16450D02*X14150D01*
Y28950D01*
X16450D01*
Y36850D01*
G37*
G36*
X37671Y18923D02*X35550Y21044D01*
X29956Y15450D01*
X32077Y13329D01*
X37671Y18923D01*
G37*
G36*
X16450Y21044D02*X14329Y18923D01*
X19923Y13329D01*
X22044Y15450D01*
X16450Y21044D01*
G37*
G36*
X32077Y36671D02*X29956Y34550D01*
X35550Y28956D01*
X37671Y31077D01*
X32077Y36671D01*
G37*
G36*
X22044Y34550D02*X19923Y36671D01*
X14329Y31077D01*
X16450Y28956D01*
X22044Y34550D01*
G37*
G36*
X33750Y17250D02*Y13650D01*
X37350D01*
Y17250D01*
X33750D01*
G37*
G36*
X14650D02*Y13650D01*
X18250D01*
Y17250D01*
X14650D01*
G37*
G36*
X33750Y36350D02*Y32750D01*
X37350D01*
Y36350D01*
X33750D01*
G37*
G36*
X14650D02*Y32750D01*
X18250D01*
Y36350D01*
X14650D01*
G37*
G36*
X55102Y43952D02*X49984D01*
Y38048D01*
X55102D01*
Y43952D01*
G37*
G36*
X48016D02*X42898D01*
Y38048D01*
X48016D01*
Y43952D01*
G37*
M02*
