G04 start of page 9 for group -4079 idx -4079 *
G04 Title: (unknown), topsilk *
G04 Creator: pcb 4.0.2 *
G04 CreationDate: Mon Aug 16 16:10:31 2021 UTC *
G04 For: ndholmes *
G04 Format: Gerber/RS-274X *
G04 PCB-Dimensions (mil): 700.00 5100.00 *
G04 PCB-Coordinate-Origin: lower left *
%MOIN*%
%FSLAX25Y25*%
%LNTOPSILK*%
%ADD39C,0.0060*%
%ADD38C,0.0100*%
%ADD37C,0.0001*%
G54D37*G36*
X57500Y324500D02*X59500D01*
Y322500D01*
X57500D01*
Y324500D01*
G37*
G36*
Y274500D02*X59500D01*
Y272500D01*
X57500D01*
Y274500D01*
G37*
G36*
Y224500D02*X59500D01*
Y222500D01*
X57500D01*
Y224500D01*
G37*
G36*
Y174500D02*X59500D01*
Y172500D01*
X57500D01*
Y174500D01*
G37*
G36*
Y474500D02*X59500D01*
Y472500D01*
X57500D01*
Y474500D01*
G37*
G36*
Y424500D02*X59500D01*
Y422500D01*
X57500D01*
Y424500D01*
G37*
G36*
Y374500D02*X59500D01*
Y372500D01*
X57500D01*
Y374500D01*
G37*
G36*
Y124500D02*X59500D01*
Y122500D01*
X57500D01*
Y124500D01*
G37*
G36*
Y74500D02*X59500D01*
Y72500D01*
X57500D01*
Y74500D01*
G37*
G36*
Y24500D02*X59500D01*
Y22500D01*
X57500D01*
Y24500D01*
G37*
G54D38*X56500Y316500D02*G75*G03X60576Y311187I5500J0D01*G01*
X56500Y266500D02*G75*G03X60576Y261187I5500J0D01*G01*
X56500Y216500D02*G75*G03X60576Y211187I5500J0D01*G01*
X56500Y166500D02*G75*G03X60576Y161187I5500J0D01*G01*
X56500Y466500D02*G75*G03X60576Y461187I5500J0D01*G01*
X56500Y416500D02*G75*G03X60576Y411187I5500J0D01*G01*
X56500Y366500D02*G75*G03X60576Y361187I5500J0D01*G01*
X56500Y116500D02*G75*G03X60576Y111187I5500J0D01*G01*
X56500Y66500D02*G75*G03X60576Y61187I5500J0D01*G01*
X56500Y16500D02*G75*G03X60576Y11187I5500J0D01*G01*
G54D39*X49000Y281960D02*Y280070D01*
X49270Y279800D01*
X49810D01*
X50080Y280070D01*
Y281960D02*Y280070D01*
X49265Y276350D02*X49795D01*
X49530Y278470D02*Y276350D01*
X49000Y277940D02*X49530Y278470D01*
X49000Y231960D02*Y230070D01*
X49270Y229800D01*
X49810D01*
X50080Y230070D01*
Y231960D02*Y230070D01*
X49265Y226350D02*X49795D01*
X49530Y228470D02*Y226350D01*
X49000Y227940D02*X49530Y228470D01*
X49000Y181960D02*Y180070D01*
X49270Y179800D01*
X49810D01*
X50080Y180070D01*
Y181960D02*Y180070D01*
X49265Y176350D02*X49795D01*
X49530Y178470D02*Y176350D01*
X49000Y177940D02*X49530Y178470D01*
X49000Y131960D02*Y130070D01*
X49270Y129800D01*
X49810D01*
X50080Y130070D01*
Y131960D02*Y130070D01*
X49265Y126350D02*X49795D01*
X49530Y128470D02*Y126350D01*
X49000Y127940D02*X49530Y128470D01*
X49000Y81960D02*Y80070D01*
X49270Y79800D01*
X49810D01*
X50080Y80070D01*
Y81960D02*Y80070D01*
X49265Y76350D02*X49795D01*
X49530Y78470D02*Y76350D01*
X49000Y77940D02*X49530Y78470D01*
X49000Y31960D02*Y30070D01*
X49270Y29800D01*
X49810D01*
X50080Y30070D01*
Y31960D02*Y30070D01*
X49265Y26350D02*X49795D01*
X49530Y28470D02*Y26350D01*
X49000Y27940D02*X49530Y28470D01*
X49000Y381960D02*Y380070D01*
X49270Y379800D01*
X49810D01*
X50080Y380070D01*
Y381960D02*Y380070D01*
X49265Y376350D02*X49795D01*
X49530Y378470D02*Y376350D01*
X49000Y377940D02*X49530Y378470D01*
X49000Y331960D02*Y330070D01*
X49270Y329800D01*
X49810D01*
X50080Y330070D01*
Y331960D02*Y330070D01*
X49000Y481960D02*Y480070D01*
X49270Y479800D01*
X49810D01*
X50080Y480070D01*
Y481960D02*Y480070D01*
X49265Y476350D02*X49795D01*
X49530Y478470D02*Y476350D01*
X49000Y477940D02*X49530Y478470D01*
X49000Y431960D02*Y430070D01*
X49270Y429800D01*
X49810D01*
X50080Y430070D01*
Y431960D02*Y430070D01*
X49265Y426350D02*X49795D01*
X49530Y428470D02*Y426350D01*
X49000Y427940D02*X49530Y428470D01*
X49265Y326350D02*X49795D01*
X49530Y328470D02*Y326350D01*
X49000Y327940D02*X49530Y328470D01*
G54D38*X18607Y346755D02*X19393D01*
X18607Y341245D02*X19393D01*
X33607D02*X34393D01*
X33607Y346755D02*X34393D01*
X13000Y312000D02*X35000D01*
X13000Y334000D02*Y312000D01*
X17000Y338000D02*X39000D01*
Y316000D01*
X42500Y323000D02*X56400D01*
Y334800D02*Y323000D01*
X42500Y334800D02*X56400D01*
X42500D02*Y323000D01*
X48107Y313745D02*X48893D01*
X48107Y319255D02*X48893D01*
X48607Y338245D02*X49393D01*
X48607Y343755D02*X49393D01*
X18607Y296755D02*X19393D01*
X18607Y291245D02*X19393D01*
X33607D02*X34393D01*
X33607Y296755D02*X34393D01*
X42500Y273000D02*X56400D01*
Y284800D02*Y273000D01*
X42500Y284800D02*X56400D01*
X42500D02*Y273000D01*
X48107Y263745D02*X48893D01*
X48107Y269255D02*X48893D01*
X48607Y288245D02*X49393D01*
X48607Y293755D02*X49393D01*
X13000Y262000D02*X35000D01*
X13000Y284000D02*Y262000D01*
X17000Y288000D02*X39000D01*
Y266000D01*
X18607Y246755D02*X19393D01*
X18607Y241245D02*X19393D01*
X18607Y446755D02*X19393D01*
X18607Y441245D02*X19393D01*
X33607D02*X34393D01*
X33607Y446755D02*X34393D01*
X42500Y473000D02*X56400D01*
Y484800D02*Y473000D01*
X42500Y484800D02*X56400D01*
X42500D02*Y473000D01*
X48107Y463745D02*X48893D01*
X48107Y469255D02*X48893D01*
X48607Y488245D02*X49393D01*
X48607Y493755D02*X49393D01*
X18607Y496755D02*X19393D01*
X18607Y491245D02*X19393D01*
X33607D02*X34393D01*
X33607Y496755D02*X34393D01*
X13000Y462000D02*X35000D01*
X13000Y484000D02*Y462000D01*
X17000Y488000D02*X39000D01*
Y466000D01*
X42500Y423000D02*X56400D01*
Y434800D02*Y423000D01*
X42500Y434800D02*X56400D01*
X42500D02*Y423000D01*
X48107Y413745D02*X48893D01*
X48107Y419255D02*X48893D01*
X48607Y438245D02*X49393D01*
X48607Y443755D02*X49393D01*
X13000Y412000D02*X35000D01*
X13000Y434000D02*Y412000D01*
X17000Y438000D02*X39000D01*
Y416000D01*
X18607Y396755D02*X19393D01*
X18607Y391245D02*X19393D01*
X33607D02*X34393D01*
X33607Y396755D02*X34393D01*
X48607Y388245D02*X49393D01*
X48607Y393755D02*X49393D01*
X13000Y362000D02*X35000D01*
X13000Y384000D02*Y362000D01*
X17000Y388000D02*X39000D01*
Y366000D01*
X42500Y373000D02*X56400D01*
Y384800D02*Y373000D01*
X42500Y384800D02*X56400D01*
X42500D02*Y373000D01*
X48107Y363745D02*X48893D01*
X48107Y369255D02*X48893D01*
X33607Y241245D02*X34393D01*
X33607Y246755D02*X34393D01*
X48607Y238245D02*X49393D01*
X48607Y243755D02*X49393D01*
X13000Y212000D02*X35000D01*
X13000Y234000D02*Y212000D01*
X17000Y238000D02*X39000D01*
Y216000D01*
X42500Y223000D02*X56400D01*
Y234800D02*Y223000D01*
X42500Y234800D02*X56400D01*
X42500D02*Y223000D01*
X48107Y213745D02*X48893D01*
X48107Y219255D02*X48893D01*
X18607Y196755D02*X19393D01*
X18607Y191245D02*X19393D01*
X33607D02*X34393D01*
X33607Y196755D02*X34393D01*
X13000Y162000D02*X35000D01*
X13000Y184000D02*Y162000D01*
X17000Y188000D02*X39000D01*
Y166000D01*
X42500Y173000D02*X56400D01*
Y184800D02*Y173000D01*
X42500Y184800D02*X56400D01*
X42500D02*Y173000D01*
X48107Y163745D02*X48893D01*
X48107Y169255D02*X48893D01*
X48607Y188245D02*X49393D01*
X48607Y193755D02*X49393D01*
X18607Y146755D02*X19393D01*
X18607Y141245D02*X19393D01*
X33607D02*X34393D01*
X33607Y146755D02*X34393D01*
X42500Y123000D02*X56400D01*
Y134800D02*Y123000D01*
X42500Y134800D02*X56400D01*
X42500D02*Y123000D01*
X48107Y113745D02*X48893D01*
X48107Y119255D02*X48893D01*
X48607Y138245D02*X49393D01*
X48607Y143755D02*X49393D01*
X13000Y112000D02*X35000D01*
X13000Y134000D02*Y112000D01*
X17000Y138000D02*X39000D01*
Y116000D01*
X18607Y96755D02*X19393D01*
X18607Y91245D02*X19393D01*
X33607D02*X34393D01*
X33607Y96755D02*X34393D01*
X48607Y88245D02*X49393D01*
X48607Y93755D02*X49393D01*
X13000Y62000D02*X35000D01*
X13000Y84000D02*Y62000D01*
X17000Y88000D02*X39000D01*
Y66000D01*
X42500Y73000D02*X56400D01*
Y84800D02*Y73000D01*
X42500Y84800D02*X56400D01*
X42500D02*Y73000D01*
X48107Y63745D02*X48893D01*
X48107Y69255D02*X48893D01*
X18607Y46755D02*X19393D01*
X18607Y41245D02*X19393D01*
X33607D02*X34393D01*
X33607Y46755D02*X34393D01*
X13000Y12000D02*X35000D01*
X13000Y34000D02*Y12000D01*
X17000Y38000D02*X39000D01*
Y16000D01*
X42500Y23000D02*X56400D01*
Y34800D02*Y23000D01*
X42500Y34800D02*X56400D01*
X42500D02*Y23000D01*
X48107Y13745D02*X48893D01*
X48107Y19255D02*X48893D01*
X48607Y38245D02*X49393D01*
X48607Y43755D02*X49393D01*
G54D39*X57700Y269580D02*Y268770D01*
X57430Y268500D02*X57700Y268770D01*
X55810Y268500D02*X57430D01*
X55810D02*X55540Y268770D01*
Y269580D02*Y268770D01*
X55810Y270228D02*X55540Y270498D01*
Y271308D02*Y270498D01*
Y271308D02*X55810Y271578D01*
X56350D01*
X57700Y270228D02*X56350Y271578D01*
X57700D02*Y270228D01*
X48270Y295300D02*X49080D01*
X48000Y295570D02*X48270Y295300D01*
X48000Y297190D02*Y295570D01*
Y297190D02*X48270Y297460D01*
X49080D01*
X49998Y295300D02*X50538D01*
X50268Y297460D02*Y295300D01*
X49728Y296920D02*X50268Y297460D01*
X21770Y280300D02*X22580D01*
X21500Y280570D02*X21770Y280300D01*
X21500Y282190D02*Y280570D01*
Y282190D02*X21770Y282460D01*
X22580D01*
X23228Y282190D02*X23498Y282460D01*
X24038D01*
X24308Y282190D01*
Y280570D01*
X24038Y280300D02*X24308Y280570D01*
X23498Y280300D02*X24038D01*
X23228Y280570D02*X23498Y280300D01*
Y281380D02*X24308D01*
X27770Y280300D02*X28580D01*
X27500Y280570D02*X27770Y280300D01*
X27500Y282190D02*Y280570D01*
Y282190D02*X27770Y282460D01*
X28580D01*
X29228Y281380D02*X30308Y282460D01*
X29228Y281380D02*X30578D01*
X30308Y282460D02*Y280300D01*
X23700Y276000D02*Y272000D01*
X25700D01*
X27400D02*X28400D01*
X27900Y276000D02*Y272000D01*
X26900Y275000D02*X27900Y276000D01*
X57700Y219580D02*Y218770D01*
X57430Y218500D02*X57700Y218770D01*
X55810Y218500D02*X57430D01*
X55810D02*X55540Y218770D01*
Y219580D02*Y218770D01*
X55810Y220228D02*X55540Y220498D01*
Y221308D02*Y220498D01*
Y221308D02*X55810Y221578D01*
X56350D01*
X57700Y220228D02*X56350Y221578D01*
X57700D02*Y220228D01*
X48270Y245300D02*X49080D01*
X48000Y245570D02*X48270Y245300D01*
X48000Y247190D02*Y245570D01*
Y247190D02*X48270Y247460D01*
X49080D01*
X49998Y245300D02*X50538D01*
X50268Y247460D02*Y245300D01*
X49728Y246920D02*X50268Y247460D01*
X21770Y230300D02*X22580D01*
X21500Y230570D02*X21770Y230300D01*
X21500Y232190D02*Y230570D01*
Y232190D02*X21770Y232460D01*
X22580D01*
X23228Y232190D02*X23498Y232460D01*
X24038D01*
X24308Y232190D01*
Y230570D01*
X24038Y230300D02*X24308Y230570D01*
X23498Y230300D02*X24038D01*
X23228Y230570D02*X23498Y230300D01*
Y231380D02*X24308D01*
X27770Y230300D02*X28580D01*
X27500Y230570D02*X27770Y230300D01*
X27500Y232190D02*Y230570D01*
Y232190D02*X27770Y232460D01*
X28580D01*
X29228Y231380D02*X30308Y232460D01*
X29228Y231380D02*X30578D01*
X30308Y232460D02*Y230300D01*
X23700Y226000D02*Y222000D01*
X25700D01*
X27400D02*X28400D01*
X27900Y226000D02*Y222000D01*
X26900Y225000D02*X27900Y226000D01*
X21770Y180300D02*X22580D01*
X21500Y180570D02*X21770Y180300D01*
X21500Y182190D02*Y180570D01*
Y182190D02*X21770Y182460D01*
X22580D01*
X23228Y182190D02*X23498Y182460D01*
X24038D01*
X24308Y182190D01*
Y180570D01*
X24038Y180300D02*X24308Y180570D01*
X23498Y180300D02*X24038D01*
X23228Y180570D02*X23498Y180300D01*
Y181380D02*X24308D01*
X27770Y180300D02*X28580D01*
X27500Y180570D02*X27770Y180300D01*
X27500Y182190D02*Y180570D01*
Y182190D02*X27770Y182460D01*
X28580D01*
X29228Y181380D02*X30308Y182460D01*
X29228Y181380D02*X30578D01*
X30308Y182460D02*Y180300D01*
X48270Y195300D02*X49080D01*
X48000Y195570D02*X48270Y195300D01*
X48000Y197190D02*Y195570D01*
Y197190D02*X48270Y197460D01*
X49080D01*
X49998Y195300D02*X50538D01*
X50268Y197460D02*Y195300D01*
X49728Y196920D02*X50268Y197460D01*
X57700Y169580D02*Y168770D01*
X57430Y168500D02*X57700Y168770D01*
X55810Y168500D02*X57430D01*
X55810D02*X55540Y168770D01*
Y169580D02*Y168770D01*
X55810Y170228D02*X55540Y170498D01*
Y171308D02*Y170498D01*
Y171308D02*X55810Y171578D01*
X56350D01*
X57700Y170228D02*X56350Y171578D01*
X57700D02*Y170228D01*
X23700Y176000D02*Y172000D01*
X25700D01*
X27400D02*X28400D01*
X27900Y176000D02*Y172000D01*
X26900Y175000D02*X27900Y176000D01*
X57700Y119580D02*Y118770D01*
X57430Y118500D02*X57700Y118770D01*
X55810Y118500D02*X57430D01*
X55810D02*X55540Y118770D01*
Y119580D02*Y118770D01*
X55810Y120228D02*X55540Y120498D01*
Y121308D02*Y120498D01*
Y121308D02*X55810Y121578D01*
X56350D01*
X57700Y120228D02*X56350Y121578D01*
X57700D02*Y120228D01*
X48270Y145300D02*X49080D01*
X48000Y145570D02*X48270Y145300D01*
X48000Y147190D02*Y145570D01*
Y147190D02*X48270Y147460D01*
X49080D01*
X49998Y145300D02*X50538D01*
X50268Y147460D02*Y145300D01*
X49728Y146920D02*X50268Y147460D01*
X21770Y130300D02*X22580D01*
X21500Y130570D02*X21770Y130300D01*
X21500Y132190D02*Y130570D01*
Y132190D02*X21770Y132460D01*
X22580D01*
X23228Y132190D02*X23498Y132460D01*
X24038D01*
X24308Y132190D01*
Y130570D01*
X24038Y130300D02*X24308Y130570D01*
X23498Y130300D02*X24038D01*
X23228Y130570D02*X23498Y130300D01*
Y131380D02*X24308D01*
X27770Y130300D02*X28580D01*
X27500Y130570D02*X27770Y130300D01*
X27500Y132190D02*Y130570D01*
Y132190D02*X27770Y132460D01*
X28580D01*
X29228Y131380D02*X30308Y132460D01*
X29228Y131380D02*X30578D01*
X30308Y132460D02*Y130300D01*
X23700Y126000D02*Y122000D01*
X25700D01*
X27400D02*X28400D01*
X27900Y126000D02*Y122000D01*
X26900Y125000D02*X27900Y126000D01*
X21770Y80300D02*X22580D01*
X21500Y80570D02*X21770Y80300D01*
X21500Y82190D02*Y80570D01*
Y82190D02*X21770Y82460D01*
X22580D01*
X23228Y82190D02*X23498Y82460D01*
X24038D01*
X24308Y82190D01*
Y80570D01*
X24038Y80300D02*X24308Y80570D01*
X23498Y80300D02*X24038D01*
X23228Y80570D02*X23498Y80300D01*
Y81380D02*X24308D01*
X27770Y80300D02*X28580D01*
X27500Y80570D02*X27770Y80300D01*
X27500Y82190D02*Y80570D01*
Y82190D02*X27770Y82460D01*
X28580D01*
X29228Y81380D02*X30308Y82460D01*
X29228Y81380D02*X30578D01*
X30308Y82460D02*Y80300D01*
X48270Y95300D02*X49080D01*
X48000Y95570D02*X48270Y95300D01*
X48000Y97190D02*Y95570D01*
Y97190D02*X48270Y97460D01*
X49080D01*
X49998Y95300D02*X50538D01*
X50268Y97460D02*Y95300D01*
X49728Y96920D02*X50268Y97460D01*
X57700Y69580D02*Y68770D01*
X57430Y68500D02*X57700Y68770D01*
X55810Y68500D02*X57430D01*
X55810D02*X55540Y68770D01*
Y69580D02*Y68770D01*
X55810Y70228D02*X55540Y70498D01*
Y71308D02*Y70498D01*
Y71308D02*X55810Y71578D01*
X56350D01*
X57700Y70228D02*X56350Y71578D01*
X57700D02*Y70228D01*
X23700Y76000D02*Y72000D01*
X25700D01*
X27400D02*X28400D01*
X27900Y76000D02*Y72000D01*
X26900Y75000D02*X27900Y76000D01*
X21770Y30300D02*X22580D01*
X21500Y30570D02*X21770Y30300D01*
X21500Y32190D02*Y30570D01*
Y32190D02*X21770Y32460D01*
X22580D01*
X23228Y32190D02*X23498Y32460D01*
X24038D01*
X24308Y32190D01*
Y30570D01*
X24038Y30300D02*X24308Y30570D01*
X23498Y30300D02*X24038D01*
X23228Y30570D02*X23498Y30300D01*
Y31380D02*X24308D01*
X27770Y30300D02*X28580D01*
X27500Y30570D02*X27770Y30300D01*
X27500Y32190D02*Y30570D01*
Y32190D02*X27770Y32460D01*
X28580D01*
X29228Y31380D02*X30308Y32460D01*
X29228Y31380D02*X30578D01*
X30308Y32460D02*Y30300D01*
X23700Y26000D02*Y22000D01*
X25700D01*
X27400D02*X28400D01*
X27900Y26000D02*Y22000D01*
X26900Y25000D02*X27900Y26000D01*
X57700Y19580D02*Y18770D01*
X57430Y18500D02*X57700Y18770D01*
X55810Y18500D02*X57430D01*
X55810D02*X55540Y18770D01*
Y19580D02*Y18770D01*
X55810Y20228D02*X55540Y20498D01*
Y21308D02*Y20498D01*
Y21308D02*X55810Y21578D01*
X56350D01*
X57700Y20228D02*X56350Y21578D01*
X57700D02*Y20228D01*
X48270Y45300D02*X49080D01*
X48000Y45570D02*X48270Y45300D01*
X48000Y47190D02*Y45570D01*
Y47190D02*X48270Y47460D01*
X49080D01*
X49998Y45300D02*X50538D01*
X50268Y47460D02*Y45300D01*
X49728Y46920D02*X50268Y47460D01*
X57700Y419580D02*Y418770D01*
X57430Y418500D02*X57700Y418770D01*
X55810Y418500D02*X57430D01*
X55810D02*X55540Y418770D01*
Y419580D02*Y418770D01*
X55810Y420228D02*X55540Y420498D01*
Y421308D02*Y420498D01*
Y421308D02*X55810Y421578D01*
X56350D01*
X57700Y420228D02*X56350Y421578D01*
X57700D02*Y420228D01*
X48270Y445300D02*X49080D01*
X48000Y445570D02*X48270Y445300D01*
X48000Y447190D02*Y445570D01*
Y447190D02*X48270Y447460D01*
X49080D01*
X49998Y445300D02*X50538D01*
X50268Y447460D02*Y445300D01*
X49728Y446920D02*X50268Y447460D01*
X21770Y430300D02*X22580D01*
X21500Y430570D02*X21770Y430300D01*
X21500Y432190D02*Y430570D01*
Y432190D02*X21770Y432460D01*
X22580D01*
X23228Y432190D02*X23498Y432460D01*
X24038D01*
X24308Y432190D01*
Y430570D01*
X24038Y430300D02*X24308Y430570D01*
X23498Y430300D02*X24038D01*
X23228Y430570D02*X23498Y430300D01*
Y431380D02*X24308D01*
X27770Y430300D02*X28580D01*
X27500Y430570D02*X27770Y430300D01*
X27500Y432190D02*Y430570D01*
Y432190D02*X27770Y432460D01*
X28580D01*
X29228Y431380D02*X30308Y432460D01*
X29228Y431380D02*X30578D01*
X30308Y432460D02*Y430300D01*
X23700Y426000D02*Y422000D01*
X25700D01*
X27400D02*X28400D01*
X27900Y426000D02*Y422000D01*
X26900Y425000D02*X27900Y426000D01*
X57700Y469580D02*Y468770D01*
X57430Y468500D02*X57700Y468770D01*
X55810Y468500D02*X57430D01*
X55810D02*X55540Y468770D01*
Y469580D02*Y468770D01*
X55810Y470228D02*X55540Y470498D01*
Y471308D02*Y470498D01*
Y471308D02*X55810Y471578D01*
X56350D01*
X57700Y470228D02*X56350Y471578D01*
X57700D02*Y470228D01*
X21770Y480300D02*X22580D01*
X21500Y480570D02*X21770Y480300D01*
X21500Y482190D02*Y480570D01*
Y482190D02*X21770Y482460D01*
X22580D01*
X23228Y482190D02*X23498Y482460D01*
X24038D01*
X24308Y482190D01*
Y480570D01*
X24038Y480300D02*X24308Y480570D01*
X23498Y480300D02*X24038D01*
X23228Y480570D02*X23498Y480300D01*
Y481380D02*X24308D01*
X27770Y480300D02*X28580D01*
X27500Y480570D02*X27770Y480300D01*
X27500Y482190D02*Y480570D01*
Y482190D02*X27770Y482460D01*
X28580D01*
X29228Y481380D02*X30308Y482460D01*
X29228Y481380D02*X30578D01*
X30308Y482460D02*Y480300D01*
X23700Y476000D02*Y472000D01*
X25700D01*
X27400D02*X28400D01*
X27900Y476000D02*Y472000D01*
X26900Y475000D02*X27900Y476000D01*
X48270Y495300D02*X49080D01*
X48000Y495570D02*X48270Y495300D01*
X48000Y497190D02*Y495570D01*
Y497190D02*X48270Y497460D01*
X49080D01*
X49998Y495300D02*X50538D01*
X50268Y497460D02*Y495300D01*
X49728Y496920D02*X50268Y497460D01*
X21770Y380300D02*X22580D01*
X21500Y380570D02*X21770Y380300D01*
X21500Y382190D02*Y380570D01*
Y382190D02*X21770Y382460D01*
X22580D01*
X23228Y382190D02*X23498Y382460D01*
X24038D01*
X24308Y382190D01*
Y380570D01*
X24038Y380300D02*X24308Y380570D01*
X23498Y380300D02*X24038D01*
X23228Y380570D02*X23498Y380300D01*
Y381380D02*X24308D01*
X27770Y380300D02*X28580D01*
X27500Y380570D02*X27770Y380300D01*
X27500Y382190D02*Y380570D01*
Y382190D02*X27770Y382460D01*
X28580D01*
X29228Y381380D02*X30308Y382460D01*
X29228Y381380D02*X30578D01*
X30308Y382460D02*Y380300D01*
X23700Y376000D02*Y372000D01*
X25700D01*
X27400D02*X28400D01*
X27900Y376000D02*Y372000D01*
X26900Y375000D02*X27900Y376000D01*
X21770Y330300D02*X22580D01*
X21500Y330570D02*X21770Y330300D01*
X21500Y332190D02*Y330570D01*
Y332190D02*X21770Y332460D01*
X22580D01*
X23228Y332190D02*X23498Y332460D01*
X24038D01*
X24308Y332190D01*
Y330570D01*
X24038Y330300D02*X24308Y330570D01*
X23498Y330300D02*X24038D01*
X23228Y330570D02*X23498Y330300D01*
Y331380D02*X24308D01*
X27770Y330300D02*X28580D01*
X27500Y330570D02*X27770Y330300D01*
X27500Y332190D02*Y330570D01*
Y332190D02*X27770Y332460D01*
X28580D01*
X29228Y331380D02*X30308Y332460D01*
X29228Y331380D02*X30578D01*
X30308Y332460D02*Y330300D01*
X57700Y369580D02*Y368770D01*
X57430Y368500D02*X57700Y368770D01*
X55810Y368500D02*X57430D01*
X55810D02*X55540Y368770D01*
Y369580D02*Y368770D01*
X55810Y370228D02*X55540Y370498D01*
Y371308D02*Y370498D01*
Y371308D02*X55810Y371578D01*
X56350D01*
X57700Y370228D02*X56350Y371578D01*
X57700D02*Y370228D01*
X48270Y395300D02*X49080D01*
X48000Y395570D02*X48270Y395300D01*
X48000Y397190D02*Y395570D01*
Y397190D02*X48270Y397460D01*
X49080D01*
X49998Y395300D02*X50538D01*
X50268Y397460D02*Y395300D01*
X49728Y396920D02*X50268Y397460D01*
X48270Y345300D02*X49080D01*
X48000Y345570D02*X48270Y345300D01*
X48000Y347190D02*Y345570D01*
Y347190D02*X48270Y347460D01*
X49080D01*
X49998Y345300D02*X50538D01*
X50268Y347460D02*Y345300D01*
X49728Y346920D02*X50268Y347460D01*
X57700Y319580D02*Y318770D01*
X57430Y318500D02*X57700Y318770D01*
X55810Y318500D02*X57430D01*
X55810D02*X55540Y318770D01*
Y319580D02*Y318770D01*
X55810Y320228D02*X55540Y320498D01*
Y321308D02*Y320498D01*
Y321308D02*X55810Y321578D01*
X56350D01*
X57700Y320228D02*X56350Y321578D01*
X57700D02*Y320228D01*
X23700Y326000D02*Y322000D01*
X25700D01*
X27400D02*X28400D01*
X27900Y326000D02*Y322000D01*
X26900Y325000D02*X27900Y326000D01*
M02*
