G04 start of page 12 for group -4014 idx -4014 *
G04 Title: (unknown), bottompaste *
G04 Creator: pcb 4.0.2 *
G04 CreationDate: Mon Aug 16 16:10:31 2021 UTC *
G04 For: ndholmes *
G04 Format: Gerber/RS-274X *
G04 PCB-Dimensions (mil): 700.00 5100.00 *
G04 PCB-Coordinate-Origin: lower left *
%MOIN*%
%FSLAX25Y25*%
%LNBOTTOMPASTE*%
%ADD42C,0.0001*%
G54D42*G36*
X62000Y470500D02*X56000D01*
Y462500D01*
X62000D01*
Y470500D01*
G37*
G36*
X14000Y484000D02*X8000D01*
Y476000D01*
X14000D01*
Y484000D01*
G37*
G36*
Y470500D02*X8000D01*
Y462500D01*
X14000D01*
Y470500D01*
G37*
G36*
X62000Y484000D02*X56000D01*
Y476000D01*
X62000D01*
Y484000D01*
G37*
G36*
Y497500D02*X56000D01*
Y489500D01*
X62000D01*
Y497500D01*
G37*
G36*
X14000D02*X8000D01*
Y489500D01*
X14000D01*
Y497500D01*
G37*
G36*
X62000Y420500D02*X56000D01*
Y412500D01*
X62000D01*
Y420500D01*
G37*
G36*
X14000Y434000D02*X8000D01*
Y426000D01*
X14000D01*
Y434000D01*
G37*
G36*
Y420500D02*X8000D01*
Y412500D01*
X14000D01*
Y420500D01*
G37*
G36*
X62000Y434000D02*X56000D01*
Y426000D01*
X62000D01*
Y434000D01*
G37*
G36*
Y447500D02*X56000D01*
Y439500D01*
X62000D01*
Y447500D01*
G37*
G36*
X14000D02*X8000D01*
Y439500D01*
X14000D01*
Y447500D01*
G37*
G36*
X62000Y370500D02*X56000D01*
Y362500D01*
X62000D01*
Y370500D01*
G37*
G36*
X14000Y384000D02*X8000D01*
Y376000D01*
X14000D01*
Y384000D01*
G37*
G36*
Y370500D02*X8000D01*
Y362500D01*
X14000D01*
Y370500D01*
G37*
G36*
X62000Y384000D02*X56000D01*
Y376000D01*
X62000D01*
Y384000D01*
G37*
G36*
Y397500D02*X56000D01*
Y389500D01*
X62000D01*
Y397500D01*
G37*
G36*
X14000D02*X8000D01*
Y389500D01*
X14000D01*
Y397500D01*
G37*
G36*
X62000Y320500D02*X56000D01*
Y312500D01*
X62000D01*
Y320500D01*
G37*
G36*
X14000Y334000D02*X8000D01*
Y326000D01*
X14000D01*
Y334000D01*
G37*
G36*
Y320500D02*X8000D01*
Y312500D01*
X14000D01*
Y320500D01*
G37*
G36*
X62000Y334000D02*X56000D01*
Y326000D01*
X62000D01*
Y334000D01*
G37*
G36*
Y347500D02*X56000D01*
Y339500D01*
X62000D01*
Y347500D01*
G37*
G36*
X14000D02*X8000D01*
Y339500D01*
X14000D01*
Y347500D01*
G37*
G36*
X62000Y270500D02*X56000D01*
Y262500D01*
X62000D01*
Y270500D01*
G37*
G36*
X14000Y284000D02*X8000D01*
Y276000D01*
X14000D01*
Y284000D01*
G37*
G36*
Y270500D02*X8000D01*
Y262500D01*
X14000D01*
Y270500D01*
G37*
G36*
X62000Y284000D02*X56000D01*
Y276000D01*
X62000D01*
Y284000D01*
G37*
G36*
Y297500D02*X56000D01*
Y289500D01*
X62000D01*
Y297500D01*
G37*
G36*
X14000D02*X8000D01*
Y289500D01*
X14000D01*
Y297500D01*
G37*
G36*
X62000Y220500D02*X56000D01*
Y212500D01*
X62000D01*
Y220500D01*
G37*
G36*
X14000Y234000D02*X8000D01*
Y226000D01*
X14000D01*
Y234000D01*
G37*
G36*
Y220500D02*X8000D01*
Y212500D01*
X14000D01*
Y220500D01*
G37*
G36*
X62000Y234000D02*X56000D01*
Y226000D01*
X62000D01*
Y234000D01*
G37*
G36*
Y247500D02*X56000D01*
Y239500D01*
X62000D01*
Y247500D01*
G37*
G36*
X14000D02*X8000D01*
Y239500D01*
X14000D01*
Y247500D01*
G37*
G36*
X62000Y170500D02*X56000D01*
Y162500D01*
X62000D01*
Y170500D01*
G37*
G36*
X14000Y184000D02*X8000D01*
Y176000D01*
X14000D01*
Y184000D01*
G37*
G36*
Y170500D02*X8000D01*
Y162500D01*
X14000D01*
Y170500D01*
G37*
G36*
X62000Y184000D02*X56000D01*
Y176000D01*
X62000D01*
Y184000D01*
G37*
G36*
Y197500D02*X56000D01*
Y189500D01*
X62000D01*
Y197500D01*
G37*
G36*
X14000D02*X8000D01*
Y189500D01*
X14000D01*
Y197500D01*
G37*
G36*
X62000Y120500D02*X56000D01*
Y112500D01*
X62000D01*
Y120500D01*
G37*
G36*
X14000Y134000D02*X8000D01*
Y126000D01*
X14000D01*
Y134000D01*
G37*
G36*
Y120500D02*X8000D01*
Y112500D01*
X14000D01*
Y120500D01*
G37*
G36*
X62000Y134000D02*X56000D01*
Y126000D01*
X62000D01*
Y134000D01*
G37*
G36*
Y147500D02*X56000D01*
Y139500D01*
X62000D01*
Y147500D01*
G37*
G36*
X14000D02*X8000D01*
Y139500D01*
X14000D01*
Y147500D01*
G37*
G36*
X62000Y70500D02*X56000D01*
Y62500D01*
X62000D01*
Y70500D01*
G37*
G36*
X14000Y84000D02*X8000D01*
Y76000D01*
X14000D01*
Y84000D01*
G37*
G36*
Y70500D02*X8000D01*
Y62500D01*
X14000D01*
Y70500D01*
G37*
G36*
X62000Y84000D02*X56000D01*
Y76000D01*
X62000D01*
Y84000D01*
G37*
G36*
Y97500D02*X56000D01*
Y89500D01*
X62000D01*
Y97500D01*
G37*
G36*
X14000D02*X8000D01*
Y89500D01*
X14000D01*
Y97500D01*
G37*
G36*
X62000Y20500D02*X56000D01*
Y12500D01*
X62000D01*
Y20500D01*
G37*
G36*
X14000Y34000D02*X8000D01*
Y26000D01*
X14000D01*
Y34000D01*
G37*
G36*
Y20500D02*X8000D01*
Y12500D01*
X14000D01*
Y20500D01*
G37*
G36*
X62000Y34000D02*X56000D01*
Y26000D01*
X62000D01*
Y34000D01*
G37*
G36*
Y47500D02*X56000D01*
Y39500D01*
X62000D01*
Y47500D01*
G37*
G36*
X14000D02*X8000D01*
Y39500D01*
X14000D01*
Y47500D01*
G37*
M02*
