G04 start of page 4 for group 2 idx 2 *
G04 Title: (unknown), outline *
G04 Creator: pcb 4.0.2 *
G04 CreationDate: Mon Aug 16 16:10:31 2021 UTC *
G04 For: ndholmes *
G04 Format: Gerber/RS-274X *
G04 PCB-Dimensions (mil): 700.00 5100.00 *
G04 PCB-Coordinate-Origin: lower left *
%MOIN*%
%FSLAX25Y25*%
%LNOUTLINE*%
%ADD29C,0.0100*%
G54D29*X25000Y360000D02*X8000D01*
Y400000D02*Y360000D01*
X25000Y350000D02*X8000D01*
X62000Y360000D02*X45000D01*
X62000D02*Y400000D01*
Y350000D02*X45000D01*
X62000Y460000D02*X45000D01*
X62000D02*Y500000D01*
Y450000D02*X45000D01*
X25000Y460000D02*X8000D01*
X62000Y500000D02*X8000D01*
Y460000D01*
X25000Y410000D02*X8000D01*
X62000D02*X45000D01*
X25000Y450000D02*X8000D01*
Y410000D01*
X62000D02*Y450000D01*
X25000Y400000D02*X8000D01*
X62000D02*X45000D01*
X25000Y310000D02*X8000D01*
Y350000D02*Y310000D01*
X25000Y300000D02*X8000D01*
Y260000D01*
X62000Y310000D02*X45000D01*
X62000D02*Y350000D01*
Y260000D02*X45000D01*
X62000Y300000D02*X45000D01*
X62000Y260000D02*Y300000D01*
Y250000D02*X45000D01*
X25000Y260000D02*X8000D01*
X25000Y250000D02*X8000D01*
Y210000D01*
X62000D02*Y250000D01*
X25000Y210000D02*X8000D01*
X25000Y200000D02*X8000D01*
Y160000D01*
X62000Y210000D02*X45000D01*
X62000Y200000D02*X45000D01*
X62000Y160000D02*Y200000D01*
X25000Y160000D02*X8000D01*
X25000Y110000D02*X8000D01*
X25000Y150000D02*X8000D01*
Y110000D01*
X25000Y100000D02*X8000D01*
Y60000D01*
X62000Y160000D02*X45000D01*
X62000Y110000D02*X45000D01*
X62000Y150000D02*X45000D01*
X62000Y110000D02*Y150000D01*
Y100000D02*X45000D01*
X62000Y60000D02*Y100000D01*
X25000Y60000D02*X8000D01*
X62000Y10000D02*X8000D01*
X25000Y50000D02*X8000D01*
X62000D02*X45000D01*
X8000D02*Y10000D01*
X62000D02*Y50000D01*
Y60000D02*X45000D01*
X40000Y355000D02*G75*G03X45000Y350000I5000J0D01*G01*
X40000Y305000D02*G75*G03X45000Y300000I5000J0D01*G01*
X40000Y305000D02*G75*G02X45000Y310000I5000J0D01*G01*
X30000Y355000D02*G75*G02X25000Y350000I-5000J0D01*G01*
X30000Y305000D02*G75*G02X25000Y300000I-5000J0D01*G01*
X30000Y305000D02*G75*G03X25000Y310000I-5000J0D01*G01*
X30000Y255000D02*G75*G02X25000Y250000I-5000J0D01*G01*
X30000Y255000D02*G75*G03X25000Y260000I-5000J0D01*G01*
X40000Y255000D02*G75*G03X45000Y250000I5000J0D01*G01*
X40000Y255000D02*G75*G02X45000Y260000I5000J0D01*G01*
X40000Y205000D02*G75*G03X45000Y200000I5000J0D01*G01*
X40000Y205000D02*G75*G02X45000Y210000I5000J0D01*G01*
X40000Y405000D02*G75*G03X45000Y400000I5000J0D01*G01*
X40000Y405000D02*G75*G02X45000Y410000I5000J0D01*G01*
X30000Y405000D02*G75*G02X25000Y400000I-5000J0D01*G01*
X30000Y405000D02*G75*G03X25000Y410000I-5000J0D01*G01*
X40000Y455000D02*G75*G03X45000Y450000I5000J0D01*G01*
X40000Y455000D02*G75*G02X45000Y460000I5000J0D01*G01*
X30000Y455000D02*G75*G02X25000Y450000I-5000J0D01*G01*
X30000Y455000D02*G75*G03X25000Y460000I-5000J0D01*G01*
X40000Y355000D02*G75*G02X45000Y360000I5000J0D01*G01*
X30000Y355000D02*G75*G03X25000Y360000I-5000J0D01*G01*
X30000Y205000D02*G75*G02X25000Y200000I-5000J0D01*G01*
X30000Y105000D02*G75*G02X25000Y100000I-5000J0D01*G01*
X30000Y105000D02*G75*G03X25000Y110000I-5000J0D01*G01*
X30000Y205000D02*G75*G03X25000Y210000I-5000J0D01*G01*
X40000Y155000D02*G75*G03X45000Y150000I5000J0D01*G01*
X40000Y155000D02*G75*G02X45000Y160000I5000J0D01*G01*
X30000Y155000D02*G75*G02X25000Y150000I-5000J0D01*G01*
X30000Y155000D02*G75*G03X25000Y160000I-5000J0D01*G01*
X40000Y105000D02*G75*G03X45000Y100000I5000J0D01*G01*
X40000Y105000D02*G75*G02X45000Y110000I5000J0D01*G01*
X40000Y55000D02*G75*G03X45000Y50000I5000J0D01*G01*
X40000Y55000D02*G75*G02X45000Y60000I5000J0D01*G01*
X30000Y55000D02*G75*G02X25000Y50000I-5000J0D01*G01*
X30000Y55000D02*G75*G03X25000Y60000I-5000J0D01*G01*
M02*
