G04 start of page 8 for group -4062 idx -4062 *
G04 Title: (unknown), soldermask *
G04 Creator: pcb 4.0.2 *
G04 CreationDate: Mon Aug 16 16:10:31 2021 UTC *
G04 For: ndholmes *
G04 Format: Gerber/RS-274X *
G04 PCB-Dimensions (mil): 700.00 5100.00 *
G04 PCB-Coordinate-Origin: lower left *
%MOIN*%
%FSLAX25Y25*%
%LNBOTTOMMASK*%
%ADD36C,0.0001*%
%ADD35C,0.0860*%
G54D35*X62000Y366500D03*
Y380000D03*
Y393500D03*
Y343500D03*
X8000Y380000D03*
Y366500D03*
Y393500D03*
Y330000D03*
Y316500D03*
Y343500D03*
Y466500D03*
X62000Y416500D03*
X8000D03*
X62000Y443500D03*
X8000D03*
X62000Y466500D03*
X8000Y480000D03*
X62000D03*
Y493500D03*
X8000D03*
Y430000D03*
X62000D03*
Y316500D03*
Y330000D03*
Y280000D03*
Y293500D03*
X8000Y280000D03*
Y293500D03*
Y266500D03*
Y230000D03*
Y243500D03*
X62000Y266500D03*
Y216500D03*
Y230000D03*
Y243500D03*
Y166500D03*
Y180000D03*
Y193500D03*
X8000Y216500D03*
Y180000D03*
Y166500D03*
Y193500D03*
X62000Y116500D03*
Y130000D03*
Y143500D03*
Y93500D03*
X8000Y130000D03*
Y116500D03*
Y143500D03*
Y80000D03*
Y66500D03*
Y93500D03*
X62000Y66500D03*
Y80000D03*
Y16500D03*
Y30000D03*
Y43500D03*
X8000Y30000D03*
Y16500D03*
Y43500D03*
G54D36*G36*
X14300Y320800D02*X7700D01*
Y312200D01*
X14300D01*
Y320800D01*
G37*
G36*
X62300D02*X55700D01*
Y312200D01*
X62300D01*
Y320800D01*
G37*
G36*
Y334300D02*X55700D01*
Y325700D01*
X62300D01*
Y334300D01*
G37*
G36*
Y347800D02*X55700D01*
Y339200D01*
X62300D01*
Y347800D01*
G37*
G36*
X14300Y270800D02*X7700D01*
Y262200D01*
X14300D01*
Y270800D01*
G37*
G36*
X62300D02*X55700D01*
Y262200D01*
X62300D01*
Y270800D01*
G37*
G36*
X14300Y247800D02*X7700D01*
Y239200D01*
X14300D01*
Y247800D01*
G37*
G36*
Y220800D02*X7700D01*
Y212200D01*
X14300D01*
Y220800D01*
G37*
G36*
Y234300D02*X7700D01*
Y225700D01*
X14300D01*
Y234300D01*
G37*
G36*
X62300Y220800D02*X55700D01*
Y212200D01*
X62300D01*
Y220800D01*
G37*
G36*
Y234300D02*X55700D01*
Y225700D01*
X62300D01*
Y234300D01*
G37*
G36*
Y247800D02*X55700D01*
Y239200D01*
X62300D01*
Y247800D01*
G37*
G36*
Y170800D02*X55700D01*
Y162200D01*
X62300D01*
Y170800D01*
G37*
G36*
Y184300D02*X55700D01*
Y175700D01*
X62300D01*
Y184300D01*
G37*
G36*
Y197800D02*X55700D01*
Y189200D01*
X62300D01*
Y197800D01*
G37*
G36*
X14300D02*X7700D01*
Y189200D01*
X14300D01*
Y197800D01*
G37*
G36*
Y170800D02*X7700D01*
Y162200D01*
X14300D01*
Y170800D01*
G37*
G36*
Y147800D02*X7700D01*
Y139200D01*
X14300D01*
Y147800D01*
G37*
G36*
Y184300D02*X7700D01*
Y175700D01*
X14300D01*
Y184300D01*
G37*
G36*
Y134300D02*X7700D01*
Y125700D01*
X14300D01*
Y134300D01*
G37*
G36*
X62300D02*X55700D01*
Y125700D01*
X62300D01*
Y134300D01*
G37*
G36*
Y147800D02*X55700D01*
Y139200D01*
X62300D01*
Y147800D01*
G37*
G36*
X14300Y120800D02*X7700D01*
Y112200D01*
X14300D01*
Y120800D01*
G37*
G36*
X62300D02*X55700D01*
Y112200D01*
X62300D01*
Y120800D01*
G37*
G36*
Y70800D02*X55700D01*
Y62200D01*
X62300D01*
Y70800D01*
G37*
G36*
Y84300D02*X55700D01*
Y75700D01*
X62300D01*
Y84300D01*
G37*
G36*
Y97800D02*X55700D01*
Y89200D01*
X62300D01*
Y97800D01*
G37*
G36*
X14300Y84300D02*X7700D01*
Y75700D01*
X14300D01*
Y84300D01*
G37*
G36*
Y97800D02*X7700D01*
Y89200D01*
X14300D01*
Y97800D01*
G37*
G36*
Y70800D02*X7700D01*
Y62200D01*
X14300D01*
Y70800D01*
G37*
G36*
Y47800D02*X7700D01*
Y39200D01*
X14300D01*
Y47800D01*
G37*
G36*
X62300Y34300D02*X55700D01*
Y25700D01*
X62300D01*
Y34300D01*
G37*
G36*
Y47800D02*X55700D01*
Y39200D01*
X62300D01*
Y47800D01*
G37*
G36*
Y20800D02*X55700D01*
Y12200D01*
X62300D01*
Y20800D01*
G37*
G36*
X14300D02*X7700D01*
Y12200D01*
X14300D01*
Y20800D01*
G37*
G36*
Y34300D02*X7700D01*
Y25700D01*
X14300D01*
Y34300D01*
G37*
G36*
Y470800D02*X7700D01*
Y462200D01*
X14300D01*
Y470800D01*
G37*
G36*
Y447800D02*X7700D01*
Y439200D01*
X14300D01*
Y447800D01*
G37*
G36*
Y420800D02*X7700D01*
Y412200D01*
X14300D01*
Y420800D01*
G37*
G36*
Y434300D02*X7700D01*
Y425700D01*
X14300D01*
Y434300D01*
G37*
G36*
Y397800D02*X7700D01*
Y389200D01*
X14300D01*
Y397800D01*
G37*
G36*
X62300Y420800D02*X55700D01*
Y412200D01*
X62300D01*
Y420800D01*
G37*
G36*
Y434300D02*X55700D01*
Y425700D01*
X62300D01*
Y434300D01*
G37*
G36*
Y447800D02*X55700D01*
Y439200D01*
X62300D01*
Y447800D01*
G37*
G36*
X14300Y497800D02*X7700D01*
Y489200D01*
X14300D01*
Y497800D01*
G37*
G36*
Y484300D02*X7700D01*
Y475700D01*
X14300D01*
Y484300D01*
G37*
G36*
X62300Y497800D02*X55700D01*
Y489200D01*
X62300D01*
Y497800D01*
G37*
G36*
Y470800D02*X55700D01*
Y462200D01*
X62300D01*
Y470800D01*
G37*
G36*
Y484300D02*X55700D01*
Y475700D01*
X62300D01*
Y484300D01*
G37*
G36*
X14300Y370800D02*X7700D01*
Y362200D01*
X14300D01*
Y370800D01*
G37*
G36*
Y384300D02*X7700D01*
Y375700D01*
X14300D01*
Y384300D01*
G37*
G36*
X62300Y370800D02*X55700D01*
Y362200D01*
X62300D01*
Y370800D01*
G37*
G36*
Y384300D02*X55700D01*
Y375700D01*
X62300D01*
Y384300D01*
G37*
G36*
Y397800D02*X55700D01*
Y389200D01*
X62300D01*
Y397800D01*
G37*
G36*
X14300Y334300D02*X7700D01*
Y325700D01*
X14300D01*
Y334300D01*
G37*
G36*
Y347800D02*X7700D01*
Y339200D01*
X14300D01*
Y347800D01*
G37*
G36*
X62300Y284300D02*X55700D01*
Y275700D01*
X62300D01*
Y284300D01*
G37*
G36*
Y297800D02*X55700D01*
Y289200D01*
X62300D01*
Y297800D01*
G37*
G36*
X14300Y284300D02*X7700D01*
Y275700D01*
X14300D01*
Y284300D01*
G37*
G36*
Y297800D02*X7700D01*
Y289200D01*
X14300D01*
Y297800D01*
G37*
M02*
